<?xml version="1.0" encoding="utf-8"?>
<!-- Generator: Adobe Illustrator 22.1.0, SVG Export Plug-In . SVG Version: 6.00 Build 0)  -->
<svg version="1.1" id="Layer_1" xmlns="http://www.w3.org/2000/svg" xmlns:xlink="http://www.w3.org/1999/xlink" x="0px" y="0px"
	 viewBox="0 0 146.8 333.9" style="enable-background:new 0 0 146.8 333.9;" xml:space="preserve">
<style type="text/css">
	.st0{fill:#D59902;stroke:#FFFFFF;stroke-width:2;stroke-miterlimit:10;}
	.st1{fill:#AA2601;stroke:#FFFFFF;stroke-width:0.75;stroke-miterlimit:10;}
	.st2{fill:#FFFFFF;}
	.st3{fill:#AA2601;}
</style>
<g id="home">
	<g>
		<path class="st0" d="M77.8,38.2c-0.4-0.6-0.9-1-1.5-1.2s-1.4-0.3-2.4-0.3s-1.8,0.1-2.4,0.3s-1.1,0.6-1.5,1.2s-0.6,1.4-0.8,2.4
			S69,42.8,69,44.4c0,1.5,0.1,2.8,0.2,3.7s0.4,1.8,0.8,2.3s0.9,1,1.5,1.2s1.4,0.3,2.4,0.3s1.8-0.1,2.4-0.3s1.1-0.6,1.5-1.2
			s0.6-1.3,0.8-2.3s0.2-2.2,0.2-3.7s-0.1-2.8-0.2-3.8S78.2,38.8,77.8,38.2z"/>
		<path class="st0" d="M84.5,0C58.6,0,37.6,21,37.6,46.9s21,46.9,46.9,46.9s46.9-21,46.9-46.9S110.4,0,84.5,0z M61,54.7h-3.5v-9h-9
			v9H45V33.8h3.5v8.7h9v-8.7H61V54.7z M82.2,48.1c-0.2,1.1-0.4,2.1-0.8,2.9s-0.7,1.5-1.2,2s-1,1-1.7,1.3s-1.3,0.5-2.1,0.7
			c-0.8,0.1-1.6,0.2-2.5,0.2s-1.7-0.1-2.5-0.2s-1.5-0.4-2.1-0.7c-0.6-0.3-1.2-0.7-1.7-1.3s-0.9-1.2-1.3-2s-0.6-1.8-0.8-2.9
			s-0.3-2.4-0.3-3.9c0-2.2,0.2-4,0.6-5.4s1-2.5,1.7-3.3s1.6-1.4,2.7-1.7s2.3-0.5,3.6-0.5c0.9,0,1.7,0.1,2.5,0.2s1.5,0.4,2.1,0.7
			s1.2,0.8,1.7,1.3s0.9,1.2,1.2,2s0.6,1.8,0.8,2.9s0.3,2.4,0.3,3.8S82.4,47,82.2,48.1z M106.9,54.7h-3.5V37.1h-0.1l-0.4,1.3
			c-0.1,0.4-0.2,0.8-0.4,1.2s-0.2,0.8-0.3,1L99.5,49h-5.3l-2.8-8.5c-0.1-0.3-0.2-0.6-0.3-1s-0.2-0.8-0.4-1.1
			c-0.1-0.4-0.3-0.9-0.4-1.3h-0.1v17.6h-3.5V33.8h6.1l3.9,12.6h0.1l4-12.6h6v20.9H106.9z M112.2,54.7V33.8h12.6v3.3h-9.1v5.5h7.6
			v3.2h-7.6v5.7h9.3v3.3h-12.8V54.7z"/>
	</g>
</g>
<g id="unit01">
	<g>
		<path class="st1" d="M80.5,121.1c-0.1-0.3-0.3-0.6-0.5-0.8c-0.2-0.2-0.5-0.3-0.7-0.4c-0.3-0.1-0.6-0.1-0.9-0.2c-0.3,0-0.7,0-1,0
			h-2v9.6h2c0.3,0,0.7,0,1,0c0.3,0,0.6-0.1,0.9-0.2c0.3-0.1,0.5-0.3,0.7-0.5c0.2-0.2,0.4-0.5,0.6-0.9c0.1-0.3,0.3-0.8,0.4-1.4
			c0.1-0.5,0.1-1.3,0.1-2.1c0-0.7-0.1-1.4-0.1-1.9C80.9,121.8,80.7,121.5,80.5,121.1z"/>
		<path class="st1" d="M123.7,120.5c-0.2-0.4-0.5-0.7-0.8-0.9c-0.3-0.2-0.8-0.3-1.3-0.3c-0.5,0-1,0.1-1.3,0.3
			c-0.3,0.2-0.6,0.5-0.8,0.9c-0.2,0.4-0.3,0.9-0.4,1.5s-0.1,1.4-0.1,2.3c0,0.9,0.1,1.7,0.1,2.3s0.2,1.2,0.4,1.7
			c0.2,0.4,0.5,0.7,0.8,0.9c0.3,0.2,0.8,0.3,1.3,0.3c0.5,0,1-0.1,1.3-0.3c0.3-0.2,0.6-0.5,0.8-0.9c0.2-0.4,0.3-1,0.4-1.6
			s0.1-1.5,0.1-2.3c0-0.9-0.1-1.7-0.1-2.3S123.9,120.9,123.7,120.5z"/>
		<path class="st1" d="M20.2,105.8C9,105.8,0,114.8,0,126l0,0c0,11.2,9,20.2,20.2,20.2h128v-40.5L20.2,105.8L20.2,105.8z
			 M55.7,131.5h-2.3v-11.8h-0.1l-0.3,0.9c-0.1,0.3-0.1,0.5-0.3,0.8c-0.1,0.3-0.1,0.5-0.2,0.7l-1.8,5.6h-3.6l-1.9-5.7
			c-0.1-0.2-0.1-0.4-0.2-0.7c-0.1-0.3-0.1-0.5-0.3-0.7c-0.1-0.3-0.2-0.6-0.3-0.9h-0.1v11.8h-2.3v-14h4.1l2.6,8.4h0.1l2.7-8.4h4
			L55.7,131.5L55.7,131.5z M69.9,127.1c-0.1,0.7-0.3,1.4-0.5,1.9c-0.2,0.5-0.5,1-0.8,1.3c-0.3,0.3-0.7,0.7-1.1,0.9
			c-0.5,0.2-0.9,0.3-1.4,0.5c-0.5,0.1-1.1,0.1-1.7,0.1s-1.1-0.1-1.7-0.1s-1-0.2-1.4-0.5c-0.4-0.3-0.8-0.5-1.1-0.9
			c-0.3-0.3-0.6-0.8-0.9-1.3c-0.2-0.5-0.4-1.2-0.5-1.9s-0.2-1.6-0.2-2.6c0-1.5,0.1-2.7,0.4-3.6s0.7-1.7,1.1-2.2
			c0.5-0.5,1.1-0.9,1.8-1.1c0.7-0.2,1.5-0.3,2.4-0.3c0.6,0,1.1,0.1,1.7,0.1c0.5,0.1,1,0.3,1.4,0.5c0.4,0.2,0.8,0.5,1.1,0.9
			c0.3,0.3,0.6,0.8,0.8,1.3c0.2,0.5,0.4,1.2,0.5,1.9c0.1,0.7,0.2,1.6,0.2,2.5C70,125.5,70,126.4,69.9,127.1z M83.3,127
			c-0.1,0.7-0.3,1.4-0.5,1.9c-0.2,0.5-0.5,0.9-0.8,1.3c-0.3,0.3-0.7,0.6-1.1,0.8c-0.4,0.2-0.9,0.3-1.3,0.4s-1,0.1-1.5,0.1h-5v-14h5
			c0.5,0,1,0.1,1.5,0.1s0.9,0.2,1.3,0.4c0.4,0.2,0.8,0.5,1.1,0.7c0.3,0.3,0.6,0.7,0.9,1.3c0.3,0.5,0.4,1.1,0.5,1.9
			c0.1,0.7,0.2,1.5,0.2,2.5C83.5,125.4,83.5,126.3,83.3,127z M96.7,127c0,0.8-0.1,1.5-0.3,2.1s-0.5,1.1-0.9,1.5s-0.9,0.7-1.6,0.9
			s-1.5,0.3-2.3,0.3c-0.9,0-1.7-0.1-2.3-0.3c-0.7-0.2-1.2-0.5-1.6-0.9c-0.4-0.4-0.7-0.9-0.9-1.5c-0.2-0.6-0.3-1.3-0.3-2.1v-9.5h2.3
			v9.4c0,0.5,0.1,1,0.1,1.4c0.1,0.4,0.3,0.7,0.5,0.9c0.2,0.2,0.5,0.3,0.9,0.4c0.3,0.1,0.8,0.1,1.3,0.1c0.5,0,0.9-0.1,1.2-0.1
			c0.3-0.1,0.7-0.2,0.9-0.4c0.3-0.2,0.4-0.5,0.5-0.9c0.1-0.3,0.2-0.8,0.2-1.4v-9.4h2.3L96.7,127L96.7,127z M108.8,131.5h-8.6v-14
			h8.4v2.2h-6.1v3.7h5.1v2.1h-5.1v3.8h6.2V131.5z M126.6,126.9c-0.1,0.7-0.2,1.4-0.4,1.9c-0.2,0.5-0.4,1-0.7,1.4
			c-0.3,0.4-0.6,0.7-1,0.9c-0.4,0.3-0.8,0.4-1.3,0.5c-0.5,0.1-1.1,0.1-1.7,0.1s-1.2-0.1-1.7-0.1c-0.5-0.1-0.9-0.3-1.3-0.5
			c-0.4-0.2-0.7-0.5-1-0.9c-0.3-0.4-0.5-0.9-0.7-1.4c-0.2-0.5-0.3-1.2-0.4-1.9c-0.1-0.7-0.1-1.6-0.1-2.5c0-1.5,0.1-2.6,0.3-3.6
			c0.2-0.9,0.5-1.7,0.9-2.2c0.4-0.5,0.9-0.9,1.6-1.1c0.7-0.2,1.5-0.3,2.3-0.3c0.9,0,1.7,0.1,2.3,0.3c0.7,0.2,1.2,0.6,1.6,1.1
			c0.4,0.5,0.7,1.3,0.9,2.2c0.2,0.9,0.3,2.1,0.3,3.6C126.7,125.3,126.7,126.2,126.6,126.9z M134,131.5h-2.3v-11.8h-2.5l0.7-2.2h4.3
			L134,131.5L134,131.5z"/>
		<path class="st1" d="M66.9,120.4c-0.3-0.4-0.6-0.7-1-0.8c-0.4-0.1-0.9-0.2-1.6-0.2c-0.7,0-1.2,0.1-1.6,0.2c-0.4,0.1-0.7,0.4-1,0.8
			c-0.3,0.4-0.4,0.9-0.5,1.6c-0.1,0.7-0.1,1.5-0.1,2.5c0,1,0.1,1.9,0.1,2.5c0.1,0.7,0.3,1.2,0.5,1.5c0.3,0.4,0.6,0.7,1,0.8
			c0.4,0.1,0.9,0.2,1.6,0.2c0.7,0,1.2-0.1,1.6-0.2c0.4-0.1,0.7-0.4,1-0.8c0.3-0.4,0.4-0.9,0.5-1.5c0.1-0.7,0.1-1.5,0.1-2.5
			c0-1-0.1-1.9-0.1-2.5C67.3,121.4,67.2,120.8,66.9,120.4z"/>
	</g>
</g>
<g id="unit02">
	<g>
		<path class="st2" d="M123.7,167.7c-0.2-0.4-0.5-0.7-0.8-0.9c-0.3-0.2-0.8-0.3-1.3-0.3c-0.5,0-1,0.1-1.3,0.3
			c-0.3,0.2-0.6,0.5-0.8,0.9c-0.2,0.4-0.3,0.9-0.4,1.5c-0.1,0.6-0.1,1.4-0.1,2.3c0,0.9,0.1,1.7,0.1,2.3c0.1,0.7,0.2,1.2,0.4,1.7
			c0.2,0.5,0.5,0.7,0.8,0.9c0.3,0.2,0.8,0.3,1.3,0.3c0.5,0,1-0.1,1.3-0.3c0.3-0.2,0.6-0.5,0.8-0.9c0.2-0.4,0.3-1,0.4-1.6
			c0.1-0.6,0.1-1.5,0.1-2.3s-0.1-1.7-0.1-2.3S123.9,168.1,123.7,167.7z"/>
		<path class="st2" d="M66.9,167.6c-0.3-0.4-0.6-0.7-1-0.8c-0.4-0.1-0.9-0.2-1.6-0.2c-0.7,0-1.2,0.1-1.6,0.2c-0.4,0.1-0.7,0.4-1,0.8
			c-0.3,0.4-0.4,0.9-0.5,1.6c-0.1,0.7-0.1,1.5-0.1,2.5c0,1,0.1,1.9,0.1,2.5c0.1,0.7,0.3,1.2,0.5,1.5c0.3,0.4,0.6,0.7,1,0.8
			c0.4,0.1,0.9,0.2,1.6,0.2c0.7,0,1.2-0.1,1.6-0.2c0.4-0.1,0.7-0.4,1-0.8s0.4-0.9,0.5-1.5c0.1-0.7,0.1-1.5,0.1-2.5s-0.1-1.9-0.1-2.5
			C67.4,168.5,67.2,167.9,66.9,167.6z"/>
		<path class="st2" d="M80.6,168.3c-0.1-0.3-0.3-0.6-0.5-0.8c-0.2-0.2-0.5-0.3-0.7-0.4c-0.3-0.1-0.6-0.1-0.9-0.2c-0.3,0-0.7,0-1,0
			h-2v9.6h2c0.3,0,0.7,0,1,0c0.3,0,0.6-0.1,0.9-0.2c0.3-0.1,0.5-0.3,0.7-0.5c0.2-0.2,0.4-0.5,0.6-0.9c0.1-0.3,0.3-0.8,0.4-1.4
			c0.1-0.5,0.1-1.3,0.1-2.1c0-0.7-0.1-1.4-0.1-1.9C81,169,80.7,168.6,80.6,168.3z"/>
		<path class="st2" d="M20.2,152.8C9,152.8,0,161.8,0,173l0,0c0,11.2,9,20.2,20.2,20.2h128v-40.5H20.2z M55.7,178.7h-2.3v-11.8h-0.1
			l-0.3,0.9c-0.1,0.3-0.1,0.5-0.3,0.8c-0.1,0.3-0.1,0.5-0.2,0.7l-1.8,5.6h-3.6l-1.9-5.7c-0.1-0.2-0.1-0.4-0.2-0.7
			c-0.1-0.3-0.1-0.5-0.3-0.7c-0.1-0.3-0.2-0.6-0.3-0.9h-0.1v11.8h-2.3v-14h4.1l2.6,8.4h0.1l2.7-8.4h4L55.7,178.7L55.7,178.7z
			 M69.9,174.2c-0.1,0.7-0.3,1.4-0.5,1.9c-0.2,0.5-0.5,1-0.8,1.3c-0.3,0.3-0.7,0.7-1.1,0.9c-0.5,0.2-0.9,0.3-1.4,0.5
			c-0.5,0.1-1.1,0.1-1.7,0.1s-1.1-0.1-1.7-0.1s-1-0.2-1.4-0.5c-0.4-0.3-0.8-0.5-1.1-0.9s-0.6-0.8-0.9-1.3c-0.2-0.5-0.4-1.2-0.5-1.9
			c-0.1-0.7-0.2-1.6-0.2-2.6c0-1.5,0.1-2.7,0.4-3.6s0.7-1.7,1.1-2.2c0.5-0.5,1.1-0.9,1.8-1.1c0.7-0.2,1.5-0.3,2.4-0.3
			c0.6,0,1.1,0.1,1.7,0.1c0.5,0.1,1,0.3,1.4,0.5c0.4,0.2,0.8,0.5,1.1,0.9c0.3,0.3,0.6,0.8,0.8,1.3c0.2,0.5,0.4,1.2,0.5,1.9
			c0.1,0.7,0.2,1.6,0.2,2.5C70,172.6,70,173.5,69.9,174.2z M83.3,174.1c-0.1,0.7-0.3,1.4-0.5,1.9c-0.2,0.5-0.5,0.9-0.8,1.3
			c-0.3,0.3-0.7,0.6-1.1,0.8c-0.4,0.2-0.9,0.3-1.3,0.4s-1,0.1-1.5,0.1h-5v-14h5c0.5,0,1,0.1,1.5,0.1s0.9,0.2,1.3,0.4
			s0.8,0.5,1.1,0.7c0.3,0.3,0.6,0.7,0.9,1.3c0.3,0.5,0.4,1.1,0.5,1.9c0.1,0.7,0.2,1.5,0.2,2.5C83.5,172.5,83.5,173.4,83.3,174.1z
			 M96.7,174.1c0,0.8-0.1,1.5-0.3,2.1c-0.2,0.6-0.5,1.1-0.9,1.5s-0.9,0.7-1.6,0.9c-0.7,0.2-1.5,0.3-2.3,0.3c-0.9,0-1.7-0.1-2.3-0.3
			c-0.7-0.2-1.2-0.5-1.6-0.9c-0.4-0.4-0.7-0.9-0.9-1.5c-0.2-0.6-0.3-1.3-0.3-2.1v-9.5h2.3v9.4c0,0.5,0.1,1,0.1,1.4
			c0.1,0.4,0.3,0.7,0.5,0.9c0.2,0.2,0.5,0.3,0.9,0.4c0.3,0.1,0.8,0.1,1.3,0.1c0.5,0,0.9-0.1,1.2-0.1c0.3-0.1,0.7-0.2,0.9-0.4
			c0.3-0.2,0.4-0.5,0.5-0.9c0.1-0.3,0.2-0.8,0.2-1.4v-9.4h2.3L96.7,174.1L96.7,174.1z M108.8,178.7h-8.6v-14h8.4v2.2h-6.1v3.7h5.1
			v2.1h-5.1v3.8h6.2V178.7z M126.6,174c-0.1,0.7-0.2,1.4-0.4,1.9c-0.2,0.5-0.4,1-0.7,1.4c-0.3,0.4-0.6,0.7-1,0.9
			c-0.4,0.3-0.8,0.4-1.3,0.5s-1.1,0.1-1.7,0.1s-1.2-0.1-1.7-0.1c-0.5-0.1-0.9-0.3-1.3-0.5c-0.4-0.2-0.7-0.5-1-0.9
			c-0.3-0.4-0.5-0.9-0.7-1.4c-0.1-0.5-0.3-1.2-0.4-1.9c-0.1-0.7-0.1-1.6-0.1-2.5c0-1.5,0.1-2.6,0.3-3.6c0.2-0.9,0.5-1.7,0.9-2.2
			c0.4-0.5,0.9-0.9,1.6-1.1c0.7-0.2,1.5-0.3,2.3-0.3c0.9,0,1.7,0.1,2.3,0.3c0.7,0.2,1.2,0.6,1.6,1.1c0.4,0.5,0.7,1.3,0.9,2.2
			c0.2,0.9,0.3,2.1,0.3,3.6C126.7,172.4,126.7,173.3,126.6,174z M137.9,176.4v2.2h-8.6v-1.4c1.1-1.2,2.1-2.2,2.9-3.1
			c0.8-0.9,1.4-1.7,1.9-2.3c0.5-0.7,0.9-1.3,1.1-1.8c0.2-0.5,0.3-1,0.3-1.5c0-0.3-0.1-0.6-0.1-0.9s-0.2-0.5-0.4-0.6
			c-0.2-0.1-0.5-0.3-0.8-0.3s-0.8-0.1-1.3-0.1c-0.4,0-0.7,0-1.1,0.1c-0.3,0.1-0.7,0.1-1,0.1s-0.7,0.1-1,0.1v-1.8
			c0.3-0.1,0.7-0.3,1.1-0.3c0.3-0.1,0.7-0.2,1.2-0.3c0.5-0.1,1-0.1,1.6-0.1c0.8,0,1.5,0.1,2,0.3c0.5,0.2,1,0.4,1.3,0.7
			c0.3,0.3,0.6,0.7,0.7,1.2c0.1,0.5,0.2,1.1,0.2,1.7c0,0.5-0.1,1.1-0.3,1.6c-0.2,0.5-0.5,1.2-0.9,1.9c-0.4,0.7-0.9,1.4-1.6,2.1
			c-0.7,0.8-1.5,1.6-2.5,2.5l0,0L137.9,176.4L137.9,176.4z"/>
	</g>
</g>
<g id="unit03">
	<g>
		<path class="st3" d="M66.9,216.2c-0.3-0.4-0.6-0.7-1-0.8c-0.4-0.1-0.9-0.2-1.6-0.2c-0.7,0-1.2,0.1-1.6,0.2c-0.4,0.1-0.7,0.4-1,0.8
			c-0.3,0.4-0.4,0.9-0.5,1.6c-0.1,0.7-0.1,1.5-0.1,2.5c0,1,0.1,1.9,0.1,2.5c0.1,0.7,0.3,1.2,0.5,1.5c0.3,0.4,0.6,0.7,1,0.8
			c0.4,0.1,0.9,0.2,1.6,0.2c0.7,0,1.2-0.1,1.6-0.2c0.4-0.1,0.7-0.4,1-0.8s0.4-0.9,0.5-1.5c0.1-0.7,0.1-1.5,0.1-2.5
			c0-1-0.1-1.9-0.1-2.5C67.3,217.2,67.2,216.6,66.9,216.2z"/>
		<path class="st3" d="M123.7,216.3c-0.2-0.4-0.5-0.7-0.8-0.9c-0.3-0.2-0.8-0.3-1.3-0.3c-0.5,0-1,0.1-1.3,0.3
			c-0.3,0.2-0.6,0.5-0.8,0.9c-0.2,0.4-0.3,0.9-0.4,1.5s-0.1,1.4-0.1,2.3c0,0.9,0.1,1.7,0.1,2.3c0.1,0.7,0.2,1.2,0.4,1.7
			c0.2,0.5,0.5,0.7,0.8,0.9c0.3,0.2,0.8,0.3,1.3,0.3c0.5,0,1-0.1,1.3-0.3c0.3-0.2,0.6-0.5,0.8-0.9c0.2-0.4,0.3-1,0.4-1.6
			c0.1-0.6,0.1-1.5,0.1-2.3c0-0.9-0.1-1.7-0.1-2.3C124,217.4,123.9,216.7,123.7,216.3z"/>
		<path class="st3" d="M80.5,216.9c-0.1-0.3-0.3-0.6-0.5-0.8c-0.2-0.2-0.5-0.3-0.7-0.4c-0.3-0.1-0.6-0.1-0.9-0.2c-0.3,0-0.7,0-1,0
			h-2v9.6h2c0.3,0,0.7,0,1,0c0.3,0,0.6-0.1,0.9-0.2c0.3-0.1,0.5-0.3,0.7-0.5c0.2-0.2,0.4-0.5,0.6-0.9c0.1-0.3,0.3-0.8,0.4-1.4
			c0.1-0.5,0.1-1.3,0.1-2.1c0-0.7-0.1-1.4-0.1-1.9C80.9,217.6,80.7,217.3,80.5,216.9z"/>
		<path class="st3" d="M20.2,200.3C9,200.3,0,209.3,0,220.5l0,0c0,11.2,9,20.2,20.2,20.2h128v-40.5L20.2,200.3L20.2,200.3z
			 M55.7,227.3h-2.3v-11.8h-0.1l-0.3,0.9c-0.1,0.3-0.1,0.5-0.3,0.8c-0.1,0.3-0.1,0.5-0.2,0.7l-1.8,5.6h-3.6l-1.9-5.7
			c-0.1-0.2-0.1-0.4-0.2-0.7c-0.1-0.3-0.1-0.5-0.3-0.7c-0.1-0.3-0.2-0.6-0.3-0.9h-0.1v11.8h-2.3v-14h4.1l2.6,8.4h0.1l2.7-8.4h4
			L55.7,227.3L55.7,227.3z M69.9,222.9c-0.1,0.7-0.3,1.4-0.5,1.9c-0.2,0.5-0.5,1-0.8,1.3c-0.3,0.3-0.7,0.7-1.1,0.9s-0.9,0.3-1.4,0.5
			c-0.5,0.1-1.1,0.1-1.7,0.1s-1.1-0.1-1.7-0.1s-1-0.2-1.4-0.5c-0.4-0.3-0.8-0.5-1.1-0.9s-0.6-0.8-0.9-1.3c-0.2-0.5-0.4-1.2-0.5-1.9
			c-0.1-0.7-0.2-1.6-0.2-2.6c0-1.5,0.1-2.7,0.4-3.6s0.7-1.7,1.1-2.2c0.5-0.5,1.1-0.9,1.8-1.1s1.5-0.3,2.4-0.3c0.6,0,1.1,0.1,1.7,0.1
			c0.5,0.1,1,0.3,1.4,0.5c0.4,0.2,0.8,0.5,1.1,0.9c0.3,0.3,0.6,0.8,0.8,1.3c0.2,0.5,0.4,1.2,0.5,1.9c0.1,0.7,0.2,1.6,0.2,2.5
			S70,222.2,69.9,222.9z M83.3,222.8c-0.1,0.7-0.3,1.4-0.5,1.9c-0.2,0.5-0.5,0.9-0.8,1.3c-0.3,0.3-0.7,0.6-1.1,0.8
			c-0.4,0.2-0.9,0.3-1.3,0.4s-1,0.1-1.5,0.1h-5v-14h5c0.5,0,1,0.1,1.5,0.1s0.9,0.2,1.3,0.4s0.8,0.5,1.1,0.7c0.3,0.3,0.6,0.7,0.9,1.3
			c0.3,0.5,0.4,1.1,0.5,1.9c0.1,0.7,0.2,1.5,0.2,2.5C83.5,221.2,83.5,222.1,83.3,222.8z M96.7,222.8c0,0.8-0.1,1.5-0.3,2.1
			c-0.2,0.6-0.5,1.1-0.9,1.5s-0.9,0.7-1.6,0.9c-0.7,0.2-1.5,0.3-2.3,0.3c-0.9,0-1.7-0.1-2.3-0.3c-0.7-0.2-1.2-0.5-1.6-0.9
			c-0.4-0.4-0.7-0.9-0.9-1.5c-0.2-0.6-0.3-1.3-0.3-2.1v-9.5h2.3v9.4c0,0.5,0.1,1,0.1,1.4c0.1,0.4,0.3,0.7,0.5,0.9
			c0.2,0.2,0.5,0.3,0.9,0.4c0.3,0.1,0.8,0.1,1.3,0.1c0.5,0,0.9-0.1,1.2-0.1c0.3-0.1,0.7-0.2,0.9-0.4c0.3-0.2,0.4-0.5,0.5-0.9
			c0.1-0.3,0.2-0.8,0.2-1.4v-9.4h2.3L96.7,222.8L96.7,222.8z M108.8,227.3h-8.6v-14h8.4v2.2h-6.1v3.7h5.1v2.1h-5.1v3.8h6.2V227.3z
			 M126.6,222.7c-0.1,0.7-0.2,1.4-0.4,1.9c-0.2,0.5-0.4,1-0.7,1.4c-0.3,0.4-0.6,0.7-1,0.9s-0.8,0.4-1.3,0.5s-1.1,0.1-1.7,0.1
			s-1.2-0.1-1.7-0.1c-0.5-0.1-0.9-0.3-1.3-0.5c-0.4-0.2-0.7-0.5-1-0.9c-0.3-0.4-0.5-0.9-0.7-1.4c-0.1-0.5-0.3-1.2-0.4-1.9
			s-0.1-1.6-0.1-2.5c0-1.5,0.1-2.6,0.3-3.6s0.5-1.7,0.9-2.2c0.4-0.5,0.9-0.9,1.6-1.1c0.7-0.2,1.5-0.3,2.3-0.3c0.9,0,1.7,0.1,2.3,0.3
			c0.7,0.2,1.2,0.6,1.6,1.1s0.7,1.3,0.9,2.2c0.2,0.9,0.3,2.1,0.3,3.6C126.7,221.1,126.7,222,126.6,222.7z M137.6,225.4
			c-0.2,0.5-0.5,1-0.9,1.3c-0.4,0.3-0.9,0.5-1.4,0.7c-0.5,0.1-1.2,0.2-1.9,0.2c-0.5,0-0.9,0-1.4-0.1s-0.9-0.1-1.2-0.2
			c-0.4-0.1-0.8-0.2-1.2-0.3v-1.7c0.3,0.1,0.7,0.1,1,0.1c0.3,0,0.6,0.1,0.9,0.1s0.7,0,1,0c0.5,0,0.9,0,1.2-0.1s0.7-0.1,0.9-0.3
			c0.3-0.1,0.5-0.3,0.6-0.6c0.1-0.3,0.2-0.6,0.2-1.1c0-0.5-0.1-0.9-0.2-1.2c-0.1-0.3-0.3-0.5-0.7-0.7s-0.7-0.2-1.3-0.3
			c-0.5-0.1-1.2-0.1-2-0.1v-2.1c0.8,0,1.5-0.1,2-0.1c0.5-0.1,0.9-0.2,1.1-0.3c0.3-0.2,0.5-0.4,0.5-0.7c0.1-0.3,0.1-0.6,0.1-1
			c0-0.3-0.1-0.6-0.1-0.9c-0.1-0.2-0.3-0.4-0.5-0.5c-0.2-0.1-0.5-0.3-0.9-0.3c-0.4-0.1-0.8-0.1-1.3-0.1c-0.3,0-0.6,0-0.9,0.1
			c-0.3,0.1-0.6,0.1-0.9,0.1c-0.3,0.1-0.7,0.1-0.9,0.1v-1.7c0.3-0.1,0.7-0.3,1.1-0.3c0.3-0.1,0.7-0.2,1.2-0.3
			c0.5-0.1,0.9-0.1,1.5-0.1c1.4,0,2.4,0.3,3.1,0.9c0.7,0.6,1,1.6,1,2.9c0,0.4-0.1,0.8-0.1,1.1s-0.2,0.6-0.3,0.8
			c-0.1,0.2-0.3,0.4-0.5,0.5c-0.1,0.1-0.3,0.3-0.5,0.3c-0.2,0.1-0.3,0.1-0.5,0.2c-0.2,0.1-0.3,0.1-0.5,0.1l0,0
			c0.1,0,0.3,0.1,0.5,0.1c0.2,0,0.4,0.1,0.6,0.1c0.2,0.1,0.4,0.2,0.6,0.3c0.2,0.1,0.4,0.3,0.5,0.6c0.1,0.3,0.3,0.5,0.4,0.9
			s0.1,0.8,0.1,1.3C137.9,224.2,137.8,224.9,137.6,225.4z"/>
	</g>
</g>
<g id="unit04">
	<g>
		<path class="st2" d="M123.7,262.5c-0.2-0.4-0.5-0.7-0.8-0.9c-0.3-0.2-0.8-0.3-1.3-0.3c-0.5,0-1,0.1-1.3,0.3
			c-0.3,0.2-0.6,0.5-0.8,0.9c-0.2,0.4-0.3,0.9-0.4,1.5c-0.1,0.6-0.1,1.4-0.1,2.3c0,0.9,0.1,1.7,0.1,2.3c0.1,0.7,0.2,1.2,0.4,1.7
			c0.2,0.4,0.5,0.7,0.8,0.9c0.3,0.2,0.8,0.3,1.3,0.3c0.5,0,1-0.1,1.3-0.3c0.3-0.2,0.6-0.5,0.8-0.9c0.2-0.4,0.3-1,0.4-1.6
			c0.1-0.6,0.1-1.5,0.1-2.3s-0.1-1.7-0.1-2.3C124,263.6,123.9,262.9,123.7,262.5z"/>
		<path class="st2" d="M66.9,262.5c-0.3-0.4-0.6-0.7-1-0.8c-0.4-0.1-0.9-0.2-1.6-0.2c-0.7,0-1.2,0.1-1.6,0.2c-0.4,0.1-0.7,0.4-1,0.8
			c-0.3,0.4-0.4,0.9-0.5,1.6c-0.1,0.7-0.1,1.5-0.1,2.5c0,1,0.1,1.9,0.1,2.5c0.1,0.7,0.3,1.2,0.5,1.5c0.3,0.4,0.6,0.7,1,0.8
			c0.4,0.1,0.9,0.2,1.6,0.2c0.7,0,1.2-0.1,1.6-0.2c0.4-0.1,0.7-0.4,1-0.8s0.4-0.9,0.5-1.5c0.1-0.7,0.1-1.5,0.1-2.5s-0.1-1.9-0.1-2.5
			C67.3,263.4,67.2,262.9,66.9,262.5z"/>
		<path class="st2" d="M80.5,263.1c-0.1-0.3-0.3-0.6-0.5-0.8s-0.5-0.3-0.7-0.4c-0.3-0.1-0.6-0.1-0.9-0.2c-0.3,0-0.7,0-1,0h-2v9.6h2
			c0.3,0,0.7,0,0.9,0s0.6-0.1,0.9-0.2c0.3-0.1,0.5-0.3,0.7-0.5c0.2-0.2,0.4-0.5,0.6-0.9c0.1-0.3,0.3-0.8,0.4-1.4
			c0.1-0.5,0.1-1.3,0.1-2.1c0-0.7-0.1-1.4-0.1-1.9C80.9,263.9,80.7,263.5,80.5,263.1z"/>
		<path class="st2" d="M20.2,246.9C9,246.9,0,255.9,0,267.1l0,0c0,11.2,9,20.2,20.2,20.2h128v-40.5L20.2,246.9L20.2,246.9z
			 M55.7,273.5h-2.3v-11.8h-0.1l-0.3,0.9c-0.1,0.3-0.1,0.5-0.3,0.8c-0.1,0.3-0.1,0.5-0.2,0.7l-1.8,5.6h-3.6l-1.9-5.7
			c-0.1-0.2-0.1-0.4-0.2-0.7c-0.1-0.3-0.1-0.5-0.3-0.7c-0.1-0.3-0.2-0.6-0.3-0.9h-0.1v11.8h-2.3v-14h4.1l2.6,8.4h0.1l2.7-8.4h4
			L55.7,273.5L55.7,273.5z M69.9,269.2c-0.1,0.7-0.3,1.4-0.5,1.9c-0.2,0.5-0.5,1-0.8,1.3c-0.3,0.3-0.7,0.7-1.1,0.9
			c-0.4,0.2-0.9,0.3-1.4,0.5c-0.5,0.1-1.1,0.1-1.7,0.1s-1.1-0.1-1.7-0.1s-1-0.2-1.4-0.5c-0.4-0.3-0.8-0.5-1.1-0.9
			c-0.3-0.3-0.6-0.8-0.9-1.3c-0.2-0.5-0.4-1.2-0.5-1.9c-0.1-0.7-0.2-1.6-0.2-2.6c0-1.5,0.1-2.7,0.4-3.6s0.7-1.7,1.1-2.2
			c0.5-0.5,1.1-0.9,1.8-1.1s1.5-0.3,2.4-0.3c0.6,0,1.1,0.1,1.7,0.1c0.5,0.1,1,0.3,1.4,0.5c0.4,0.2,0.8,0.5,1.1,0.9
			c0.3,0.3,0.6,0.8,0.8,1.3s0.4,1.2,0.5,1.9c0.1,0.7,0.2,1.6,0.2,2.5S70,268.4,69.9,269.2z M83.3,269c-0.1,0.7-0.3,1.4-0.5,1.9
			c-0.2,0.5-0.5,0.9-0.8,1.3c-0.3,0.3-0.7,0.6-1.1,0.8s-0.9,0.3-1.3,0.4s-1,0.1-1.5,0.1h-5v-14h5c0.5,0,1,0.1,1.5,0.1
			c0.5,0.1,0.9,0.2,1.3,0.4c0.4,0.2,0.8,0.5,1.1,0.7c0.3,0.3,0.6,0.7,0.9,1.3c0.3,0.5,0.4,1.1,0.5,1.9c0.1,0.7,0.2,1.5,0.2,2.5
			C83.5,267.4,83.5,268.3,83.3,269z M96.7,269c0,0.8-0.1,1.5-0.3,2.1c-0.2,0.6-0.5,1.1-0.9,1.5c-0.4,0.4-0.9,0.7-1.6,0.9
			s-1.5,0.3-2.3,0.3c-0.9,0-1.7-0.1-2.3-0.3c-0.7-0.2-1.2-0.5-1.6-0.9c-0.4-0.4-0.7-0.9-0.9-1.5c-0.2-0.6-0.3-1.3-0.3-2.1v-9.5h2.3
			v9.4c0,0.5,0.1,1,0.1,1.4c0.1,0.4,0.3,0.7,0.5,0.9c0.2,0.2,0.5,0.3,0.9,0.4c0.3,0.1,0.8,0.1,1.3,0.1c0.5,0,0.9-0.1,1.2-0.1
			c0.3-0.1,0.7-0.2,0.9-0.4c0.3-0.2,0.4-0.5,0.5-0.9c0.1-0.3,0.2-0.8,0.2-1.4v-9.4h2.3L96.7,269L96.7,269z M108.8,273.5h-8.6v-14
			h8.4v2.2h-6.1v3.7h5.1v2.1h-5.1v3.8h6.2V273.5z M126.6,269c-0.1,0.7-0.2,1.4-0.4,1.9c-0.2,0.5-0.4,1-0.7,1.4
			c-0.3,0.4-0.6,0.7-1,0.9s-0.8,0.4-1.3,0.5s-1.1,0.1-1.7,0.1s-1.2-0.1-1.7-0.1c-0.5-0.1-0.9-0.3-1.3-0.5c-0.4-0.2-0.7-0.5-1-0.9
			c-0.3-0.4-0.5-0.9-0.7-1.4c-0.2-0.5-0.3-1.2-0.4-1.9s-0.1-1.6-0.1-2.5c0-1.5,0.1-2.6,0.3-3.6c0.2-0.9,0.5-1.7,0.9-2.2
			c0.4-0.5,0.9-0.9,1.6-1.1c0.7-0.2,1.5-0.3,2.3-0.3c0.9,0,1.7,0.1,2.3,0.3c0.7,0.2,1.2,0.6,1.6,1.1c0.4,0.5,0.7,1.3,0.9,2.2
			c0.2,0.9,0.3,2.1,0.3,3.6C126.7,267.4,126.7,268.2,126.6,269z M139.3,270.7h-1.5v2.9h-2.4v-2.9h-6.6v-1.5l5.4-9.6h3.6v9h1.5
			L139.3,270.7L139.3,270.7z"/>
		<polygon class="st2" points="131.4,268.6 135.4,268.6 135.5,261.4 135.4,261.4 		"/>
	</g>
</g>
<g id="unit05">
	<g>
		<path class="st3" d="M66.9,309c-0.3-0.4-0.6-0.7-1-0.8c-0.4-0.1-0.9-0.2-1.6-0.2c-0.7,0-1.2,0.1-1.6,0.2c-0.4,0.1-0.7,0.4-1,0.8
			c-0.3,0.4-0.4,0.9-0.5,1.6c-0.1,0.7-0.1,1.5-0.1,2.5c0,1,0.1,1.9,0.1,2.5c0.1,0.7,0.3,1.2,0.5,1.5c0.3,0.4,0.6,0.7,1,0.8
			c0.4,0.1,0.9,0.2,1.6,0.2c0.7,0,1.2-0.1,1.6-0.2c0.4-0.1,0.7-0.4,1-0.8c0.3-0.4,0.4-0.9,0.5-1.5c0.1-0.7,0.1-1.5,0.1-2.5
			c0-1-0.1-1.9-0.1-2.5C67.3,309.8,67.2,309.3,66.9,309z"/>
		<path class="st3" d="M123.7,309c-0.2-0.4-0.5-0.7-0.8-0.9c-0.3-0.2-0.8-0.3-1.3-0.3c-0.5,0-1,0.1-1.3,0.3
			c-0.3,0.2-0.6,0.5-0.8,0.9c-0.2,0.4-0.3,0.9-0.4,1.5s-0.1,1.4-0.1,2.3c0,0.9,0.1,1.7,0.1,2.3s0.2,1.2,0.4,1.7
			c0.2,0.4,0.5,0.7,0.8,0.9c0.3,0.2,0.8,0.3,1.3,0.3c0.5,0,1-0.1,1.3-0.3c0.3-0.2,0.6-0.5,0.8-0.9c0.2-0.4,0.3-1,0.4-1.6
			c0.1-0.6,0.1-1.5,0.1-2.3s-0.1-1.7-0.1-2.3C124,310.1,123.9,309.4,123.7,309z"/>
		<path class="st3" d="M80.5,309.6c-0.1-0.3-0.3-0.6-0.5-0.8c-0.2-0.2-0.5-0.3-0.7-0.4c-0.3-0.1-0.6-0.1-0.9-0.2c-0.3,0-0.7,0-1,0
			h-2v9.6h2c0.3,0,0.7,0,0.9,0s0.6-0.1,0.9-0.2c0.3-0.1,0.5-0.3,0.7-0.5c0.2-0.2,0.4-0.5,0.6-0.9c0.1-0.3,0.3-0.8,0.4-1.4
			c0.1-0.5,0.1-1.3,0.1-2.1c0-0.7-0.1-1.4-0.1-1.9C80.9,310.4,80.7,310,80.5,309.6z"/>
		<path class="st3" d="M20.2,293.4C9,293.4,0,302.5,0,313.6l0,0c0,11.2,9,20.2,20.2,20.2h128v-40.5L20.2,293.4L20.2,293.4z
			 M55.7,320h-2.3v-11.8h-0.1l-0.3,0.9c-0.1,0.3-0.1,0.5-0.3,0.8c-0.1,0.3-0.1,0.5-0.2,0.7l-1.8,5.6h-3.6l-1.9-5.7
			c-0.1-0.2-0.1-0.4-0.2-0.7c-0.1-0.3-0.1-0.5-0.3-0.7c-0.1-0.3-0.2-0.6-0.3-0.9h-0.1V320h-2.3v-14h4.1l2.6,8.4h0.1l2.7-8.4h4
			L55.7,320L55.7,320z M69.9,315.6c-0.1,0.7-0.3,1.4-0.5,1.9c-0.2,0.5-0.5,1-0.8,1.3c-0.3,0.3-0.7,0.7-1.1,0.9s-0.9,0.3-1.4,0.5
			c-0.5,0.1-1.1,0.1-1.7,0.1s-1.1-0.1-1.7-0.1c-0.5-0.1-1-0.2-1.4-0.5c-0.4-0.3-0.8-0.5-1.1-0.9c-0.3-0.3-0.6-0.8-0.9-1.3
			c-0.2-0.5-0.4-1.2-0.5-1.9c-0.1-0.7-0.2-1.6-0.2-2.6c0-1.5,0.1-2.7,0.4-3.6s0.7-1.7,1.1-2.2c0.5-0.5,1.1-0.9,1.8-1.1
			c0.7-0.2,1.5-0.3,2.4-0.3c0.6,0,1.1,0.1,1.7,0.1c0.5,0.1,1,0.3,1.4,0.5c0.4,0.2,0.8,0.5,1.1,0.9c0.3,0.3,0.6,0.8,0.8,1.3
			c0.2,0.5,0.4,1.2,0.5,1.9c0.1,0.7,0.2,1.6,0.2,2.5C70,313.9,70,314.9,69.9,315.6z M83.3,315.5c-0.1,0.7-0.3,1.4-0.5,1.9
			c-0.2,0.5-0.5,0.9-0.8,1.3c-0.3,0.3-0.7,0.6-1.1,0.8c-0.4,0.2-0.9,0.3-1.3,0.4s-1,0.1-1.5,0.1h-5v-14h5c0.5,0,1,0.1,1.5,0.1
			c0.5,0.1,0.9,0.2,1.3,0.4s0.8,0.5,1.1,0.7c0.3,0.3,0.6,0.7,0.9,1.3c0.3,0.5,0.4,1.1,0.5,1.9c0.1,0.7,0.2,1.5,0.2,2.5
			C83.5,313.8,83.5,314.7,83.3,315.5z M96.7,315.5c0,0.8-0.1,1.5-0.3,2.1c-0.2,0.6-0.5,1.1-0.9,1.5s-0.9,0.7-1.6,0.9
			c-0.7,0.2-1.5,0.3-2.3,0.3c-0.9,0-1.7-0.1-2.3-0.3c-0.7-0.2-1.2-0.5-1.6-0.9c-0.4-0.4-0.7-0.9-0.9-1.5c-0.2-0.6-0.3-1.3-0.3-2.1
			v-9.5h2.3v9.4c0,0.5,0.1,1,0.1,1.4c0.1,0.4,0.3,0.7,0.5,0.9c0.2,0.2,0.5,0.3,0.9,0.4c0.3,0.1,0.8,0.1,1.3,0.1
			c0.5,0,0.9-0.1,1.2-0.1c0.3-0.1,0.7-0.2,0.9-0.4c0.3-0.2,0.4-0.5,0.5-0.9c0.1-0.3,0.2-0.8,0.2-1.4v-9.4h2.3L96.7,315.5L96.7,315.5
			z M108.8,320h-8.6v-14h8.4v2.2h-6.1v3.7h5.1v2.1h-5.1v3.8h6.2V320z M126.6,315.4c-0.1,0.7-0.2,1.4-0.4,1.9c-0.2,0.5-0.4,1-0.7,1.4
			c-0.3,0.4-0.6,0.7-1,0.9s-0.8,0.4-1.3,0.5s-1.1,0.1-1.7,0.1s-1.2-0.1-1.7-0.1c-0.5-0.1-0.9-0.3-1.3-0.5c-0.4-0.2-0.7-0.5-1-0.9
			c-0.3-0.4-0.5-0.9-0.7-1.4c-0.2-0.5-0.3-1.2-0.4-1.9c-0.1-0.7-0.1-1.6-0.1-2.5c0-1.5,0.1-2.6,0.3-3.6c0.2-0.9,0.5-1.7,0.9-2.2
			c0.4-0.5,0.9-0.9,1.6-1.1c0.7-0.2,1.5-0.3,2.3-0.3c0.9,0,1.7,0.1,2.3,0.3c0.7,0.2,1.2,0.6,1.6,1.1c0.4,0.5,0.7,1.3,0.9,2.2
			c0.2,0.9,0.3,2.1,0.3,3.6C126.7,313.8,126.7,314.7,126.6,315.4z M137.6,318c-0.3,0.6-0.5,1-1,1.3c-0.4,0.3-0.9,0.6-1.5,0.7
			c-0.6,0.1-1.2,0.2-1.9,0.2c-0.5,0-1,0-1.5-0.1c-0.5-0.1-0.8-0.1-1.1-0.2c-0.4-0.1-0.7-0.2-1-0.3v-1.7c0.3,0.1,0.6,0.1,0.9,0.1
			c0.3,0,0.6,0.1,0.9,0.1c0.3,0,0.7,0,1,0c0.5,0,1-0.1,1.4-0.1c0.4-0.1,0.7-0.3,0.9-0.5c0.3-0.2,0.4-0.5,0.5-0.7
			c0.1-0.3,0.2-0.7,0.2-1.1c0-0.4,0-0.8-0.1-1.1c-0.1-0.3-0.2-0.5-0.3-0.7c-0.1-0.2-0.4-0.3-0.7-0.4c-0.3-0.1-0.7-0.1-1.1-0.1
			c-0.4,0-0.8,0-1.2,0.1c-0.4,0.1-0.7,0.1-1.1,0.1c-0.3,0.1-0.7,0.1-1,0.1v-7.6h7.4v2.2h-5.2v3.1c0.1,0,0.3-0.1,0.5-0.1
			s0.3,0,0.5-0.1c0.2-0.1,0.4,0,0.6,0c0.7,0,1.3,0.1,1.7,0.2s0.9,0.4,1.2,0.7s0.6,0.8,0.7,1.4c0.1,0.6,0.3,1.3,0.3,2.3
			C138,316.7,137.9,317.5,137.6,318z"/>
	</g>
</g>
</svg>
