<?xml version="1.0" encoding="utf-8"?>
<!-- Generator: Adobe Illustrator 22.1.0, SVG Export Plug-In . SVG Version: 6.00 Build 0)  -->
<svg version="1.1" id="Layer_1" xmlns="http://www.w3.org/2000/svg" xmlns:xlink="http://www.w3.org/1999/xlink" x="0px" y="0px"
	 viewBox="0 0 502.9 665.2" style="enable-background:new 0 0 502.9 665.2;" xml:space="preserve">
<style type="text/css">
	.st0{fill:#D59902;stroke:#FFFFFF;stroke-width:2;stroke-miterlimit:10;}
	.st1{fill:#AA2601;}
	.st2{fill:#FFFFFF;}
</style>
<g id="home">
	<g>
		<path class="home" d="M84.4,264.2c-0.4-0.6-0.9-1-1.5-1.2s-1.4-0.3-2.4-0.3s-1.8,0.1-2.4,0.3s-1.1,0.6-1.5,1.2s-0.6,1.4-0.8,2.4
			s-0.2,2.2-0.2,3.8c0,1.5,0.1,2.8,0.2,3.7s0.4,1.8,0.8,2.3s0.9,1,1.5,1.2s1.4,0.3,2.4,0.3s1.8-0.1,2.4-0.3s1.1-0.6,1.5-1.2
			s0.6-1.3,0.8-2.3s0.2-2.2,0.2-3.7s-0.1-2.8-0.2-3.8S84.8,264.8,84.4,264.2z"/>
		<path class="home" d="M91.1,226c-25.9,0-46.9,21-46.9,46.9s21,46.9,46.9,46.9s46.9-21,46.9-46.9S117,226,91.1,226z M67.6,280.7
			h-3.5v-9h-9v9h-3.5v-20.9h3.5v8.7h9v-8.7h3.5V280.7z M88.8,274.1c-0.2,1.1-0.4,2.1-0.8,2.9s-0.7,1.5-1.2,2s-1,1-1.7,1.3
			s-1.3,0.5-2.1,0.7c-0.8,0.1-1.6,0.2-2.5,0.2s-1.7-0.1-2.5-0.2s-1.5-0.4-2.1-0.7c-0.6-0.3-1.2-0.7-1.7-1.3s-0.9-1.2-1.3-2
			s-0.6-1.8-0.8-2.9s-0.3-2.4-0.3-3.9c0-2.2,0.2-4,0.6-5.4s1-2.5,1.7-3.3s1.6-1.4,2.7-1.7s2.3-0.5,3.6-0.5c0.9,0,1.7,0.1,2.5,0.2
			s1.5,0.4,2.1,0.7s1.2,0.8,1.7,1.3s0.9,1.2,1.2,2s0.6,1.8,0.8,2.9s0.3,2.4,0.3,3.8S89,273,88.8,274.1z M113.5,280.7H110v-17.6h-0.1
			l-0.4,1.3c-0.1,0.4-0.2,0.8-0.4,1.2s-0.2,0.8-0.3,1l-2.7,8.4h-5.3l-2.8-8.5c-0.1-0.3-0.2-0.6-0.3-1s-0.2-0.8-0.4-1.1
			c-0.1-0.4-0.3-0.9-0.4-1.3h-0.1v17.6h-3.5v-20.9h6.1l3.9,12.6h0.1l4-12.6h6v20.9H113.5z M118.8,280.7v-20.9h12.6v3.3h-9.1v5.5h7.6
			v3.2h-7.6v5.7h9.3v3.3h-12.8V280.7z"/>
	</g>
</g>
<g>
	<path class="unit01" d="M456.5,344.5c-0.1-0.6-0.3-1.1-0.4-1.5c-0.2-0.4-0.4-0.7-0.6-1c-0.3-0.2-0.5-0.4-0.9-0.5
		c-0.3-0.1-0.7-0.2-1.1-0.2c-0.7,0-1.2,0.2-1.7,0.5c-0.4,0.3-0.8,0.8-1,1.5c-0.3,0.6-0.4,1.5-0.5,2.4c-0.1,1-0.2,2.1-0.2,3.4
		c0,1.6,0.1,2.9,0.2,3.9c0.1,1,0.3,1.9,0.6,2.5c0.3,0.6,0.6,1,1,1.3c0.4,0.2,0.9,0.4,1.5,0.4c0.4,0,0.8-0.1,1.2-0.2
		c0.3-0.1,0.6-0.4,0.9-0.6c0.3-0.3,0.5-0.6,0.6-1.1c0.2-0.4,0.3-0.9,0.4-1.5c0.1-0.6,0.2-1.2,0.2-1.9s0.1-1.5,0.1-2.4
		c0-1,0-2-0.1-2.8C456.7,345.8,456.6,345.1,456.5,344.5z"/>
	<path class="unit01" d="M245.8,343.8c-0.5-0.7-1.2-1.2-2.1-1.5c-0.8-0.4-2-0.6-3.3-0.6h-2.3v15h2.3c1.2,0,2.3-0.2,3.1-0.5
		c0.8-0.3,1.5-0.8,2.1-1.4c0.6-0.6,1-1.4,1.3-2.4s0.4-2.1,0.4-3.3c0-1-0.1-2-0.4-2.9C246.7,345.3,246.3,344.5,245.8,343.8z"/>
	<path class="unit01" d="M327.8,344.5c-0.1-0.6-0.3-1.1-0.4-1.5c-0.2-0.4-0.4-0.7-0.6-1c-0.3-0.2-0.5-0.4-0.9-0.5
		c-0.3-0.1-0.7-0.2-1.1-0.2c-0.7,0-1.2,0.2-1.7,0.5c-0.4,0.3-0.8,0.8-1,1.5c-0.3,0.6-0.4,1.5-0.5,2.4c-0.1,1-0.2,2.1-0.2,3.4
		c0,1.6,0.1,2.9,0.2,3.9c0.1,1,0.3,1.9,0.6,2.5c0.3,0.6,0.6,1,1,1.3c0.4,0.2,0.9,0.4,1.5,0.4c0.4,0,0.8-0.1,1.2-0.2
		c0.3-0.1,0.6-0.4,0.9-0.6c0.3-0.3,0.5-0.6,0.6-1.1c0.2-0.4,0.3-0.9,0.4-1.5c0.1-0.6,0.2-1.2,0.2-1.9s0.1-1.5,0.1-2.4
		c0-1,0-2-0.1-2.8C328,345.8,327.9,345.1,327.8,344.5z"/>
	<path class="unit01" d="M171.1,319.7L171.1,319.7c-16.7,0.1-30.2,13.6-30.2,30.3s13.5,30.2,30.2,30.2h331.7v-60.5H171.1z M205.1,359.7
		c0,0.1,0,0.2-0.1,0.3c-0.1,0.1-0.2,0.2-0.3,0.2c-0.2,0.1-0.4,0.1-0.7,0.1c-0.3,0-0.6,0.1-1,0.1c-0.4,0-0.8,0-1-0.1
		c-0.3,0-0.5-0.1-0.6-0.1c-0.2-0.1-0.3-0.1-0.3-0.2c-0.1-0.1-0.1-0.2-0.1-0.3v-18h0l-6.4,18c0,0.1-0.1,0.3-0.2,0.4s-0.2,0.2-0.4,0.2
		s-0.4,0.1-0.7,0.1c-0.3,0-0.6,0-1,0c-0.4,0-0.7,0-1,0s-0.5-0.1-0.7-0.1c-0.2-0.1-0.3-0.1-0.4-0.2c-0.1-0.1-0.2-0.2-0.2-0.3l-6.2-18
		h0v18c0,0.1,0,0.2-0.1,0.3c-0.1,0.1-0.2,0.2-0.4,0.2c-0.2,0.1-0.4,0.1-0.7,0.1c-0.3,0-0.6,0.1-1,0.1c-0.4,0-0.8,0-1-0.1
		c-0.3,0-0.5-0.1-0.7-0.1c-0.2-0.1-0.3-0.1-0.3-0.2c-0.1-0.1-0.1-0.2-0.1-0.3V340c0-0.6,0.2-1,0.5-1.3c0.3-0.3,0.7-0.5,1.2-0.5h2.9
		c0.5,0,1,0,1.4,0.1c0.4,0.1,0.7,0.2,1,0.4s0.5,0.5,0.7,0.8c0.2,0.3,0.3,0.7,0.5,1.2l4.8,13.2h0.1l5-13.1c0.1-0.5,0.3-0.9,0.5-1.2
		c0.2-0.3,0.4-0.6,0.6-0.8c0.2-0.2,0.5-0.3,0.8-0.4c0.3-0.1,0.7-0.1,1.1-0.1h3c0.3,0,0.6,0,0.8,0.1c0.2,0.1,0.4,0.2,0.5,0.3
		c0.1,0.2,0.3,0.3,0.3,0.6c0.1,0.2,0.1,0.5,0.1,0.8V359.7z M229.2,353.9c-0.5,1.4-1.1,2.7-2,3.7c-0.9,1-2,1.8-3.3,2.3
		c-1.3,0.5-2.9,0.8-4.6,0.8c-1.7,0-3.2-0.2-4.5-0.7c-1.3-0.4-2.3-1.1-3.2-2.1c-0.9-0.9-1.5-2.1-1.9-3.5c-0.4-1.4-0.6-3.1-0.6-5.1
		c0-1.8,0.2-3.4,0.7-4.8c0.5-1.4,1.1-2.6,2-3.6c0.9-1,2-1.8,3.3-2.3c1.3-0.5,2.9-0.8,4.6-0.8c1.7,0,3.2,0.2,4.4,0.7
		c1.3,0.4,2.4,1.1,3.2,2.1c0.9,0.9,1.5,2.1,1.9,3.5c0.4,1.4,0.7,3.1,0.7,5C229.8,350.9,229.6,352.5,229.2,353.9z M251.2,354.2
		c-0.5,1.4-1.3,2.6-2.3,3.5c-1,0.9-2.2,1.6-3.6,2c-1.4,0.4-3.1,0.6-5.1,0.6H235c-0.4,0-0.7-0.1-0.9-0.3c-0.3-0.2-0.4-0.6-0.4-1.1
		v-19.3c0-0.5,0.1-0.9,0.4-1.1c0.3-0.2,0.6-0.3,0.9-0.3h5.7c2,0,3.6,0.2,5,0.7c1.4,0.5,2.5,1.1,3.5,2.1c0.9,0.9,1.7,2,2.1,3.4
		c0.5,1.3,0.7,2.9,0.7,4.6C252,351,251.7,352.7,251.2,354.2z M273.7,352.1c0,1.4-0.2,2.6-0.6,3.6c-0.4,1.1-1,2-1.8,2.7
		c-0.8,0.7-1.7,1.3-2.9,1.7c-1.1,0.4-2.4,0.6-3.9,0.6c-1.4,0-2.6-0.2-3.7-0.5c-1.1-0.3-2-0.9-2.8-1.6c-0.8-0.7-1.3-1.6-1.8-2.6
		c-0.4-1.1-0.6-2.3-0.6-3.7v-13.5c0-0.1,0-0.2,0.1-0.3c0.1-0.1,0.2-0.2,0.4-0.2s0.4-0.1,0.7-0.1c0.3,0,0.6-0.1,1.1-0.1
		c0.4,0,0.8,0,1.1,0.1c0.3,0,0.5,0.1,0.7,0.1c0.2,0.1,0.3,0.1,0.4,0.2c0.1,0.1,0.1,0.2,0.1,0.3v13.1c0,0.9,0.1,1.6,0.3,2.3
		c0.2,0.6,0.5,1.2,0.9,1.6c0.4,0.4,0.9,0.7,1.5,0.9c0.6,0.2,1.2,0.3,1.9,0.3c0.7,0,1.3-0.1,1.9-0.3c0.6-0.2,1-0.5,1.4-0.9
		c0.4-0.4,0.7-0.9,0.9-1.5c0.2-0.6,0.3-1.3,0.3-2.1v-13.3c0-0.1,0-0.2,0.1-0.3c0.1-0.1,0.2-0.2,0.4-0.2s0.4-0.1,0.7-0.1
		c0.3,0,0.7-0.1,1.1-0.1c0.4,0,0.8,0,1.1,0.1c0.3,0,0.5,0.1,0.7,0.1s0.3,0.1,0.4,0.2c0.1,0.1,0.1,0.2,0.1,0.3V352.1z M290.6,359.3
		c0,0.2-0.1,0.4-0.1,0.6c-0.1,0.2-0.1,0.3-0.2,0.3c-0.1,0.1-0.2,0.1-0.3,0.1h-10.1c-0.4,0-0.7-0.1-0.9-0.3c-0.3-0.2-0.4-0.6-0.4-1.1
		v-20.1c0-0.1,0-0.2,0.1-0.3c0.1-0.1,0.2-0.2,0.4-0.2c0.2-0.1,0.4-0.1,0.7-0.1c0.3,0,0.7-0.1,1.1-0.1c0.4,0,0.8,0,1.1,0.1
		c0.3,0,0.5,0.1,0.7,0.1c0.2,0.1,0.3,0.1,0.4,0.2c0.1,0.1,0.1,0.2,0.1,0.3v17.8h7c0.1,0,0.2,0,0.3,0.1c0.1,0.1,0.2,0.2,0.2,0.3
		c0.1,0.1,0.1,0.3,0.1,0.6c0,0.2,0,0.5,0,0.9S290.7,359.1,290.6,359.3z M306.4,359.4c0,0.2-0.1,0.4-0.1,0.5
		c-0.1,0.1-0.1,0.2-0.2,0.3c-0.1,0.1-0.2,0.1-0.3,0.1h-11.1c-0.4,0-0.7-0.1-0.9-0.3c-0.3-0.2-0.4-0.6-0.4-1.1v-19.3
		c0-0.5,0.1-0.9,0.4-1.1c0.3-0.2,0.6-0.3,0.9-0.3h11c0.1,0,0.2,0,0.3,0.1c0.1,0.1,0.1,0.2,0.2,0.3c0.1,0.1,0.1,0.3,0.1,0.5
		c0,0.2,0,0.5,0,0.8c0,0.3,0,0.6,0,0.8c0,0.2-0.1,0.4-0.1,0.5c-0.1,0.1-0.1,0.2-0.2,0.3c-0.1,0.1-0.2,0.1-0.3,0.1h-7.9v5.4h6.7
		c0.1,0,0.2,0,0.3,0.1c0.1,0.1,0.2,0.2,0.2,0.3c0.1,0.1,0.1,0.3,0.1,0.5c0,0.2,0,0.5,0,0.8c0,0.3,0,0.6,0,0.8c0,0.2-0.1,0.4-0.1,0.5
		c-0.1,0.1-0.1,0.2-0.2,0.3c-0.1,0.1-0.2,0.1-0.3,0.1h-6.7v6.2h8c0.1,0,0.2,0,0.3,0.1c0.1,0.1,0.2,0.2,0.2,0.3
		c0.1,0.1,0.1,0.3,0.1,0.5c0,0.2,0,0.5,0,0.8C306.4,358.9,306.4,359.2,306.4,359.4z M332.3,354c-0.3,1.4-0.8,2.6-1.4,3.6
		c-0.6,1-1.5,1.8-2.5,2.3c-1,0.5-2.3,0.8-3.8,0.8c-1.5,0-2.8-0.3-3.8-0.8c-1-0.5-1.8-1.3-2.4-2.2c-0.6-1-1-2.2-1.2-3.6
		c-0.2-1.4-0.3-3-0.3-4.8c0-1.8,0.1-3.3,0.4-4.8c0.3-1.4,0.8-2.6,1.4-3.6c0.6-1,1.5-1.8,2.5-2.3c1-0.5,2.3-0.8,3.8-0.8
		c1.5,0,2.8,0.3,3.8,0.8c1,0.5,1.8,1.3,2.4,2.2c0.6,1,1,2.2,1.2,3.6c0.2,1.4,0.3,3,0.3,4.8C332.7,351,332.5,352.5,332.3,354z
		 M349.7,359.4c0,0.2-0.1,0.4-0.1,0.5c-0.1,0.1-0.1,0.2-0.2,0.3c-0.1,0.1-0.2,0.1-0.3,0.1h-12.2c-0.1,0-0.2,0-0.3-0.1
		c-0.1-0.1-0.2-0.2-0.2-0.3c-0.1-0.1-0.1-0.3-0.1-0.5c0-0.2-0.1-0.5-0.1-0.8c0-0.3,0-0.6,0-0.8c0-0.2,0.1-0.4,0.1-0.5
		s0.1-0.2,0.2-0.3c0.1-0.1,0.2-0.1,0.3-0.1h4.1v-14.4l-3.6,2c-0.3,0.1-0.5,0.2-0.6,0.2c-0.2,0-0.3,0-0.4-0.1
		c-0.1-0.1-0.2-0.3-0.2-0.5c0-0.2-0.1-0.6-0.1-1c0-0.3,0-0.5,0-0.7c0-0.2,0-0.3,0.1-0.5c0-0.1,0.1-0.2,0.2-0.3
		c0.1-0.1,0.2-0.2,0.3-0.3l4.8-3.1c0.1,0,0.1-0.1,0.2-0.1c0.1,0,0.2-0.1,0.3-0.1c0.1,0,0.3,0,0.5,0c0.2,0,0.5,0,0.9,0
		c0.4,0,0.8,0,1.1,0c0.3,0,0.5,0,0.6,0.1c0.1,0,0.2,0.1,0.3,0.2c0,0.1,0.1,0.2,0.1,0.3v18.3h3.6c0.1,0,0.2,0,0.3,0.1
		c0.1,0.1,0.2,0.2,0.2,0.3s0.1,0.3,0.1,0.5c0,0.2,0,0.5,0,0.8C349.8,358.9,349.8,359.2,349.7,359.4z M365.9,336l-10.2,28.7
		c-0.1,0.1-0.1,0.3-0.2,0.4c-0.1,0.1-0.2,0.2-0.4,0.2c-0.2,0.1-0.4,0.1-0.6,0.1c-0.2,0-0.6,0-0.9,0c-0.5,0-0.8,0-1.1-0.1
		c-0.3,0-0.5-0.1-0.7-0.2c-0.2-0.1-0.2-0.2-0.3-0.3c0-0.1,0-0.3,0.1-0.5l10.2-28.7c0-0.1,0.1-0.3,0.2-0.4c0.1-0.1,0.2-0.2,0.4-0.2
		c0.2-0.1,0.4-0.1,0.6-0.1c0.3,0,0.6,0,0.9,0c0.5,0,0.9,0,1.2,0.1c0.3,0,0.5,0.1,0.7,0.2c0.1,0.1,0.2,0.2,0.3,0.4
		C366,335.7,366,335.9,365.9,336z M394.8,352.1c0,1.4-0.2,2.6-0.6,3.6c-0.4,1.1-1,2-1.8,2.7c-0.8,0.7-1.7,1.3-2.9,1.7
		c-1.1,0.4-2.4,0.6-3.9,0.6c-1.4,0-2.6-0.2-3.7-0.5c-1.1-0.3-2-0.9-2.8-1.6c-0.8-0.7-1.3-1.6-1.8-2.6c-0.4-1.1-0.6-2.3-0.6-3.7
		v-13.5c0-0.1,0-0.2,0.1-0.3c0.1-0.1,0.2-0.2,0.4-0.2s0.4-0.1,0.7-0.1c0.3,0,0.6-0.1,1.1-0.1c0.4,0,0.8,0,1.1,0.1
		c0.3,0,0.5,0.1,0.7,0.1c0.2,0.1,0.3,0.1,0.4,0.2c0.1,0.1,0.1,0.2,0.1,0.3v13.1c0,0.9,0.1,1.6,0.3,2.3c0.2,0.6,0.5,1.2,0.9,1.6
		c0.4,0.4,0.9,0.7,1.5,0.9c0.6,0.2,1.2,0.3,1.9,0.3c0.7,0,1.3-0.1,1.9-0.3c0.6-0.2,1-0.5,1.4-0.9c0.4-0.4,0.7-0.9,0.9-1.5
		c0.2-0.6,0.3-1.3,0.3-2.1v-13.3c0-0.1,0-0.2,0.1-0.3c0.1-0.1,0.2-0.2,0.4-0.2s0.4-0.1,0.7-0.1c0.3,0,0.7-0.1,1.1-0.1
		c0.4,0,0.8,0,1.1,0.1c0.3,0,0.5,0.1,0.7,0.1s0.3,0.1,0.4,0.2c0.1,0.1,0.1,0.2,0.1,0.3V352.1z M413.9,359.7c0,0.1,0,0.2-0.1,0.3
		c-0.1,0.1-0.2,0.2-0.3,0.2c-0.2,0.1-0.4,0.1-0.7,0.1s-0.6,0-1,0c-0.4,0-0.8,0-1.1,0s-0.5-0.1-0.7-0.1c-0.2-0.1-0.3-0.1-0.3-0.2
		c-0.1-0.1-0.1-0.2-0.1-0.3v-8.7c0-0.7-0.1-1.3-0.2-1.7c-0.1-0.4-0.3-0.8-0.5-1.1c-0.2-0.3-0.5-0.5-0.8-0.7
		c-0.3-0.2-0.7-0.2-1.1-0.2c-0.5,0-1.1,0.2-1.7,0.6c-0.6,0.4-1.1,1-1.7,1.7v10.1c0,0.1,0,0.2-0.1,0.3c-0.1,0.1-0.2,0.2-0.4,0.2
		c-0.2,0.1-0.4,0.1-0.7,0.1s-0.6,0-1,0c-0.4,0-0.8,0-1,0s-0.5-0.1-0.7-0.1c-0.2-0.1-0.3-0.1-0.4-0.2c-0.1-0.1-0.1-0.2-0.1-0.3v-15.2
		c0-0.1,0-0.2,0.1-0.3c0.1-0.1,0.2-0.2,0.3-0.2c0.1-0.1,0.3-0.1,0.6-0.1c0.2,0,0.5,0,0.9,0c0.4,0,0.7,0,0.9,0c0.2,0,0.4,0.1,0.6,0.1
		c0.1,0.1,0.2,0.1,0.3,0.2c0.1,0.1,0.1,0.2,0.1,0.3v1.8c0.8-0.9,1.7-1.6,2.6-2.1c0.9-0.5,1.8-0.7,2.7-0.7c1,0,1.9,0.2,2.6,0.5
		c0.7,0.3,1.3,0.8,1.7,1.4s0.8,1.3,0.9,2.1c0.2,0.8,0.3,1.7,0.3,2.8V359.7z M422.4,359.7c0,0.1,0,0.2-0.1,0.3
		c-0.1,0.1-0.2,0.2-0.4,0.2c-0.2,0.1-0.4,0.1-0.7,0.1s-0.6,0-1,0c-0.4,0-0.8,0-1,0s-0.5-0.1-0.7-0.1c-0.2-0.1-0.3-0.1-0.4-0.2
		c-0.1-0.1-0.1-0.2-0.1-0.3v-15.2c0-0.1,0-0.2,0.1-0.3c0.1-0.1,0.2-0.2,0.4-0.2c0.2-0.1,0.4-0.1,0.7-0.1c0.3,0,0.6-0.1,1-0.1
		c0.4,0,0.8,0,1,0.1c0.3,0,0.5,0.1,0.7,0.1c0.2,0.1,0.3,0.1,0.4,0.2c0.1,0.1,0.1,0.2,0.1,0.3V359.7z M422.2,341.1
		c-0.4,0.3-1,0.5-2,0.5c-1,0-1.6-0.2-2-0.5c-0.3-0.3-0.5-0.9-0.5-1.7c0-0.9,0.2-1.5,0.5-1.8s1-0.5,2-0.5c1,0,1.6,0.2,1.9,0.5
		c0.3,0.3,0.5,0.9,0.5,1.7C422.8,340.2,422.6,340.8,422.2,341.1z M432.1,356.4c0.3,0.4,0.7,0.6,1.4,0.6c0.2,0,0.4,0,0.6-0.1
		c0.2,0,0.3-0.1,0.5-0.1c0.1-0.1,0.3-0.1,0.4-0.1c0.1,0,0.2-0.1,0.3-0.1c0.1,0,0.1,0,0.2,0.1c0.1,0,0.1,0.1,0.1,0.2
		c0,0.1,0.1,0.3,0.1,0.5s0,0.5,0,0.8c0,0.5,0,0.9-0.1,1.2c-0.1,0.3-0.1,0.5-0.2,0.6s-0.3,0.2-0.5,0.3c-0.2,0.1-0.4,0.2-0.7,0.2
		c-0.3,0.1-0.6,0.1-0.9,0.1c-0.3,0-0.6,0.1-0.9,0.1c-0.9,0-1.6-0.1-2.2-0.3c-0.6-0.2-1.1-0.5-1.6-1s-0.7-1-0.9-1.7
		c-0.2-0.7-0.3-1.5-0.3-2.4v-7.8h-1.8c-0.2,0-0.4-0.1-0.5-0.4c-0.1-0.3-0.2-0.7-0.2-1.3c0-0.3,0-0.6,0-0.8c0-0.2,0.1-0.4,0.1-0.5
		c0.1-0.1,0.1-0.2,0.2-0.3c0.1-0.1,0.2-0.1,0.3-0.1h1.8v-3.4c0-0.1,0-0.2,0.1-0.3c0.1-0.1,0.2-0.2,0.3-0.2c0.2-0.1,0.4-0.1,0.7-0.1
		c0.3,0,0.6,0,1,0c0.4,0,0.8,0,1.1,0c0.3,0,0.5,0.1,0.7,0.1c0.2,0.1,0.3,0.1,0.3,0.2c0.1,0.1,0.1,0.2,0.1,0.3v3.4h3.3
		c0.1,0,0.2,0,0.3,0.1c0.1,0.1,0.2,0.2,0.2,0.3c0.1,0.1,0.1,0.3,0.1,0.5c0,0.2,0,0.5,0,0.8c0,0.6-0.1,1.1-0.2,1.3
		c-0.1,0.3-0.3,0.4-0.5,0.4h-3.3v7.2C431.7,355.4,431.9,356,432.1,356.4z M461,354c-0.3,1.4-0.8,2.6-1.4,3.6c-0.6,1-1.5,1.8-2.5,2.3
		c-1,0.5-2.3,0.8-3.8,0.8c-1.5,0-2.8-0.3-3.8-0.8c-1-0.5-1.8-1.3-2.4-2.2c-0.6-1-1-2.2-1.2-3.6c-0.2-1.4-0.3-3-0.3-4.8
		c0-1.8,0.1-3.3,0.4-4.8c0.3-1.4,0.8-2.6,1.4-3.6c0.6-1,1.5-1.8,2.5-2.3c1-0.5,2.3-0.8,3.8-0.8c1.5,0,2.8,0.3,3.8,0.8
		c1,0.5,1.8,1.3,2.4,2.2c0.6,1,1,2.2,1.2,3.6c0.2,1.4,0.3,3,0.3,4.8C461.4,351,461.3,352.5,461,354z M478.4,359.4
		c0,0.2-0.1,0.4-0.1,0.5c-0.1,0.1-0.1,0.2-0.2,0.3c-0.1,0.1-0.2,0.1-0.3,0.1h-12.2c-0.1,0-0.2,0-0.3-0.1c-0.1-0.1-0.2-0.2-0.2-0.3
		c-0.1-0.1-0.1-0.3-0.1-0.5c0-0.2-0.1-0.5-0.1-0.8c0-0.3,0-0.6,0-0.8c0-0.2,0.1-0.4,0.1-0.5s0.1-0.2,0.2-0.3
		c0.1-0.1,0.2-0.1,0.3-0.1h4.1v-14.4l-3.6,2c-0.3,0.1-0.5,0.2-0.6,0.2c-0.2,0-0.3,0-0.4-0.1c-0.1-0.1-0.2-0.3-0.2-0.5
		c0-0.2-0.1-0.6-0.1-1c0-0.3,0-0.5,0-0.7c0-0.2,0-0.3,0.1-0.5c0-0.1,0.1-0.2,0.2-0.3c0.1-0.1,0.2-0.2,0.3-0.3l4.8-3.1
		c0.1,0,0.1-0.1,0.2-0.1c0.1,0,0.2-0.1,0.3-0.1c0.1,0,0.3,0,0.5,0c0.2,0,0.5,0,0.9,0c0.4,0,0.8,0,1.1,0c0.3,0,0.5,0,0.6,0.1
		c0.1,0,0.2,0.1,0.3,0.2c0,0.1,0.1,0.2,0.1,0.3v18.3h3.6c0.1,0,0.2,0,0.3,0.1c0.1,0.1,0.2,0.2,0.2,0.3s0.1,0.3,0.1,0.5
		c0,0.2,0,0.5,0,0.8C478.5,358.9,478.5,359.2,478.4,359.4z"/>
	<path class="unit01" d="M223.9,343.6c-0.4-0.7-1-1.2-1.8-1.6c-0.7-0.4-1.6-0.6-2.7-0.6c-1.1,0-2,0.2-2.8,0.6c-0.7,0.4-1.3,1-1.8,1.7
		c-0.5,0.7-0.8,1.5-1,2.4c-0.2,0.9-0.3,1.9-0.3,2.9c0,1.2,0.1,2.3,0.3,3.3c0.2,1,0.5,1.8,0.9,2.5c0.4,0.7,1,1.2,1.7,1.6
		c0.7,0.4,1.6,0.5,2.8,0.5c1.1,0,2-0.2,2.8-0.6c0.7-0.4,1.3-1,1.8-1.7c0.5-0.7,0.8-1.5,1-2.5c0.2-0.9,0.3-1.9,0.3-3
		c0-1.2-0.1-2.2-0.3-3.2C224.7,345.1,224.4,344.3,223.9,343.6z"/>
</g>
<g>
	<path class="unit02" d="M327.8,417c-0.1-0.6-0.3-1.1-0.4-1.5c-0.2-0.4-0.4-0.7-0.6-1c-0.3-0.2-0.5-0.4-0.9-0.5
		c-0.3-0.1-0.7-0.2-1.1-0.2c-0.7,0-1.2,0.2-1.7,0.5c-0.4,0.3-0.8,0.8-1,1.5c-0.3,0.6-0.4,1.5-0.5,2.4c-0.1,1-0.2,2.1-0.2,3.4
		c0,1.6,0.1,2.9,0.2,3.9c0.1,1,0.3,1.9,0.6,2.5c0.3,0.6,0.6,1,1,1.3c0.4,0.2,0.9,0.4,1.5,0.4c0.4,0,0.8-0.1,1.2-0.2
		c0.3-0.1,0.6-0.4,0.9-0.6c0.3-0.3,0.5-0.6,0.6-1.1c0.2-0.4,0.3-0.9,0.4-1.5c0.1-0.6,0.2-1.2,0.2-1.9s0.1-1.5,0.1-2.4
		c0-1,0-2-0.1-2.8C328,418.3,327.9,417.6,327.8,417z"/>
	<path class="unit02" d="M245.8,416.3c-0.5-0.7-1.2-1.2-2.1-1.5c-0.8-0.4-2-0.6-3.3-0.6h-2.3v15h2.3c1.2,0,2.3-0.2,3.1-0.5
		c0.8-0.3,1.5-0.8,2.1-1.4c0.6-0.6,1-1.4,1.3-2.4s0.4-2.1,0.4-3.3c0-1-0.1-2-0.4-2.9C246.7,417.8,246.3,417,245.8,416.3z"/>
	<path class="unit02" d="M223.9,416.2c-0.4-0.7-1-1.2-1.8-1.6c-0.7-0.4-1.6-0.6-2.7-0.6c-1.1,0-2,0.2-2.8,0.6c-0.7,0.4-1.3,1-1.8,1.7
		c-0.5,0.7-0.8,1.5-1,2.4c-0.2,0.9-0.3,1.9-0.3,2.9c0,1.2,0.1,2.3,0.3,3.3c0.2,1,0.5,1.8,0.9,2.5c0.4,0.7,1,1.2,1.7,1.6
		c0.7,0.4,1.6,0.5,2.8,0.5c1.1,0,2-0.2,2.8-0.6c0.7-0.4,1.3-1,1.8-1.7c0.5-0.7,0.8-1.5,1-2.5c0.2-0.9,0.3-1.9,0.3-3
		c0-1.2-0.1-2.2-0.3-3.2C224.7,417.6,224.4,416.8,223.9,416.2z"/>
	<path class="unit02" d="M171.1,390c-16.7,0-30.2,13.5-30.2,30.2s13.5,30.2,30.2,30.2h331.7V390H171.1z M205.1,432.2
		c0,0.1,0,0.2-0.1,0.3c-0.1,0.1-0.2,0.2-0.3,0.2c-0.2,0.1-0.4,0.1-0.7,0.1c-0.3,0-0.6,0.1-1,0.1c-0.4,0-0.8,0-1-0.1
		c-0.3,0-0.5-0.1-0.6-0.1c-0.2-0.1-0.3-0.1-0.3-0.2c-0.1-0.1-0.1-0.2-0.1-0.3v-18h0l-6.4,18c0,0.1-0.1,0.3-0.2,0.4s-0.2,0.2-0.4,0.2
		s-0.4,0.1-0.7,0.1c-0.3,0-0.6,0-1,0c-0.4,0-0.7,0-1,0s-0.5-0.1-0.7-0.1c-0.2-0.1-0.3-0.1-0.4-0.2c-0.1-0.1-0.2-0.2-0.2-0.3l-6.2-18
		h0v18c0,0.1,0,0.2-0.1,0.3c-0.1,0.1-0.2,0.2-0.4,0.2c-0.2,0.1-0.4,0.1-0.7,0.1c-0.3,0-0.6,0.1-1,0.1c-0.4,0-0.8,0-1-0.1
		c-0.3,0-0.5-0.1-0.7-0.1c-0.2-0.1-0.3-0.1-0.3-0.2c-0.1-0.1-0.1-0.2-0.1-0.3v-19.7c0-0.6,0.2-1,0.5-1.3c0.3-0.3,0.7-0.5,1.2-0.5
		h2.9c0.5,0,1,0,1.4,0.1c0.4,0.1,0.7,0.2,1,0.4s0.5,0.5,0.7,0.8c0.2,0.3,0.3,0.7,0.5,1.2l4.8,13.2h0.1l5-13.1
		c0.1-0.5,0.3-0.9,0.5-1.2c0.2-0.3,0.4-0.6,0.6-0.8c0.2-0.2,0.5-0.3,0.8-0.4c0.3-0.1,0.7-0.1,1.1-0.1h3c0.3,0,0.6,0,0.8,0.1
		c0.2,0.1,0.4,0.2,0.5,0.3c0.1,0.2,0.3,0.3,0.3,0.6c0.1,0.2,0.1,0.5,0.1,0.8V432.2z M229.2,426.4c-0.5,1.4-1.1,2.7-2,3.7
		c-0.9,1-2,1.8-3.3,2.3c-1.3,0.5-2.9,0.8-4.6,0.8c-1.7,0-3.2-0.2-4.5-0.7c-1.3-0.4-2.3-1.1-3.2-2.1c-0.9-0.9-1.5-2.1-1.9-3.5
		c-0.4-1.4-0.6-3.1-0.6-5.1c0-1.8,0.2-3.4,0.7-4.8c0.5-1.4,1.1-2.6,2-3.6c0.9-1,2-1.8,3.3-2.3c1.3-0.5,2.9-0.8,4.6-0.8
		c1.7,0,3.2,0.2,4.4,0.7c1.3,0.4,2.4,1.1,3.2,2.1c0.9,0.9,1.5,2.1,1.9,3.5c0.4,1.4,0.7,3.1,0.7,5C229.8,423.4,229.6,425,229.2,426.4
		z M251.2,426.7c-0.5,1.4-1.3,2.6-2.3,3.5c-1,0.9-2.2,1.6-3.6,2c-1.4,0.4-3.1,0.6-5.1,0.6H235c-0.4,0-0.7-0.1-0.9-0.3
		c-0.3-0.2-0.4-0.6-0.4-1.1v-19.3c0-0.5,0.1-0.9,0.4-1.1c0.3-0.2,0.6-0.3,0.9-0.3h5.7c2,0,3.6,0.2,5,0.7c1.4,0.5,2.5,1.1,3.5,2.1
		c0.9,0.9,1.7,2,2.1,3.4c0.5,1.3,0.7,2.9,0.7,4.6C252,423.5,251.7,425.2,251.2,426.7z M273.7,424.6c0,1.4-0.2,2.6-0.6,3.6
		c-0.4,1.1-1,2-1.8,2.7c-0.8,0.7-1.7,1.3-2.9,1.7c-1.1,0.4-2.4,0.6-3.9,0.6c-1.4,0-2.6-0.2-3.7-0.5c-1.1-0.3-2-0.9-2.8-1.6
		c-0.8-0.7-1.3-1.6-1.8-2.6c-0.4-1.1-0.6-2.3-0.6-3.7v-13.5c0-0.1,0-0.2,0.1-0.3c0.1-0.1,0.2-0.2,0.4-0.2s0.4-0.1,0.7-0.1
		c0.3,0,0.6-0.1,1.1-0.1c0.4,0,0.8,0,1.1,0.1c0.3,0,0.5,0.1,0.7,0.1c0.2,0.1,0.3,0.1,0.4,0.2c0.1,0.1,0.1,0.2,0.1,0.3v13.1
		c0,0.9,0.1,1.6,0.3,2.3c0.2,0.6,0.5,1.2,0.9,1.6c0.4,0.4,0.9,0.7,1.5,0.9c0.6,0.2,1.2,0.3,1.9,0.3c0.7,0,1.3-0.1,1.9-0.3
		c0.6-0.2,1-0.5,1.4-0.9c0.4-0.4,0.7-0.9,0.9-1.5c0.2-0.6,0.3-1.3,0.3-2.1v-13.3c0-0.1,0-0.2,0.1-0.3c0.1-0.1,0.2-0.2,0.4-0.2
		s0.4-0.1,0.7-0.1c0.3,0,0.7-0.1,1.1-0.1c0.4,0,0.8,0,1.1,0.1c0.3,0,0.5,0.1,0.7,0.1s0.3,0.1,0.4,0.2c0.1,0.1,0.1,0.2,0.1,0.3V424.6
		z M290.6,431.8c0,0.2-0.1,0.4-0.1,0.6c-0.1,0.2-0.1,0.3-0.2,0.3c-0.1,0.1-0.2,0.1-0.3,0.1h-10.1c-0.4,0-0.7-0.1-0.9-0.3
		c-0.3-0.2-0.4-0.6-0.4-1.1v-20.1c0-0.1,0-0.2,0.1-0.3c0.1-0.1,0.2-0.2,0.4-0.2c0.2-0.1,0.4-0.1,0.7-0.1c0.3,0,0.7-0.1,1.1-0.1
		c0.4,0,0.8,0,1.1,0.1c0.3,0,0.5,0.1,0.7,0.1c0.2,0.1,0.3,0.1,0.4,0.2c0.1,0.1,0.1,0.2,0.1,0.3v17.8h7c0.1,0,0.2,0,0.3,0.1
		c0.1,0.1,0.2,0.2,0.2,0.3c0.1,0.1,0.1,0.3,0.1,0.6c0,0.2,0,0.5,0,0.9S290.7,431.6,290.6,431.8z M306.4,431.9c0,0.2-0.1,0.4-0.1,0.5
		c-0.1,0.1-0.1,0.2-0.2,0.3c-0.1,0.1-0.2,0.1-0.3,0.1h-11.1c-0.4,0-0.7-0.1-0.9-0.3c-0.3-0.2-0.4-0.6-0.4-1.1v-19.3
		c0-0.5,0.1-0.9,0.4-1.1c0.3-0.2,0.6-0.3,0.9-0.3h11c0.1,0,0.2,0,0.3,0.1c0.1,0.1,0.1,0.2,0.2,0.3c0.1,0.1,0.1,0.3,0.1,0.5
		c0,0.2,0,0.5,0,0.8c0,0.3,0,0.6,0,0.8c0,0.2-0.1,0.4-0.1,0.5c-0.1,0.1-0.1,0.2-0.2,0.3c-0.1,0.1-0.2,0.1-0.3,0.1h-7.9v5.4h6.7
		c0.1,0,0.2,0,0.3,0.1c0.1,0.1,0.2,0.2,0.2,0.3c0.1,0.1,0.1,0.3,0.1,0.5c0,0.2,0,0.5,0,0.8c0,0.3,0,0.6,0,0.8c0,0.2-0.1,0.4-0.1,0.5
		c-0.1,0.1-0.1,0.2-0.2,0.3c-0.1,0.1-0.2,0.1-0.3,0.1h-6.7v6.2h8c0.1,0,0.2,0,0.3,0.1c0.1,0.1,0.2,0.2,0.2,0.3
		c0.1,0.1,0.1,0.3,0.1,0.5c0,0.2,0,0.5,0,0.8C306.4,431.4,306.4,431.7,306.4,431.9z M332.3,426.5c-0.3,1.4-0.8,2.6-1.4,3.6
		c-0.6,1-1.5,1.8-2.5,2.3c-1,0.5-2.3,0.8-3.8,0.8c-1.5,0-2.8-0.3-3.8-0.8c-1-0.5-1.8-1.3-2.4-2.2c-0.6-1-1-2.2-1.2-3.6
		c-0.2-1.4-0.3-3-0.3-4.8c0-1.8,0.1-3.3,0.4-4.8c0.3-1.4,0.8-2.6,1.4-3.6c0.6-1,1.5-1.8,2.5-2.3c1-0.5,2.3-0.8,3.8-0.8
		c1.5,0,2.8,0.3,3.8,0.8c1,0.5,1.8,1.3,2.4,2.2c0.6,1,1,2.2,1.2,3.6c0.2,1.4,0.3,3,0.3,4.8C332.7,423.5,332.5,425.1,332.3,426.5z
		 M349.9,431.9c0,0.2-0.1,0.4-0.1,0.6c-0.1,0.1-0.1,0.3-0.2,0.3c-0.1,0.1-0.2,0.1-0.3,0.1h-12.7c-0.3,0-0.5,0-0.6-0.1
		c-0.2,0-0.3-0.1-0.4-0.3c-0.1-0.1-0.2-0.3-0.2-0.6c-0.1-0.3-0.1-0.6-0.1-1c0-0.4,0-0.7,0.1-1c0-0.3,0.1-0.5,0.2-0.7
		c0.1-0.2,0.2-0.4,0.4-0.6c0.1-0.2,0.3-0.4,0.6-0.7l3.8-4.1c0.8-0.8,1.4-1.5,1.8-2.2c0.5-0.7,0.8-1.3,1.1-1.8c0.3-0.5,0.4-1,0.5-1.5
		c0.1-0.5,0.1-0.9,0.1-1.3c0-0.4-0.1-0.7-0.2-1.1c-0.1-0.3-0.3-0.6-0.5-0.9c-0.2-0.3-0.5-0.4-0.9-0.6c-0.4-0.1-0.8-0.2-1.2-0.2
		c-0.7,0-1.3,0.1-1.8,0.3c-0.5,0.2-1,0.4-1.4,0.6c-0.4,0.2-0.7,0.4-1,0.6c-0.3,0.2-0.5,0.3-0.6,0.3c-0.1,0-0.2,0-0.3-0.1
		s-0.1-0.2-0.2-0.3c0-0.2-0.1-0.4-0.1-0.6c0-0.3,0-0.6,0-1c0-0.3,0-0.5,0-0.7c0-0.2,0-0.3,0.1-0.5c0-0.1,0.1-0.2,0.1-0.3
		c0.1-0.1,0.2-0.2,0.3-0.4s0.4-0.3,0.8-0.5s0.9-0.4,1.4-0.6c0.6-0.2,1.2-0.4,1.8-0.5c0.7-0.1,1.4-0.2,2.1-0.2c1.2,0,2.2,0.1,3,0.4
		c0.9,0.3,1.6,0.7,2.1,1.2c0.6,0.5,1,1.1,1.3,1.8c0.3,0.7,0.4,1.5,0.4,2.3c0,0.7-0.1,1.4-0.2,2.1c-0.1,0.7-0.4,1.4-0.9,2.2
		c-0.4,0.8-1,1.7-1.8,2.7c-0.8,1-1.8,2.1-3.1,3.4l-2.6,2.6h8.7c0.1,0,0.2,0,0.3,0.1s0.2,0.2,0.2,0.3c0.1,0.1,0.1,0.3,0.2,0.6
		c0,0.2,0.1,0.5,0.1,0.8C350,431.3,350,431.6,349.9,431.9z M365.9,408.6l-10.2,28.7c-0.1,0.1-0.1,0.3-0.2,0.4
		c-0.1,0.1-0.2,0.2-0.4,0.2c-0.2,0.1-0.4,0.1-0.6,0.1c-0.2,0-0.6,0-0.9,0c-0.5,0-0.8,0-1.1-0.1c-0.3,0-0.5-0.1-0.7-0.2
		c-0.2-0.1-0.2-0.2-0.3-0.3c0-0.1,0-0.3,0.1-0.5l10.2-28.7c0-0.1,0.1-0.3,0.2-0.4c0.1-0.1,0.2-0.2,0.4-0.2c0.2-0.1,0.4-0.1,0.6-0.1
		c0.3,0,0.6,0,0.9,0c0.5,0,0.9,0,1.2,0.1c0.3,0,0.5,0.1,0.7,0.2c0.1,0.1,0.2,0.2,0.3,0.4C366,408.2,366,408.4,365.9,408.6z
		 M394.8,424.6c0,1.4-0.2,2.6-0.6,3.6c-0.4,1.1-1,2-1.8,2.7c-0.8,0.7-1.7,1.3-2.9,1.7c-1.1,0.4-2.4,0.6-3.9,0.6
		c-1.4,0-2.6-0.2-3.7-0.5c-1.1-0.3-2-0.9-2.8-1.6c-0.8-0.7-1.3-1.6-1.8-2.6c-0.4-1.1-0.6-2.3-0.6-3.7v-13.5c0-0.1,0-0.2,0.1-0.3
		c0.1-0.1,0.2-0.2,0.4-0.2s0.4-0.1,0.7-0.1c0.3,0,0.6-0.1,1.1-0.1c0.4,0,0.8,0,1.1,0.1c0.3,0,0.5,0.1,0.7,0.1
		c0.2,0.1,0.3,0.1,0.4,0.2c0.1,0.1,0.1,0.2,0.1,0.3v13.1c0,0.9,0.1,1.6,0.3,2.3c0.2,0.6,0.5,1.2,0.9,1.6c0.4,0.4,0.9,0.7,1.5,0.9
		c0.6,0.2,1.2,0.3,1.9,0.3c0.7,0,1.3-0.1,1.9-0.3c0.6-0.2,1-0.5,1.4-0.9c0.4-0.4,0.7-0.9,0.9-1.5c0.2-0.6,0.3-1.3,0.3-2.1v-13.3
		c0-0.1,0-0.2,0.1-0.3c0.1-0.1,0.2-0.2,0.4-0.2s0.4-0.1,0.7-0.1c0.3,0,0.7-0.1,1.1-0.1c0.4,0,0.8,0,1.1,0.1c0.3,0,0.5,0.1,0.7,0.1
		s0.3,0.1,0.4,0.2c0.1,0.1,0.1,0.2,0.1,0.3V424.6z M413.9,432.3c0,0.1,0,0.2-0.1,0.3c-0.1,0.1-0.2,0.2-0.3,0.2
		c-0.2,0.1-0.4,0.1-0.7,0.1s-0.6,0-1,0c-0.4,0-0.8,0-1.1,0s-0.5-0.1-0.7-0.1c-0.2-0.1-0.3-0.1-0.3-0.2c-0.1-0.1-0.1-0.2-0.1-0.3
		v-8.7c0-0.7-0.1-1.3-0.2-1.7c-0.1-0.4-0.3-0.8-0.5-1.1c-0.2-0.3-0.5-0.5-0.8-0.7c-0.3-0.2-0.7-0.2-1.1-0.2c-0.5,0-1.1,0.2-1.7,0.6
		c-0.6,0.4-1.1,1-1.7,1.7v10.1c0,0.1,0,0.2-0.1,0.3c-0.1,0.1-0.2,0.2-0.4,0.2c-0.2,0.1-0.4,0.1-0.7,0.1s-0.6,0-1,0c-0.4,0-0.8,0-1,0
		s-0.5-0.1-0.7-0.1c-0.2-0.1-0.3-0.1-0.4-0.2c-0.1-0.1-0.1-0.2-0.1-0.3V417c0-0.1,0-0.2,0.1-0.3c0.1-0.1,0.2-0.2,0.3-0.2
		c0.1-0.1,0.3-0.1,0.6-0.1c0.2,0,0.5,0,0.9,0c0.4,0,0.7,0,0.9,0c0.2,0,0.4,0.1,0.6,0.1c0.1,0.1,0.2,0.1,0.3,0.2
		c0.1,0.1,0.1,0.2,0.1,0.3v1.8c0.8-0.9,1.7-1.6,2.6-2.1c0.9-0.5,1.8-0.7,2.7-0.7c1,0,1.9,0.2,2.6,0.5c0.7,0.3,1.3,0.8,1.7,1.4
		s0.8,1.3,0.9,2.1c0.2,0.8,0.3,1.7,0.3,2.8V432.3z M422.4,432.3c0,0.1,0,0.2-0.1,0.3c-0.1,0.1-0.2,0.2-0.4,0.2
		c-0.2,0.1-0.4,0.1-0.7,0.1s-0.6,0-1,0c-0.4,0-0.8,0-1,0s-0.5-0.1-0.7-0.1c-0.2-0.1-0.3-0.1-0.4-0.2c-0.1-0.1-0.1-0.2-0.1-0.3V417
		c0-0.1,0-0.2,0.1-0.3c0.1-0.1,0.2-0.2,0.4-0.2c0.2-0.1,0.4-0.1,0.7-0.1c0.3,0,0.6-0.1,1-0.1c0.4,0,0.8,0,1,0.1
		c0.3,0,0.5,0.1,0.7,0.1c0.2,0.1,0.3,0.1,0.4,0.2c0.1,0.1,0.1,0.2,0.1,0.3V432.3z M422.2,413.6c-0.4,0.3-1,0.5-2,0.5
		c-1,0-1.6-0.2-2-0.5c-0.3-0.3-0.5-0.9-0.5-1.7c0-0.9,0.2-1.5,0.5-1.8s1-0.5,2-0.5c1,0,1.6,0.2,1.9,0.5c0.3,0.3,0.5,0.9,0.5,1.7
		C422.8,412.7,422.6,413.3,422.2,413.6z M432.1,429c0.3,0.4,0.7,0.6,1.4,0.6c0.2,0,0.4,0,0.6-0.1c0.2,0,0.3-0.1,0.5-0.1
		c0.1-0.1,0.3-0.1,0.4-0.1c0.1,0,0.2-0.1,0.3-0.1c0.1,0,0.1,0,0.2,0.1c0.1,0,0.1,0.1,0.1,0.2c0,0.1,0.1,0.3,0.1,0.5s0,0.5,0,0.8
		c0,0.5,0,0.9-0.1,1.2c-0.1,0.3-0.1,0.5-0.2,0.6s-0.3,0.2-0.5,0.3c-0.2,0.1-0.4,0.2-0.7,0.2c-0.3,0.1-0.6,0.1-0.9,0.1
		c-0.3,0-0.6,0.1-0.9,0.1c-0.9,0-1.6-0.1-2.2-0.3c-0.6-0.2-1.1-0.5-1.6-1s-0.7-1-0.9-1.7c-0.2-0.7-0.3-1.5-0.3-2.4v-7.8h-1.8
		c-0.2,0-0.4-0.1-0.5-0.4c-0.1-0.3-0.2-0.7-0.2-1.3c0-0.3,0-0.6,0-0.8c0-0.2,0.1-0.4,0.1-0.5c0.1-0.1,0.1-0.2,0.2-0.3
		c0.1-0.1,0.2-0.1,0.3-0.1h1.8V413c0-0.1,0-0.2,0.1-0.3c0.1-0.1,0.2-0.2,0.3-0.2c0.2-0.1,0.4-0.1,0.7-0.1c0.3,0,0.6,0,1,0
		c0.4,0,0.8,0,1.1,0c0.3,0,0.5,0.1,0.7,0.1c0.2,0.1,0.3,0.1,0.3,0.2c0.1,0.1,0.1,0.2,0.1,0.3v3.4h3.3c0.1,0,0.2,0,0.3,0.1
		c0.1,0.1,0.2,0.2,0.2,0.3c0.1,0.1,0.1,0.3,0.1,0.5c0,0.2,0,0.5,0,0.8c0,0.6-0.1,1.1-0.2,1.3c-0.1,0.3-0.3,0.4-0.5,0.4h-3.3v7.2
		C431.7,427.9,431.9,428.5,432.1,429z M461,426.5c-0.3,1.4-0.8,2.6-1.4,3.6c-0.6,1-1.5,1.8-2.5,2.3c-1,0.5-2.3,0.8-3.8,0.8
		c-1.5,0-2.8-0.3-3.8-0.8c-1-0.5-1.8-1.3-2.4-2.2c-0.6-1-1-2.2-1.2-3.6c-0.2-1.4-0.3-3-0.3-4.8c0-1.8,0.1-3.3,0.4-4.8
		c0.3-1.4,0.8-2.6,1.4-3.6c0.6-1,1.5-1.8,2.5-2.3c1-0.5,2.3-0.8,3.8-0.8c1.5,0,2.8,0.3,3.8,0.8c1,0.5,1.8,1.3,2.4,2.2
		c0.6,1,1,2.2,1.2,3.6c0.2,1.4,0.3,3,0.3,4.8C461.4,423.5,461.3,425.1,461,426.5z M478.6,431.9c0,0.2-0.1,0.4-0.1,0.6
		c-0.1,0.1-0.1,0.3-0.2,0.3c-0.1,0.1-0.2,0.1-0.3,0.1h-12.7c-0.3,0-0.5,0-0.6-0.1c-0.2,0-0.3-0.1-0.4-0.3c-0.1-0.1-0.2-0.3-0.2-0.6
		c-0.1-0.3-0.1-0.6-0.1-1c0-0.4,0-0.7,0.1-1c0-0.3,0.1-0.5,0.2-0.7c0.1-0.2,0.2-0.4,0.4-0.6c0.1-0.2,0.3-0.4,0.6-0.7l3.8-4.1
		c0.8-0.8,1.4-1.5,1.8-2.2c0.5-0.7,0.8-1.3,1.1-1.8c0.3-0.5,0.4-1,0.5-1.5c0.1-0.5,0.1-0.9,0.1-1.3c0-0.4-0.1-0.7-0.2-1.1
		c-0.1-0.3-0.3-0.6-0.5-0.9c-0.2-0.3-0.5-0.4-0.9-0.6c-0.4-0.1-0.8-0.2-1.2-0.2c-0.7,0-1.3,0.1-1.8,0.3c-0.5,0.2-1,0.4-1.4,0.6
		c-0.4,0.2-0.7,0.4-1,0.6c-0.3,0.2-0.5,0.3-0.6,0.3c-0.1,0-0.2,0-0.3-0.1s-0.1-0.2-0.2-0.3c0-0.2-0.1-0.4-0.1-0.6c0-0.3,0-0.6,0-1
		c0-0.3,0-0.5,0-0.7c0-0.2,0-0.3,0.1-0.5c0-0.1,0.1-0.2,0.1-0.3c0.1-0.1,0.2-0.2,0.3-0.4s0.4-0.3,0.8-0.5s0.9-0.4,1.4-0.6
		c0.6-0.2,1.2-0.4,1.8-0.5c0.7-0.1,1.4-0.2,2.1-0.2c1.2,0,2.2,0.1,3,0.4c0.9,0.3,1.6,0.7,2.1,1.2c0.6,0.5,1,1.1,1.3,1.8
		c0.3,0.7,0.4,1.5,0.4,2.3c0,0.7-0.1,1.4-0.2,2.1c-0.1,0.7-0.4,1.4-0.9,2.2c-0.4,0.8-1,1.7-1.8,2.7c-0.8,1-1.8,2.1-3.1,3.4l-2.6,2.6
		h8.7c0.1,0,0.2,0,0.3,0.1s0.2,0.2,0.2,0.3c0.1,0.1,0.1,0.3,0.2,0.6c0,0.2,0.1,0.5,0.1,0.8C478.7,431.3,478.7,431.6,478.6,431.9z"/>
	<path class="unit02" d="M456.5,417c-0.1-0.6-0.3-1.1-0.4-1.5c-0.2-0.4-0.4-0.7-0.6-1c-0.3-0.2-0.5-0.4-0.9-0.5
		c-0.3-0.1-0.7-0.2-1.1-0.2c-0.7,0-1.2,0.2-1.7,0.5c-0.4,0.3-0.8,0.8-1,1.5c-0.3,0.6-0.4,1.5-0.5,2.4c-0.1,1-0.2,2.1-0.2,3.4
		c0,1.6,0.1,2.9,0.2,3.9c0.1,1,0.3,1.9,0.6,2.5c0.3,0.6,0.6,1,1,1.3c0.4,0.2,0.9,0.4,1.5,0.4c0.4,0,0.8-0.1,1.2-0.2
		c0.3-0.1,0.6-0.4,0.9-0.6c0.3-0.3,0.5-0.6,0.6-1.1c0.2-0.4,0.3-0.9,0.4-1.5c0.1-0.6,0.2-1.2,0.2-1.9s0.1-1.5,0.1-2.4
		c0-1,0-2-0.1-2.8C456.7,418.3,456.6,417.6,456.5,417z"/>
</g>
<g>
	<path class="unit03" d="M327.8,485.3c-0.1-0.6-0.3-1.1-0.4-1.5c-0.2-0.4-0.4-0.7-0.6-1c-0.3-0.2-0.5-0.4-0.9-0.5
		c-0.3-0.1-0.7-0.2-1.1-0.2c-0.7,0-1.2,0.2-1.7,0.5c-0.4,0.3-0.8,0.8-1,1.5c-0.3,0.6-0.4,1.5-0.5,2.4c-0.1,1-0.2,2.1-0.2,3.4
		c0,1.6,0.1,2.9,0.2,3.9c0.1,1,0.3,1.9,0.6,2.5c0.3,0.6,0.6,1,1,1.3c0.4,0.2,0.9,0.4,1.5,0.4c0.4,0,0.8-0.1,1.2-0.2
		c0.3-0.1,0.6-0.4,0.9-0.6c0.3-0.3,0.5-0.6,0.6-1.1c0.2-0.4,0.3-0.9,0.4-1.5c0.1-0.6,0.2-1.2,0.2-1.9s0.1-1.5,0.1-2.4
		c0-1,0-2-0.1-2.8C328,486.6,327.9,485.9,327.8,485.3z"/>
	<path class="unit03" d="M456.5,485.3c-0.1-0.6-0.3-1.1-0.4-1.5c-0.2-0.4-0.4-0.7-0.6-1c-0.3-0.2-0.5-0.4-0.9-0.5
		c-0.3-0.1-0.7-0.2-1.1-0.2c-0.7,0-1.2,0.2-1.7,0.5c-0.4,0.3-0.8,0.8-1,1.5c-0.3,0.6-0.4,1.5-0.5,2.4c-0.1,1-0.2,2.1-0.2,3.4
		c0,1.6,0.1,2.9,0.2,3.9c0.1,1,0.3,1.9,0.6,2.5c0.3,0.6,0.6,1,1,1.3c0.4,0.2,0.9,0.4,1.5,0.4c0.4,0,0.8-0.1,1.2-0.2
		c0.3-0.1,0.6-0.4,0.9-0.6c0.3-0.3,0.5-0.6,0.6-1.1c0.2-0.4,0.3-0.9,0.4-1.5c0.1-0.6,0.2-1.2,0.2-1.9s0.1-1.5,0.1-2.4
		c0-1,0-2-0.1-2.8C456.7,486.6,456.6,485.9,456.5,485.3z"/>
	<path class="unit03" d="M223.9,484.4c-0.4-0.7-1-1.2-1.8-1.6c-0.7-0.4-1.6-0.6-2.7-0.6c-1.1,0-2,0.2-2.8,0.6c-0.7,0.4-1.3,1-1.8,1.7
		c-0.5,0.7-0.8,1.5-1,2.4c-0.2,0.9-0.3,1.9-0.3,2.9c0,1.2,0.1,2.3,0.3,3.3c0.2,1,0.5,1.8,0.9,2.5c0.4,0.7,1,1.2,1.7,1.6
		c0.7,0.4,1.6,0.5,2.8,0.5c1.1,0,2-0.2,2.8-0.6c0.7-0.4,1.3-1,1.8-1.7c0.5-0.7,0.8-1.5,1-2.5c0.2-0.9,0.3-1.9,0.3-3
		c0-1.2-0.1-2.2-0.3-3.2C224.7,485.9,224.4,485.1,223.9,484.4z"/>
	<path class="unit03" d="M245.8,484.6c-0.5-0.7-1.2-1.2-2.1-1.5c-0.8-0.4-2-0.6-3.3-0.6h-2.3v15h2.3c1.2,0,2.3-0.2,3.1-0.5
		c0.8-0.3,1.5-0.8,2.1-1.4c0.6-0.6,1-1.4,1.3-2.4s0.4-2.1,0.4-3.3c0-1-0.1-2-0.4-2.9C246.7,486.1,246.3,485.3,245.8,484.6z"/>
	<path class="unit03" d="M171.1,460.8L171.1,460.8c-16.7,0.1-30.2,13.6-30.2,30.3s13.5,30.2,30.2,30.2h331.7v-60.5H171.1z M205.1,500.5
		c0,0.1,0,0.2-0.1,0.3c-0.1,0.1-0.2,0.2-0.3,0.2c-0.2,0.1-0.4,0.1-0.7,0.1c-0.3,0-0.6,0.1-1,0.1c-0.4,0-0.8,0-1-0.1
		c-0.3,0-0.5-0.1-0.6-0.1c-0.2-0.1-0.3-0.1-0.3-0.2c-0.1-0.1-0.1-0.2-0.1-0.3v-18h0l-6.4,18c0,0.1-0.1,0.3-0.2,0.4s-0.2,0.2-0.4,0.2
		s-0.4,0.1-0.7,0.1c-0.3,0-0.6,0-1,0c-0.4,0-0.7,0-1,0s-0.5-0.1-0.7-0.1c-0.2-0.1-0.3-0.1-0.4-0.2c-0.1-0.1-0.2-0.2-0.2-0.3l-6.2-18
		h0v18c0,0.1,0,0.2-0.1,0.3c-0.1,0.1-0.2,0.2-0.4,0.2c-0.2,0.1-0.4,0.1-0.7,0.1c-0.3,0-0.6,0.1-1,0.1c-0.4,0-0.8,0-1-0.1
		c-0.3,0-0.5-0.1-0.7-0.1c-0.2-0.1-0.3-0.1-0.3-0.2c-0.1-0.1-0.1-0.2-0.1-0.3v-19.7c0-0.6,0.2-1,0.5-1.3c0.3-0.3,0.7-0.5,1.2-0.5
		h2.9c0.5,0,1,0,1.4,0.1c0.4,0.1,0.7,0.2,1,0.4s0.5,0.5,0.7,0.8c0.2,0.3,0.3,0.7,0.5,1.2l4.8,13.2h0.1l5-13.1
		c0.1-0.5,0.3-0.9,0.5-1.2c0.2-0.3,0.4-0.6,0.6-0.8c0.2-0.2,0.5-0.3,0.8-0.4c0.3-0.1,0.7-0.1,1.1-0.1h3c0.3,0,0.6,0,0.8,0.1
		c0.2,0.1,0.4,0.2,0.5,0.3c0.1,0.2,0.3,0.3,0.3,0.6c0.1,0.2,0.1,0.5,0.1,0.8V500.5z M229.2,494.7c-0.5,1.4-1.1,2.7-2,3.7
		c-0.9,1-2,1.8-3.3,2.3c-1.3,0.5-2.9,0.8-4.6,0.8c-1.7,0-3.2-0.2-4.5-0.7c-1.3-0.4-2.3-1.1-3.2-2.1c-0.9-0.9-1.5-2.1-1.9-3.5
		c-0.4-1.4-0.6-3.1-0.6-5.1c0-1.8,0.2-3.4,0.7-4.8c0.5-1.4,1.1-2.6,2-3.6c0.9-1,2-1.8,3.3-2.3c1.3-0.5,2.9-0.8,4.6-0.8
		c1.7,0,3.2,0.2,4.4,0.7c1.3,0.4,2.4,1.1,3.2,2.1c0.9,0.9,1.5,2.1,1.9,3.5c0.4,1.4,0.7,3.1,0.7,5
		C229.8,491.7,229.6,493.3,229.2,494.7z M251.2,495c-0.5,1.4-1.3,2.6-2.3,3.5c-1,0.9-2.2,1.6-3.6,2c-1.4,0.4-3.1,0.6-5.1,0.6H235
		c-0.4,0-0.7-0.1-0.9-0.3c-0.3-0.2-0.4-0.6-0.4-1.1v-19.3c0-0.5,0.1-0.9,0.4-1.1c0.3-0.2,0.6-0.3,0.9-0.3h5.7c2,0,3.6,0.2,5,0.7
		c1.4,0.5,2.5,1.1,3.5,2.1c0.9,0.9,1.7,2,2.1,3.4c0.5,1.3,0.7,2.9,0.7,4.6C252,491.8,251.7,493.5,251.2,495z M273.7,492.9
		c0,1.4-0.2,2.6-0.6,3.6c-0.4,1.1-1,2-1.8,2.7c-0.8,0.7-1.7,1.3-2.9,1.7c-1.1,0.4-2.4,0.6-3.9,0.6c-1.4,0-2.6-0.2-3.7-0.5
		c-1.1-0.3-2-0.9-2.8-1.6c-0.8-0.7-1.3-1.6-1.8-2.6c-0.4-1.1-0.6-2.3-0.6-3.7v-13.5c0-0.1,0-0.2,0.1-0.3c0.1-0.1,0.2-0.2,0.4-0.2
		s0.4-0.1,0.7-0.1c0.3,0,0.6-0.1,1.1-0.1c0.4,0,0.8,0,1.1,0.1c0.3,0,0.5,0.1,0.7,0.1c0.2,0.1,0.3,0.1,0.4,0.2
		c0.1,0.1,0.1,0.2,0.1,0.3v13.1c0,0.9,0.1,1.6,0.3,2.3c0.2,0.6,0.5,1.2,0.9,1.6c0.4,0.4,0.9,0.7,1.5,0.9c0.6,0.2,1.2,0.3,1.9,0.3
		c0.7,0,1.3-0.1,1.9-0.3c0.6-0.2,1-0.5,1.4-0.9c0.4-0.4,0.7-0.9,0.9-1.5c0.2-0.6,0.3-1.3,0.3-2.1v-13.3c0-0.1,0-0.2,0.1-0.3
		c0.1-0.1,0.2-0.2,0.4-0.2s0.4-0.1,0.7-0.1c0.3,0,0.7-0.1,1.1-0.1c0.4,0,0.8,0,1.1,0.1c0.3,0,0.5,0.1,0.7,0.1s0.3,0.1,0.4,0.2
		c0.1,0.1,0.1,0.2,0.1,0.3V492.9z M290.6,500.1c0,0.2-0.1,0.4-0.1,0.6c-0.1,0.2-0.1,0.3-0.2,0.3c-0.1,0.1-0.2,0.1-0.3,0.1h-10.1
		c-0.4,0-0.7-0.1-0.9-0.3c-0.3-0.2-0.4-0.6-0.4-1.1v-20.1c0-0.1,0-0.2,0.1-0.3c0.1-0.1,0.2-0.2,0.4-0.2c0.2-0.1,0.4-0.1,0.7-0.1
		c0.3,0,0.7-0.1,1.1-0.1c0.4,0,0.8,0,1.1,0.1c0.3,0,0.5,0.1,0.7,0.1c0.2,0.1,0.3,0.1,0.4,0.2c0.1,0.1,0.1,0.2,0.1,0.3v17.8h7
		c0.1,0,0.2,0,0.3,0.1c0.1,0.1,0.2,0.2,0.2,0.3c0.1,0.1,0.1,0.3,0.1,0.6c0,0.2,0,0.5,0,0.9S290.7,499.9,290.6,500.1z M306.4,500.2
		c0,0.2-0.1,0.4-0.1,0.5c-0.1,0.1-0.1,0.2-0.2,0.3c-0.1,0.1-0.2,0.1-0.3,0.1h-11.1c-0.4,0-0.7-0.1-0.9-0.3c-0.3-0.2-0.4-0.6-0.4-1.1
		v-19.3c0-0.5,0.1-0.9,0.4-1.1c0.3-0.2,0.6-0.3,0.9-0.3h11c0.1,0,0.2,0,0.3,0.1c0.1,0.1,0.1,0.2,0.2,0.3c0.1,0.1,0.1,0.3,0.1,0.5
		c0,0.2,0,0.5,0,0.8c0,0.3,0,0.6,0,0.8c0,0.2-0.1,0.4-0.1,0.5c-0.1,0.1-0.1,0.2-0.2,0.3c-0.1,0.1-0.2,0.1-0.3,0.1h-7.9v5.4h6.7
		c0.1,0,0.2,0,0.3,0.1c0.1,0.1,0.2,0.2,0.2,0.3c0.1,0.1,0.1,0.3,0.1,0.5c0,0.2,0,0.5,0,0.8c0,0.3,0,0.6,0,0.8c0,0.2-0.1,0.4-0.1,0.5
		c-0.1,0.1-0.1,0.2-0.2,0.3c-0.1,0.1-0.2,0.1-0.3,0.1h-6.7v6.2h8c0.1,0,0.2,0,0.3,0.1c0.1,0.1,0.2,0.2,0.2,0.3
		c0.1,0.1,0.1,0.3,0.1,0.5c0,0.2,0,0.5,0,0.8C306.4,499.7,306.4,500,306.4,500.2z M332.3,494.8c-0.3,1.4-0.8,2.6-1.4,3.6
		c-0.6,1-1.5,1.8-2.5,2.3c-1,0.5-2.3,0.8-3.8,0.8c-1.5,0-2.8-0.3-3.8-0.8c-1-0.5-1.8-1.3-2.4-2.2c-0.6-1-1-2.2-1.2-3.6
		c-0.2-1.4-0.3-3-0.3-4.8c0-1.8,0.1-3.3,0.4-4.8c0.3-1.4,0.8-2.6,1.4-3.6c0.6-1,1.5-1.8,2.5-2.3c1-0.5,2.3-0.8,3.8-0.8
		c1.5,0,2.8,0.3,3.8,0.8c1,0.5,1.8,1.3,2.4,2.2c0.6,1,1,2.2,1.2,3.6c0.2,1.4,0.3,3,0.3,4.8C332.7,491.8,332.5,493.4,332.3,494.8z
		 M349.3,497.6c-0.4,0.9-1,1.6-1.8,2.2c-0.8,0.6-1.7,1-2.7,1.3c-1,0.3-2.2,0.5-3.4,0.5c-0.8,0-1.5-0.1-2.1-0.2
		c-0.7-0.1-1.2-0.2-1.8-0.4c-0.5-0.2-0.9-0.3-1.3-0.5c-0.3-0.2-0.5-0.3-0.6-0.4c-0.1-0.1-0.2-0.2-0.2-0.3c-0.1-0.1-0.1-0.2-0.1-0.4
		c0-0.2-0.1-0.3-0.1-0.6c0-0.2,0-0.5,0-0.8c0-0.5,0-0.9,0.1-1.1c0.1-0.2,0.2-0.3,0.4-0.3c0.1,0,0.3,0.1,0.6,0.2
		c0.3,0.2,0.6,0.3,1.1,0.5c0.4,0.2,0.9,0.3,1.5,0.5c0.6,0.2,1.2,0.2,2,0.2c0.6,0,1.2-0.1,1.7-0.2c0.5-0.1,0.9-0.4,1.2-0.6
		c0.3-0.3,0.6-0.6,0.8-1s0.2-0.8,0.2-1.3c0-0.5-0.1-1-0.3-1.4c-0.2-0.4-0.5-0.8-0.9-1.1c-0.4-0.3-0.9-0.5-1.5-0.7
		c-0.6-0.2-1.3-0.2-2.1-0.2H338c-0.1,0-0.3,0-0.4-0.1s-0.2-0.1-0.3-0.2c-0.1-0.1-0.1-0.3-0.1-0.5c0-0.2,0-0.5,0-0.9
		c0-0.3,0-0.6,0-0.8c0-0.2,0.1-0.4,0.1-0.5c0.1-0.1,0.1-0.2,0.2-0.2c0.1,0,0.2-0.1,0.3-0.1h1.9c0.7,0,1.2-0.1,1.8-0.2
		c0.5-0.2,0.9-0.4,1.3-0.7c0.3-0.3,0.6-0.6,0.8-1c0.2-0.4,0.3-0.9,0.3-1.3c0-0.4-0.1-0.7-0.2-1.1c-0.1-0.3-0.3-0.6-0.6-0.9
		s-0.6-0.4-0.9-0.6c-0.4-0.1-0.8-0.2-1.4-0.2c-0.6,0-1.2,0.1-1.7,0.3c-0.5,0.2-1,0.4-1.4,0.6c-0.4,0.2-0.8,0.4-1.1,0.6
		c-0.3,0.2-0.5,0.3-0.6,0.3c-0.1,0-0.2,0-0.2-0.1s-0.1-0.1-0.2-0.2c0-0.1-0.1-0.3-0.1-0.5c0-0.2,0-0.5,0-0.8c0-0.3,0-0.5,0-0.7
		c0-0.2,0-0.3,0.1-0.5c0-0.1,0.1-0.2,0.1-0.3c0.1-0.1,0.1-0.2,0.2-0.3c0.1-0.1,0.3-0.3,0.7-0.5c0.4-0.2,0.8-0.4,1.3-0.6
		c0.5-0.2,1.2-0.4,1.9-0.5c0.7-0.1,1.5-0.2,2.3-0.2c1.1,0,2,0.1,2.8,0.4c0.8,0.3,1.5,0.6,2.1,1.1c0.6,0.5,1,1.1,1.3,1.7
		c0.3,0.7,0.4,1.5,0.4,2.3c0,0.7-0.1,1.3-0.3,1.9c-0.2,0.6-0.4,1.1-0.8,1.6c-0.3,0.5-0.7,0.8-1.2,1.2c-0.5,0.3-1.1,0.6-1.7,0.7v0.1
		c0.8,0.1,1.5,0.3,2.1,0.6c0.6,0.3,1.1,0.7,1.6,1.1c0.4,0.5,0.8,1,1,1.5c0.2,0.6,0.3,1.2,0.3,1.9
		C349.9,495.8,349.7,496.7,349.3,497.6z M365.9,476.9l-10.2,28.7c-0.1,0.1-0.1,0.3-0.2,0.4c-0.1,0.1-0.2,0.2-0.4,0.2
		c-0.2,0.1-0.4,0.1-0.6,0.1c-0.2,0-0.6,0-0.9,0c-0.5,0-0.8,0-1.1-0.1c-0.3,0-0.5-0.1-0.7-0.2c-0.2-0.1-0.2-0.2-0.3-0.3
		c0-0.1,0-0.3,0.1-0.5l10.2-28.7c0-0.1,0.1-0.3,0.2-0.4c0.1-0.1,0.2-0.2,0.4-0.2c0.2-0.1,0.4-0.1,0.6-0.1c0.3,0,0.6,0,0.9,0
		c0.5,0,0.9,0,1.2,0.1c0.3,0,0.5,0.1,0.7,0.2c0.1,0.1,0.2,0.2,0.3,0.3C366,476.5,366,476.7,365.9,476.9z M394.8,492.9
		c0,1.4-0.2,2.6-0.6,3.6c-0.4,1.1-1,2-1.8,2.7c-0.8,0.7-1.7,1.3-2.9,1.7c-1.1,0.4-2.4,0.6-3.9,0.6c-1.4,0-2.6-0.2-3.7-0.5
		c-1.1-0.3-2-0.9-2.8-1.6c-0.8-0.7-1.3-1.6-1.8-2.6c-0.4-1.1-0.6-2.3-0.6-3.7v-13.5c0-0.1,0-0.2,0.1-0.3c0.1-0.1,0.2-0.2,0.4-0.2
		s0.4-0.1,0.7-0.1c0.3,0,0.6-0.1,1.1-0.1c0.4,0,0.8,0,1.1,0.1c0.3,0,0.5,0.1,0.7,0.1c0.2,0.1,0.3,0.1,0.4,0.2
		c0.1,0.1,0.1,0.2,0.1,0.3v13.1c0,0.9,0.1,1.6,0.3,2.3c0.2,0.6,0.5,1.2,0.9,1.6c0.4,0.4,0.9,0.7,1.5,0.9c0.6,0.2,1.2,0.3,1.9,0.3
		c0.7,0,1.3-0.1,1.9-0.3c0.6-0.2,1-0.5,1.4-0.9c0.4-0.4,0.7-0.9,0.9-1.5c0.2-0.6,0.3-1.3,0.3-2.1v-13.3c0-0.1,0-0.2,0.1-0.3
		c0.1-0.1,0.2-0.2,0.4-0.2s0.4-0.1,0.7-0.1c0.3,0,0.7-0.1,1.1-0.1c0.4,0,0.8,0,1.1,0.1c0.3,0,0.5,0.1,0.7,0.1s0.3,0.1,0.4,0.2
		c0.1,0.1,0.1,0.2,0.1,0.3V492.9z M413.9,500.6c0,0.1,0,0.2-0.1,0.3c-0.1,0.1-0.2,0.2-0.3,0.2c-0.2,0.1-0.4,0.1-0.7,0.1s-0.6,0-1,0
		c-0.4,0-0.8,0-1.1,0s-0.5-0.1-0.7-0.1c-0.2-0.1-0.3-0.1-0.3-0.2c-0.1-0.1-0.1-0.2-0.1-0.3v-8.7c0-0.7-0.1-1.3-0.2-1.7
		c-0.1-0.4-0.3-0.8-0.5-1.1c-0.2-0.3-0.5-0.5-0.8-0.7c-0.3-0.2-0.7-0.2-1.1-0.2c-0.5,0-1.1,0.2-1.7,0.6c-0.6,0.4-1.1,1-1.7,1.7v10.1
		c0,0.1,0,0.2-0.1,0.3c-0.1,0.1-0.2,0.2-0.4,0.2c-0.2,0.1-0.4,0.1-0.7,0.1s-0.6,0-1,0c-0.4,0-0.8,0-1,0s-0.5-0.1-0.7-0.1
		c-0.2-0.1-0.3-0.1-0.4-0.2c-0.1-0.1-0.1-0.2-0.1-0.3v-15.2c0-0.1,0-0.2,0.1-0.3c0.1-0.1,0.2-0.2,0.3-0.2c0.1-0.1,0.3-0.1,0.6-0.1
		c0.2,0,0.5,0,0.9,0c0.4,0,0.7,0,0.9,0c0.2,0,0.4,0.1,0.6,0.1c0.1,0.1,0.2,0.1,0.3,0.2c0.1,0.1,0.1,0.2,0.1,0.3v1.8
		c0.8-0.9,1.7-1.6,2.6-2.1c0.9-0.5,1.8-0.7,2.7-0.7c1,0,1.9,0.2,2.6,0.5c0.7,0.3,1.3,0.8,1.7,1.4s0.8,1.3,0.9,2.1
		c0.2,0.8,0.3,1.7,0.3,2.8V500.6z M422.4,500.6c0,0.1,0,0.2-0.1,0.3c-0.1,0.1-0.2,0.2-0.4,0.2c-0.2,0.1-0.4,0.1-0.7,0.1s-0.6,0-1,0
		c-0.4,0-0.8,0-1,0s-0.5-0.1-0.7-0.1c-0.2-0.1-0.3-0.1-0.4-0.2c-0.1-0.1-0.1-0.2-0.1-0.3v-15.2c0-0.1,0-0.2,0.1-0.3
		c0.1-0.1,0.2-0.2,0.4-0.2c0.2-0.1,0.4-0.1,0.7-0.1c0.3,0,0.6-0.1,1-0.1c0.4,0,0.8,0,1,0.1c0.3,0,0.5,0.1,0.7,0.1
		c0.2,0.1,0.3,0.1,0.4,0.2c0.1,0.1,0.1,0.2,0.1,0.3V500.6z M422.2,481.9c-0.4,0.3-1,0.5-2,0.5c-1,0-1.6-0.2-2-0.5
		c-0.3-0.3-0.5-0.9-0.5-1.7c0-0.9,0.2-1.5,0.5-1.8c0.3-0.3,1-0.5,2-0.5c1,0,1.6,0.2,1.9,0.5c0.3,0.3,0.5,0.9,0.5,1.7
		C422.8,481,422.6,481.6,422.2,481.9z M432.1,497.2c0.3,0.4,0.7,0.6,1.4,0.6c0.2,0,0.4,0,0.6-0.1c0.2,0,0.3-0.1,0.5-0.1
		c0.1-0.1,0.3-0.1,0.4-0.1c0.1,0,0.2-0.1,0.3-0.1c0.1,0,0.1,0,0.2,0.1c0.1,0,0.1,0.1,0.1,0.2c0,0.1,0.1,0.3,0.1,0.5s0,0.5,0,0.8
		c0,0.5,0,0.9-0.1,1.2c-0.1,0.3-0.1,0.5-0.2,0.6s-0.3,0.2-0.5,0.3c-0.2,0.1-0.4,0.2-0.7,0.2c-0.3,0.1-0.6,0.1-0.9,0.1
		c-0.3,0-0.6,0.1-0.9,0.1c-0.9,0-1.6-0.1-2.2-0.3c-0.6-0.2-1.1-0.5-1.6-1s-0.7-1-0.9-1.7c-0.2-0.7-0.3-1.5-0.3-2.4v-7.8h-1.8
		c-0.2,0-0.4-0.1-0.5-0.4c-0.1-0.3-0.2-0.7-0.2-1.3c0-0.3,0-0.6,0-0.8c0-0.2,0.1-0.4,0.1-0.5c0.1-0.1,0.1-0.2,0.2-0.3
		c0.1-0.1,0.2-0.1,0.3-0.1h1.8v-3.4c0-0.1,0-0.2,0.1-0.3c0.1-0.1,0.2-0.2,0.3-0.2c0.2-0.1,0.4-0.1,0.7-0.1c0.3,0,0.6,0,1,0
		c0.4,0,0.8,0,1.1,0c0.3,0,0.5,0.1,0.7,0.1c0.2,0.1,0.3,0.1,0.3,0.2c0.1,0.1,0.1,0.2,0.1,0.3v3.4h3.3c0.1,0,0.2,0,0.3,0.1
		c0.1,0.1,0.2,0.2,0.2,0.3c0.1,0.1,0.1,0.3,0.1,0.5c0,0.2,0,0.5,0,0.8c0,0.6-0.1,1.1-0.2,1.3c-0.1,0.3-0.3,0.4-0.5,0.4h-3.3v7.2
		C431.7,496.2,431.9,496.8,432.1,497.2z M461,494.8c-0.3,1.4-0.8,2.6-1.4,3.6c-0.6,1-1.5,1.8-2.5,2.3c-1,0.5-2.3,0.8-3.8,0.8
		c-1.5,0-2.8-0.3-3.8-0.8c-1-0.5-1.8-1.3-2.4-2.2c-0.6-1-1-2.2-1.2-3.6c-0.2-1.4-0.3-3-0.3-4.8c0-1.8,0.1-3.3,0.4-4.8
		c0.3-1.4,0.8-2.6,1.4-3.6c0.6-1,1.5-1.8,2.5-2.3c1-0.5,2.3-0.8,3.8-0.8c1.5,0,2.8,0.3,3.8,0.8c1,0.5,1.8,1.3,2.4,2.2
		c0.6,1,1,2.2,1.2,3.6c0.2,1.4,0.3,3,0.3,4.8C461.4,491.8,461.3,493.4,461,494.8z M478,497.6c-0.4,0.9-1,1.6-1.8,2.2
		c-0.8,0.6-1.7,1-2.7,1.3c-1,0.3-2.2,0.5-3.4,0.5c-0.8,0-1.5-0.1-2.1-0.2c-0.7-0.1-1.2-0.2-1.8-0.4c-0.5-0.2-0.9-0.3-1.3-0.5
		c-0.3-0.2-0.5-0.3-0.6-0.4c-0.1-0.1-0.2-0.2-0.2-0.3c-0.1-0.1-0.1-0.2-0.1-0.4c0-0.2-0.1-0.3-0.1-0.6c0-0.2,0-0.5,0-0.8
		c0-0.5,0-0.9,0.1-1.1c0.1-0.2,0.2-0.3,0.4-0.3c0.1,0,0.3,0.1,0.6,0.2c0.3,0.2,0.6,0.3,1.1,0.5c0.4,0.2,0.9,0.3,1.5,0.5
		c0.6,0.2,1.2,0.2,2,0.2c0.6,0,1.2-0.1,1.7-0.2c0.5-0.1,0.9-0.4,1.2-0.6c0.3-0.3,0.6-0.6,0.8-1s0.2-0.8,0.2-1.3c0-0.5-0.1-1-0.3-1.4
		c-0.2-0.4-0.5-0.8-0.9-1.1c-0.4-0.3-0.9-0.5-1.5-0.7c-0.6-0.2-1.3-0.2-2.1-0.2h-1.9c-0.1,0-0.3,0-0.4-0.1s-0.2-0.1-0.3-0.2
		c-0.1-0.1-0.1-0.3-0.1-0.5c0-0.2,0-0.5,0-0.9c0-0.3,0-0.6,0-0.8c0-0.2,0.1-0.4,0.1-0.5c0.1-0.1,0.1-0.2,0.2-0.2
		c0.1,0,0.2-0.1,0.3-0.1h1.9c0.7,0,1.2-0.1,1.8-0.2c0.5-0.2,0.9-0.4,1.3-0.7c0.3-0.3,0.6-0.6,0.8-1c0.2-0.4,0.3-0.9,0.3-1.3
		c0-0.4-0.1-0.7-0.2-1.1c-0.1-0.3-0.3-0.6-0.6-0.9s-0.6-0.4-0.9-0.6c-0.4-0.1-0.8-0.2-1.4-0.2c-0.6,0-1.2,0.1-1.7,0.3
		c-0.5,0.2-1,0.4-1.4,0.6c-0.4,0.2-0.8,0.4-1.1,0.6c-0.3,0.2-0.5,0.3-0.6,0.3c-0.1,0-0.2,0-0.2-0.1s-0.1-0.1-0.2-0.2
		c0-0.1-0.1-0.3-0.1-0.5c0-0.2,0-0.5,0-0.8c0-0.3,0-0.5,0-0.7c0-0.2,0-0.3,0.1-0.5c0-0.1,0.1-0.2,0.1-0.3c0.1-0.1,0.1-0.2,0.2-0.3
		c0.1-0.1,0.3-0.3,0.7-0.5c0.4-0.2,0.8-0.4,1.3-0.6c0.5-0.2,1.2-0.4,1.9-0.5c0.7-0.1,1.5-0.2,2.3-0.2c1.1,0,2,0.1,2.8,0.4
		c0.8,0.3,1.5,0.6,2.1,1.1c0.6,0.5,1,1.1,1.3,1.7c0.3,0.7,0.4,1.5,0.4,2.3c0,0.7-0.1,1.3-0.3,1.9c-0.2,0.6-0.4,1.1-0.8,1.6
		c-0.3,0.5-0.7,0.8-1.2,1.2c-0.5,0.3-1.1,0.6-1.7,0.7v0.1c0.8,0.1,1.5,0.3,2.1,0.6c0.6,0.3,1.1,0.7,1.6,1.1c0.4,0.5,0.8,1,1,1.5
		c0.2,0.6,0.3,1.2,0.3,1.9C478.6,495.8,478.4,496.7,478,497.6z"/>
</g>
<g>
	<path class="unit04" d="M328.3,553.6c-0.1-0.6-0.3-1.1-0.4-1.5c-0.2-0.4-0.4-0.7-0.6-1c-0.3-0.2-0.5-0.4-0.9-0.5
		c-0.3-0.1-0.7-0.2-1.1-0.2c-0.7,0-1.2,0.2-1.7,0.5c-0.4,0.3-0.8,0.8-1,1.5c-0.3,0.6-0.4,1.5-0.5,2.4c-0.1,1-0.2,2.1-0.2,3.4
		c0,1.6,0.1,2.9,0.2,3.9c0.1,1,0.3,1.9,0.6,2.5c0.3,0.6,0.6,1,1,1.3c0.4,0.2,0.9,0.4,1.5,0.4c0.4,0,0.8-0.1,1.2-0.2
		c0.3-0.1,0.6-0.4,0.9-0.6c0.3-0.3,0.5-0.6,0.6-1.1c0.2-0.4,0.3-0.9,0.4-1.5c0.1-0.6,0.2-1.2,0.2-1.9s0.1-1.5,0.1-2.4
		c0-1,0-2-0.1-2.8C328.5,554.9,328.4,554.2,328.3,553.6z"/>
	<path class="unit04" d="M246.3,552.9c-0.5-0.7-1.2-1.2-2.1-1.5c-0.8-0.4-2-0.6-3.3-0.6h-2.3v15h2.3c1.2,0,2.3-0.2,3.1-0.5
		c0.8-0.3,1.5-0.8,2.1-1.4c0.6-0.6,1-1.4,1.3-2.4s0.4-2.1,0.4-3.3c0-1-0.1-2-0.4-2.9C247.2,554.4,246.8,553.6,246.3,552.9z"/>
	<path class="unit04" d="M224.4,552.7c-0.4-0.7-1-1.2-1.8-1.6c-0.7-0.4-1.6-0.6-2.7-0.6c-1.1,0-2,0.2-2.8,0.6c-0.7,0.4-1.3,1-1.8,1.7
		c-0.5,0.7-0.8,1.5-1,2.4c-0.2,0.9-0.3,1.9-0.3,2.9c0,1.2,0.1,2.3,0.3,3.3c0.2,1,0.5,1.8,0.9,2.5c0.4,0.7,1,1.2,1.7,1.6
		c0.7,0.4,1.6,0.5,2.8,0.5c1.1,0,2-0.2,2.8-0.6c0.7-0.4,1.3-1,1.8-1.7c0.5-0.7,0.8-1.5,1-2.5c0.2-0.9,0.3-1.9,0.3-3
		c0-1.2-0.1-2.2-0.3-3.2C225.2,554.2,224.9,553.4,224.4,552.7z"/>
	<path class="unit04" d="M457,553.6c-0.1-0.6-0.3-1.1-0.4-1.5c-0.2-0.4-0.4-0.7-0.6-1c-0.3-0.2-0.5-0.4-0.9-0.5
		c-0.3-0.1-0.7-0.2-1.1-0.2c-0.7,0-1.2,0.2-1.7,0.5c-0.4,0.3-0.8,0.8-1,1.5c-0.3,0.6-0.4,1.5-0.5,2.4c-0.1,1-0.2,2.1-0.2,3.4
		c0,1.6,0.1,2.9,0.2,3.9c0.1,1,0.3,1.9,0.6,2.5c0.3,0.6,0.6,1,1,1.3c0.4,0.2,0.9,0.4,1.5,0.4c0.4,0,0.8-0.1,1.2-0.2
		c0.3-0.1,0.6-0.4,0.9-0.6c0.3-0.3,0.5-0.6,0.6-1.1c0.2-0.4,0.3-0.9,0.4-1.5c0.1-0.6,0.2-1.2,0.2-1.9s0.1-1.5,0.1-2.4
		c0-1,0-2-0.1-2.8C457.2,554.9,457.1,554.2,457,553.6z"/>
	<polygon class="unit04" points="338.4,561.3 344.2,561.3 344.2,551.1 344.2,551.1 	"/>
	<polygon class="unit04" points="467.1,561.3 472.9,561.3 472.9,551.1 472.9,551.1 	"/>
	<path class="unit04" d="M171.1,530.3L171.1,530.3c-16.7,0.1-30.2,13.6-30.2,30.3s13.5,30.2,30.2,30.2h331.7v-60.5H171.1z M205.6,568.8
		c0,0.1,0,0.2-0.1,0.3c-0.1,0.1-0.2,0.2-0.3,0.2c-0.2,0.1-0.4,0.1-0.7,0.1c-0.3,0-0.6,0.1-1,0.1c-0.4,0-0.8,0-1-0.1
		c-0.3,0-0.5-0.1-0.6-0.1c-0.2-0.1-0.3-0.1-0.3-0.2c-0.1-0.1-0.1-0.2-0.1-0.3v-18h0l-6.4,18c0,0.1-0.1,0.3-0.2,0.4s-0.2,0.2-0.4,0.2
		s-0.4,0.1-0.7,0.1c-0.3,0-0.6,0-1,0c-0.4,0-0.7,0-1,0s-0.5-0.1-0.7-0.1c-0.2-0.1-0.3-0.1-0.4-0.2c-0.1-0.1-0.2-0.2-0.2-0.3l-6.2-18
		h0v18c0,0.1,0,0.2-0.1,0.3c-0.1,0.1-0.2,0.2-0.4,0.2c-0.2,0.1-0.4,0.1-0.7,0.1c-0.3,0-0.6,0.1-1,0.1c-0.4,0-0.8,0-1-0.1
		c-0.3,0-0.5-0.1-0.7-0.1c-0.2-0.1-0.3-0.1-0.3-0.2c-0.1-0.1-0.1-0.2-0.1-0.3v-19.7c0-0.6,0.2-1,0.5-1.3c0.3-0.3,0.7-0.5,1.2-0.5
		h2.9c0.5,0,1,0,1.4,0.1c0.4,0.1,0.7,0.2,1,0.4s0.5,0.5,0.7,0.8c0.2,0.3,0.3,0.7,0.5,1.2l4.8,13.2h0.1l5-13.1
		c0.1-0.5,0.3-0.9,0.5-1.2c0.2-0.3,0.4-0.6,0.6-0.8c0.2-0.2,0.5-0.3,0.8-0.4c0.3-0.1,0.7-0.1,1.1-0.1h3c0.3,0,0.6,0,0.8,0.1
		c0.2,0.1,0.4,0.2,0.5,0.3c0.1,0.2,0.3,0.3,0.3,0.6c0.1,0.2,0.1,0.5,0.1,0.8V568.8z M229.7,563c-0.5,1.4-1.1,2.7-2,3.7
		c-0.9,1-2,1.8-3.3,2.3c-1.3,0.5-2.9,0.8-4.6,0.8c-1.7,0-3.2-0.2-4.5-0.7c-1.3-0.4-2.3-1.1-3.2-2.1c-0.9-0.9-1.5-2.1-1.9-3.5
		c-0.4-1.4-0.6-3.1-0.6-5.1c0-1.8,0.2-3.4,0.7-4.8c0.5-1.4,1.1-2.6,2-3.6c0.9-1,2-1.8,3.3-2.3c1.3-0.5,2.9-0.8,4.6-0.8
		c1.7,0,3.2,0.2,4.4,0.7c1.3,0.4,2.4,1.1,3.2,2.1c0.9,0.9,1.5,2.1,1.9,3.5c0.4,1.4,0.7,3.1,0.7,5C230.3,560,230.1,561.6,229.7,563z
		 M251.7,563.3c-0.5,1.4-1.3,2.6-2.3,3.5c-1,0.9-2.2,1.6-3.6,2c-1.4,0.4-3.1,0.6-5.1,0.6h-5.3c-0.4,0-0.7-0.1-0.9-0.3
		c-0.3-0.2-0.4-0.6-0.4-1.1v-19.3c0-0.5,0.1-0.9,0.4-1.1c0.3-0.2,0.6-0.3,0.9-0.3h5.7c2,0,3.6,0.2,5,0.7c1.4,0.5,2.5,1.1,3.5,2.1
		c0.9,0.9,1.7,2,2.1,3.4c0.5,1.3,0.7,2.9,0.7,4.6C252.5,560.1,252.2,561.8,251.7,563.3z M274.2,561.2c0,1.4-0.2,2.6-0.6,3.6
		c-0.4,1.1-1,2-1.8,2.7c-0.8,0.7-1.7,1.3-2.9,1.7c-1.1,0.4-2.4,0.6-3.9,0.6c-1.4,0-2.6-0.2-3.7-0.5c-1.1-0.3-2-0.9-2.8-1.6
		c-0.8-0.7-1.3-1.6-1.8-2.6c-0.4-1.1-0.6-2.3-0.6-3.7v-13.5c0-0.1,0-0.2,0.1-0.3c0.1-0.1,0.2-0.2,0.4-0.2s0.4-0.1,0.7-0.1
		c0.3,0,0.6-0.1,1.1-0.1c0.4,0,0.8,0,1.1,0.1c0.3,0,0.5,0.1,0.7,0.1c0.2,0.1,0.3,0.1,0.4,0.2c0.1,0.1,0.1,0.2,0.1,0.3V561
		c0,0.9,0.1,1.6,0.3,2.3c0.2,0.6,0.5,1.2,0.9,1.6c0.4,0.4,0.9,0.7,1.5,0.9c0.6,0.2,1.2,0.3,1.9,0.3c0.7,0,1.3-0.1,1.9-0.3
		c0.6-0.2,1-0.5,1.4-0.9c0.4-0.4,0.7-0.9,0.9-1.5c0.2-0.6,0.3-1.3,0.3-2.1v-13.3c0-0.1,0-0.2,0.1-0.3c0.1-0.1,0.2-0.2,0.4-0.2
		s0.4-0.1,0.7-0.1c0.3,0,0.7-0.1,1.1-0.1c0.4,0,0.8,0,1.1,0.1c0.3,0,0.5,0.1,0.7,0.1s0.3,0.1,0.4,0.2c0.1,0.1,0.1,0.2,0.1,0.3V561.2
		z M291.1,568.4c0,0.2-0.1,0.4-0.1,0.6c-0.1,0.2-0.1,0.3-0.2,0.3c-0.1,0.1-0.2,0.1-0.3,0.1h-10.1c-0.4,0-0.7-0.1-0.9-0.3
		c-0.3-0.2-0.4-0.6-0.4-1.1v-20.1c0-0.1,0-0.2,0.1-0.3c0.1-0.1,0.2-0.2,0.4-0.2c0.2-0.1,0.4-0.1,0.7-0.1c0.3,0,0.7-0.1,1.1-0.1
		c0.4,0,0.8,0,1.1,0.1c0.3,0,0.5,0.1,0.7,0.1c0.2,0.1,0.3,0.1,0.4,0.2c0.1,0.1,0.1,0.2,0.1,0.3v17.8h7c0.1,0,0.2,0,0.3,0.1
		c0.1,0.1,0.2,0.2,0.2,0.3c0.1,0.1,0.1,0.3,0.1,0.6c0,0.2,0,0.5,0,0.9S291.2,568.2,291.1,568.4z M306.9,568.5c0,0.2-0.1,0.4-0.1,0.5
		c-0.1,0.1-0.1,0.2-0.2,0.3c-0.1,0.1-0.2,0.1-0.3,0.1h-11.1c-0.4,0-0.7-0.1-0.9-0.3c-0.3-0.2-0.4-0.6-0.4-1.1v-19.3
		c0-0.5,0.1-0.9,0.4-1.1c0.3-0.2,0.6-0.3,0.9-0.3h11c0.1,0,0.2,0,0.3,0.1c0.1,0.1,0.1,0.2,0.2,0.3c0.1,0.1,0.1,0.3,0.1,0.5
		c0,0.2,0,0.5,0,0.8c0,0.3,0,0.6,0,0.8c0,0.2-0.1,0.4-0.1,0.5c-0.1,0.1-0.1,0.2-0.2,0.3c-0.1,0.1-0.2,0.1-0.3,0.1h-7.9v5.4h6.7
		c0.1,0,0.2,0,0.3,0.1c0.1,0.1,0.2,0.2,0.2,0.3c0.1,0.1,0.1,0.3,0.1,0.5c0,0.2,0,0.5,0,0.8c0,0.3,0,0.6,0,0.8c0,0.2-0.1,0.4-0.1,0.5
		c-0.1,0.1-0.1,0.2-0.2,0.3c-0.1,0.1-0.2,0.1-0.3,0.1h-6.7v6.2h8c0.1,0,0.2,0,0.3,0.1c0.1,0.1,0.2,0.2,0.2,0.3
		c0.1,0.1,0.1,0.3,0.1,0.5c0,0.2,0,0.5,0,0.8C306.9,568,306.9,568.3,306.9,568.5z M332.8,563.1c-0.3,1.4-0.8,2.6-1.4,3.6
		c-0.6,1-1.5,1.8-2.5,2.3c-1,0.5-2.3,0.8-3.8,0.8c-1.5,0-2.8-0.3-3.8-0.8c-1-0.5-1.8-1.3-2.4-2.2c-0.6-1-1-2.2-1.2-3.6
		c-0.2-1.4-0.3-3-0.3-4.8c0-1.8,0.1-3.3,0.4-4.8c0.3-1.4,0.8-2.6,1.4-3.6c0.6-1,1.5-1.8,2.5-2.3c1-0.5,2.3-0.8,3.8-0.8
		c1.5,0,2.8,0.3,3.8,0.8c1,0.5,1.8,1.3,2.4,2.2c0.6,1,1,2.2,1.2,3.6c0.2,1.4,0.3,3,0.3,4.8C333.2,560.1,333,561.6,332.8,563.1z
		 M351,564.4c-0.1,0.3-0.3,0.5-0.5,0.5h-2v4c0,0.1,0,0.2-0.1,0.3c-0.1,0.1-0.2,0.2-0.4,0.2c-0.2,0.1-0.4,0.1-0.7,0.1s-0.6,0-1.1,0
		c-0.4,0-0.8,0-1,0s-0.5-0.1-0.7-0.1c-0.2-0.1-0.3-0.1-0.3-0.2c-0.1-0.1-0.1-0.2-0.1-0.3v-4h-8.5c-0.2,0-0.3,0-0.4-0.1
		c-0.1,0-0.2-0.1-0.3-0.3c-0.1-0.1-0.1-0.3-0.2-0.6s-0.1-0.6-0.1-1.1c0-0.4,0-0.7,0-0.9c0-0.3,0-0.5,0.1-0.7c0-0.2,0.1-0.4,0.2-0.6
		c0.1-0.2,0.2-0.4,0.3-0.6l6.9-12.1c0.1-0.1,0.2-0.2,0.3-0.3c0.1-0.1,0.3-0.1,0.6-0.2c0.2-0.1,0.6-0.1,0.9-0.1c0.4,0,0.8,0,1.4,0
		c0.6,0,1.1,0,1.5,0s0.7,0.1,1,0.1c0.2,0.1,0.4,0.1,0.5,0.2c0.1,0.1,0.2,0.2,0.2,0.3v13.3h2c0.2,0,0.3,0.1,0.5,0.4
		c0.1,0.3,0.2,0.7,0.2,1.4C351.2,563.7,351.1,564.1,351,564.4z M366.4,545.1l-10.2,28.7c-0.1,0.1-0.1,0.3-0.2,0.4
		c-0.1,0.1-0.2,0.2-0.4,0.2c-0.2,0.1-0.4,0.1-0.6,0.1c-0.2,0-0.6,0-0.9,0c-0.5,0-0.8,0-1.1-0.1c-0.3,0-0.5-0.1-0.7-0.2
		c-0.2-0.1-0.2-0.2-0.3-0.3c0-0.1,0-0.3,0.1-0.5l10.2-28.7c0-0.1,0.1-0.3,0.2-0.4c0.1-0.1,0.2-0.2,0.4-0.2c0.2-0.1,0.4-0.1,0.6-0.1
		c0.3,0,0.6,0,0.9,0c0.5,0,0.9,0,1.2,0.1c0.3,0,0.5,0.1,0.7,0.2c0.1,0.1,0.2,0.2,0.3,0.3C366.5,544.8,366.5,545,366.4,545.1z
		 M395.3,561.2c0,1.4-0.2,2.6-0.6,3.6c-0.4,1.1-1,2-1.8,2.7c-0.8,0.7-1.7,1.3-2.9,1.7c-1.1,0.4-2.4,0.6-3.9,0.6
		c-1.4,0-2.6-0.2-3.7-0.5c-1.1-0.3-2-0.9-2.8-1.6c-0.8-0.7-1.3-1.6-1.8-2.6c-0.4-1.1-0.6-2.3-0.6-3.7v-13.5c0-0.1,0-0.2,0.1-0.3
		c0.1-0.1,0.2-0.2,0.4-0.2s0.4-0.1,0.7-0.1c0.3,0,0.6-0.1,1.1-0.1c0.4,0,0.8,0,1.1,0.1c0.3,0,0.5,0.1,0.7,0.1
		c0.2,0.1,0.3,0.1,0.4,0.2c0.1,0.1,0.1,0.2,0.1,0.3V561c0,0.9,0.1,1.6,0.3,2.3c0.2,0.6,0.5,1.2,0.9,1.6c0.4,0.4,0.9,0.7,1.5,0.9
		c0.6,0.2,1.2,0.3,1.9,0.3c0.7,0,1.3-0.1,1.9-0.3c0.6-0.2,1-0.5,1.4-0.9c0.4-0.4,0.7-0.9,0.9-1.5c0.2-0.6,0.3-1.3,0.3-2.1v-13.3
		c0-0.1,0-0.2,0.1-0.3c0.1-0.1,0.2-0.2,0.4-0.2s0.4-0.1,0.7-0.1c0.3,0,0.7-0.1,1.1-0.1c0.4,0,0.8,0,1.1,0.1c0.3,0,0.5,0.1,0.7,0.1
		s0.3,0.1,0.4,0.2c0.1,0.1,0.1,0.2,0.1,0.3V561.2z M414.4,568.8c0,0.1,0,0.2-0.1,0.3c-0.1,0.1-0.2,0.2-0.3,0.2
		c-0.2,0.1-0.4,0.1-0.7,0.1s-0.6,0-1,0c-0.4,0-0.8,0-1.1,0s-0.5-0.1-0.7-0.1c-0.2-0.1-0.3-0.1-0.3-0.2c-0.1-0.1-0.1-0.2-0.1-0.3
		v-8.7c0-0.7-0.1-1.3-0.2-1.7c-0.1-0.4-0.3-0.8-0.5-1.1c-0.2-0.3-0.5-0.5-0.8-0.7c-0.3-0.2-0.7-0.2-1.1-0.2c-0.5,0-1.1,0.2-1.7,0.6
		c-0.6,0.4-1.1,1-1.7,1.7v10.1c0,0.1,0,0.2-0.1,0.3c-0.1,0.1-0.2,0.2-0.4,0.2c-0.2,0.1-0.4,0.1-0.7,0.1s-0.6,0-1,0c-0.4,0-0.8,0-1,0
		s-0.5-0.1-0.7-0.1c-0.2-0.1-0.3-0.1-0.4-0.2c-0.1-0.1-0.1-0.2-0.1-0.3v-15.2c0-0.1,0-0.2,0.1-0.3c0.1-0.1,0.2-0.2,0.3-0.2
		c0.1-0.1,0.3-0.1,0.6-0.1c0.2,0,0.5,0,0.9,0c0.4,0,0.7,0,0.9,0c0.2,0,0.4,0.1,0.6,0.1c0.1,0.1,0.2,0.1,0.3,0.2
		c0.1,0.1,0.1,0.2,0.1,0.3v1.8c0.8-0.9,1.7-1.6,2.6-2.1c0.9-0.5,1.8-0.7,2.7-0.7c1,0,1.9,0.2,2.6,0.5c0.7,0.3,1.3,0.8,1.7,1.4
		s0.8,1.3,0.9,2.1c0.2,0.8,0.3,1.7,0.3,2.8V568.8z M422.9,568.8c0,0.1,0,0.2-0.1,0.3c-0.1,0.1-0.2,0.2-0.4,0.2
		c-0.2,0.1-0.4,0.1-0.7,0.1s-0.6,0-1,0c-0.4,0-0.8,0-1,0s-0.5-0.1-0.7-0.1c-0.2-0.1-0.3-0.1-0.4-0.2c-0.1-0.1-0.1-0.2-0.1-0.3v-15.2
		c0-0.1,0-0.2,0.1-0.3c0.1-0.1,0.2-0.2,0.4-0.2c0.2-0.1,0.4-0.1,0.7-0.1c0.3,0,0.6-0.1,1-0.1c0.4,0,0.8,0,1,0.1
		c0.3,0,0.5,0.1,0.7,0.1c0.2,0.1,0.3,0.1,0.4,0.2c0.1,0.1,0.1,0.2,0.1,0.3V568.8z M422.7,550.2c-0.4,0.3-1,0.5-2,0.5
		c-1,0-1.6-0.2-2-0.5c-0.3-0.3-0.5-0.9-0.5-1.7c0-0.9,0.2-1.5,0.5-1.8c0.3-0.3,1-0.5,2-0.5c1,0,1.6,0.2,1.9,0.5
		c0.3,0.3,0.5,0.9,0.5,1.7C423.3,549.3,423.1,549.9,422.7,550.2z M432.6,565.5c0.3,0.4,0.7,0.6,1.4,0.6c0.2,0,0.4,0,0.6-0.1
		c0.2,0,0.3-0.1,0.5-0.1c0.1-0.1,0.3-0.1,0.4-0.1c0.1,0,0.2-0.1,0.3-0.1c0.1,0,0.1,0,0.2,0.1c0.1,0,0.1,0.1,0.1,0.2
		c0,0.1,0.1,0.3,0.1,0.5s0,0.5,0,0.8c0,0.5,0,0.9-0.1,1.2c-0.1,0.3-0.1,0.5-0.2,0.6s-0.3,0.2-0.5,0.3c-0.2,0.1-0.4,0.2-0.7,0.2
		c-0.3,0.1-0.6,0.1-0.9,0.1c-0.3,0-0.6,0.1-0.9,0.1c-0.9,0-1.6-0.1-2.2-0.3c-0.6-0.2-1.1-0.5-1.6-1s-0.7-1-0.9-1.7
		c-0.2-0.7-0.3-1.5-0.3-2.4v-7.8h-1.8c-0.2,0-0.4-0.1-0.5-0.4c-0.1-0.3-0.2-0.7-0.2-1.3c0-0.3,0-0.6,0-0.8c0-0.2,0.1-0.4,0.1-0.5
		c0.1-0.1,0.1-0.2,0.2-0.3c0.1-0.1,0.2-0.1,0.3-0.1h1.8v-3.4c0-0.1,0-0.2,0.1-0.3c0.1-0.1,0.2-0.2,0.3-0.2c0.2-0.1,0.4-0.1,0.7-0.1
		c0.3,0,0.6,0,1,0c0.4,0,0.8,0,1.1,0c0.3,0,0.5,0.1,0.7,0.1c0.2,0.1,0.3,0.1,0.3,0.2c0.1,0.1,0.1,0.2,0.1,0.3v3.4h3.3
		c0.1,0,0.2,0,0.3,0.1c0.1,0.1,0.2,0.2,0.2,0.3c0.1,0.1,0.1,0.3,0.1,0.5c0,0.2,0,0.5,0,0.8c0,0.6-0.1,1.1-0.2,1.3
		c-0.1,0.3-0.3,0.4-0.5,0.4h-3.3v7.2C432.2,564.5,432.4,565.1,432.6,565.5z M461.5,563.1c-0.3,1.4-0.8,2.6-1.4,3.6
		c-0.6,1-1.5,1.8-2.5,2.3c-1,0.5-2.3,0.8-3.8,0.8c-1.5,0-2.8-0.3-3.8-0.8c-1-0.5-1.8-1.3-2.4-2.2c-0.6-1-1-2.2-1.2-3.6
		c-0.2-1.4-0.3-3-0.3-4.8c0-1.8,0.1-3.3,0.4-4.8c0.3-1.4,0.8-2.6,1.4-3.6c0.6-1,1.5-1.8,2.5-2.3c1-0.5,2.3-0.8,3.8-0.8
		c1.5,0,2.8,0.3,3.8,0.8c1,0.5,1.8,1.3,2.4,2.2c0.6,1,1,2.2,1.2,3.6c0.2,1.4,0.3,3,0.3,4.8C461.9,560.1,461.8,561.6,461.5,563.1z
		 M479.7,564.4c-0.1,0.3-0.3,0.5-0.5,0.5h-2v4c0,0.1,0,0.2-0.1,0.3c-0.1,0.1-0.2,0.2-0.4,0.2c-0.2,0.1-0.4,0.1-0.7,0.1s-0.6,0-1.1,0
		c-0.4,0-0.8,0-1,0s-0.5-0.1-0.7-0.1c-0.2-0.1-0.3-0.1-0.3-0.2c-0.1-0.1-0.1-0.2-0.1-0.3v-4h-8.5c-0.2,0-0.3,0-0.4-0.1
		c-0.1,0-0.2-0.1-0.3-0.3c-0.1-0.1-0.1-0.3-0.2-0.6s-0.1-0.6-0.1-1.1c0-0.4,0-0.7,0-0.9c0-0.3,0-0.5,0.1-0.7c0-0.2,0.1-0.4,0.2-0.6
		c0.1-0.2,0.2-0.4,0.3-0.6l6.9-12.1c0.1-0.1,0.2-0.2,0.3-0.3c0.1-0.1,0.3-0.1,0.6-0.2c0.2-0.1,0.6-0.1,0.9-0.1c0.4,0,0.8,0,1.4,0
		c0.6,0,1.1,0,1.5,0s0.7,0.1,1,0.1c0.2,0.1,0.4,0.1,0.5,0.2c0.1,0.1,0.2,0.2,0.2,0.3v13.3h2c0.2,0,0.3,0.1,0.5,0.4
		c0.1,0.3,0.2,0.7,0.2,1.4C479.9,563.7,479.8,564.1,479.7,564.4z"/>
</g>
<g>
	<path class="unit05" d="M328.3,621.9c-0.1-0.6-0.3-1.1-0.4-1.5c-0.2-0.4-0.4-0.7-0.6-1c-0.3-0.2-0.5-0.4-0.9-0.5
		c-0.3-0.1-0.7-0.2-1.1-0.2c-0.7,0-1.2,0.2-1.7,0.5c-0.4,0.3-0.8,0.8-1,1.5c-0.3,0.6-0.4,1.5-0.5,2.4c-0.1,1-0.2,2.1-0.2,3.4
		c0,1.6,0.1,2.9,0.2,3.9c0.1,1,0.3,1.9,0.6,2.5c0.3,0.6,0.6,1,1,1.3c0.4,0.2,0.9,0.4,1.5,0.4c0.4,0,0.8-0.1,1.2-0.2
		c0.3-0.1,0.6-0.4,0.9-0.6c0.3-0.3,0.5-0.6,0.6-1.1c0.2-0.4,0.3-0.9,0.4-1.5c0.1-0.6,0.2-1.2,0.2-1.9s0.1-1.5,0.1-2.4
		c0-1,0-2-0.1-2.8C328.5,623.2,328.4,622.5,328.3,621.9z"/>
	<path class="unit05" d="M457,621.9c-0.1-0.6-0.3-1.1-0.4-1.5c-0.2-0.4-0.4-0.7-0.6-1c-0.3-0.2-0.5-0.4-0.9-0.5
		c-0.3-0.1-0.7-0.2-1.1-0.2c-0.7,0-1.2,0.2-1.7,0.5c-0.4,0.3-0.8,0.8-1,1.5c-0.3,0.6-0.4,1.5-0.5,2.4c-0.1,1-0.2,2.1-0.2,3.4
		c0,1.6,0.1,2.9,0.2,3.9c0.1,1,0.3,1.9,0.6,2.5c0.3,0.6,0.6,1,1,1.3c0.4,0.2,0.9,0.4,1.5,0.4c0.4,0,0.8-0.1,1.2-0.2
		c0.3-0.1,0.6-0.4,0.9-0.6c0.3-0.3,0.5-0.6,0.6-1.1c0.2-0.4,0.3-0.9,0.4-1.5c0.1-0.6,0.2-1.2,0.2-1.9s0.1-1.5,0.1-2.4
		c0-1,0-2-0.1-2.8C457.2,623.2,457.1,622.5,457,621.9z"/>
	<path class="unit05" d="M246.3,621.2c-0.5-0.7-1.2-1.2-2.1-1.5c-0.8-0.4-2-0.6-3.3-0.6h-2.3v15h2.3c1.2,0,2.3-0.2,3.1-0.5
		c0.8-0.3,1.5-0.8,2.1-1.4c0.6-0.6,1-1.4,1.3-2.4s0.4-2.1,0.4-3.3c0-1-0.1-2-0.4-2.9C247.2,622.7,246.8,621.9,246.3,621.2z"/>
	<path class="unit05" d="M224.4,621c-0.4-0.7-1-1.2-1.8-1.6c-0.7-0.4-1.6-0.6-2.7-0.6c-1.1,0-2,0.2-2.8,0.6c-0.7,0.4-1.3,1-1.8,1.7
		c-0.5,0.7-0.8,1.5-1,2.4c-0.2,0.9-0.3,1.9-0.3,2.9c0,1.2,0.1,2.3,0.3,3.3c0.2,1,0.5,1.8,0.9,2.5c0.4,0.7,1,1.2,1.7,1.6
		c0.7,0.4,1.6,0.5,2.8,0.5c1.1,0,2-0.2,2.8-0.6c0.7-0.4,1.3-1,1.8-1.7c0.5-0.7,0.8-1.5,1-2.5c0.2-0.9,0.3-1.9,0.3-3
		c0-1.2-0.1-2.2-0.3-3.2C225.2,622.5,224.9,621.7,224.4,621z"/>
	<path class="unit05" d="M171.1,599.8L171.1,599.8c-16.7,0.1-30.2,13.6-30.2,30.3s13.5,30.2,30.2,30.2h331.7v-60.5H171.1z M205.6,637.1
		c0,0.1,0,0.2-0.1,0.3c-0.1,0.1-0.2,0.2-0.3,0.2c-0.2,0.1-0.4,0.1-0.7,0.1c-0.3,0-0.6,0.1-1,0.1c-0.4,0-0.8,0-1-0.1
		c-0.3,0-0.5-0.1-0.6-0.1c-0.2-0.1-0.3-0.1-0.3-0.2c-0.1-0.1-0.1-0.2-0.1-0.3v-18h0l-6.4,18c0,0.1-0.1,0.3-0.2,0.4s-0.2,0.2-0.4,0.2
		s-0.4,0.1-0.7,0.1c-0.3,0-0.6,0-1,0c-0.4,0-0.7,0-1,0s-0.5-0.1-0.7-0.1c-0.2-0.1-0.3-0.1-0.4-0.2c-0.1-0.1-0.2-0.2-0.2-0.3l-6.2-18
		h0v18c0,0.1,0,0.2-0.1,0.3c-0.1,0.1-0.2,0.2-0.4,0.2c-0.2,0.1-0.4,0.1-0.7,0.1c-0.3,0-0.6,0.1-1,0.1c-0.4,0-0.8,0-1-0.1
		c-0.3,0-0.5-0.1-0.7-0.1c-0.2-0.1-0.3-0.1-0.3-0.2c-0.1-0.1-0.1-0.2-0.1-0.3v-19.7c0-0.6,0.2-1,0.5-1.3c0.3-0.3,0.7-0.5,1.2-0.5
		h2.9c0.5,0,1,0,1.4,0.1c0.4,0.1,0.7,0.2,1,0.4s0.5,0.5,0.7,0.8c0.2,0.3,0.3,0.7,0.5,1.2l4.8,13.2h0.1l5-13.1
		c0.1-0.5,0.3-0.9,0.5-1.2c0.2-0.3,0.4-0.6,0.6-0.8c0.2-0.2,0.5-0.3,0.8-0.4c0.3-0.1,0.7-0.1,1.1-0.1h3c0.3,0,0.6,0,0.8,0.1
		c0.2,0.1,0.4,0.2,0.5,0.3c0.1,0.2,0.3,0.3,0.3,0.6c0.1,0.2,0.1,0.5,0.1,0.8V637.1z M229.7,631.3c-0.5,1.4-1.1,2.7-2,3.7
		c-0.9,1-2,1.8-3.3,2.3c-1.3,0.5-2.9,0.8-4.6,0.8c-1.7,0-3.2-0.2-4.5-0.7c-1.3-0.4-2.3-1.1-3.2-2.1c-0.9-0.9-1.5-2.1-1.9-3.5
		c-0.4-1.4-0.6-3.1-0.6-5.1c0-1.8,0.2-3.4,0.7-4.8c0.5-1.4,1.1-2.6,2-3.6c0.9-1,2-1.8,3.3-2.3c1.3-0.5,2.9-0.8,4.6-0.8
		c1.7,0,3.2,0.2,4.4,0.7c1.3,0.4,2.4,1.1,3.2,2.1c0.9,0.9,1.5,2.1,1.9,3.5c0.4,1.4,0.7,3.1,0.7,5
		C230.3,628.2,230.1,629.9,229.7,631.3z M251.7,631.5c-0.5,1.4-1.3,2.6-2.3,3.5c-1,0.9-2.2,1.6-3.6,2c-1.4,0.4-3.1,0.6-5.1,0.6h-5.3
		c-0.4,0-0.7-0.1-0.9-0.3c-0.3-0.2-0.4-0.6-0.4-1.1V617c0-0.5,0.1-0.9,0.4-1.1c0.3-0.2,0.6-0.3,0.9-0.3h5.7c2,0,3.6,0.2,5,0.7
		c1.4,0.5,2.5,1.1,3.5,2.1c0.9,0.9,1.7,2,2.1,3.4c0.5,1.3,0.7,2.9,0.7,4.6C252.5,628.4,252.2,630.1,251.7,631.5z M274.2,629.5
		c0,1.4-0.2,2.6-0.6,3.6c-0.4,1.1-1,2-1.8,2.7c-0.8,0.7-1.7,1.3-2.9,1.7c-1.1,0.4-2.4,0.6-3.9,0.6c-1.4,0-2.6-0.2-3.7-0.5
		c-1.1-0.3-2-0.9-2.8-1.6c-0.8-0.7-1.3-1.6-1.8-2.6c-0.4-1.1-0.6-2.3-0.6-3.7v-13.5c0-0.1,0-0.2,0.1-0.3c0.1-0.1,0.2-0.2,0.4-0.2
		s0.4-0.1,0.7-0.1c0.3,0,0.6-0.1,1.1-0.1c0.4,0,0.8,0,1.1,0.1c0.3,0,0.5,0.1,0.7,0.1c0.2,0.1,0.3,0.1,0.4,0.2
		c0.1,0.1,0.1,0.2,0.1,0.3v13.1c0,0.9,0.1,1.6,0.3,2.3c0.2,0.6,0.5,1.2,0.9,1.6c0.4,0.4,0.9,0.7,1.5,0.9c0.6,0.2,1.2,0.3,1.9,0.3
		c0.7,0,1.3-0.1,1.9-0.3c0.6-0.2,1-0.5,1.4-0.9c0.4-0.4,0.7-0.9,0.9-1.5c0.2-0.6,0.3-1.3,0.3-2.1v-13.3c0-0.1,0-0.2,0.1-0.3
		c0.1-0.1,0.2-0.2,0.4-0.2s0.4-0.1,0.7-0.1c0.3,0,0.7-0.1,1.1-0.1c0.4,0,0.8,0,1.1,0.1c0.3,0,0.5,0.1,0.7,0.1s0.3,0.1,0.4,0.2
		c0.1,0.1,0.1,0.2,0.1,0.3V629.5z M291.1,636.7c0,0.2-0.1,0.4-0.1,0.6c-0.1,0.2-0.1,0.3-0.2,0.3c-0.1,0.1-0.2,0.1-0.3,0.1h-10.1
		c-0.4,0-0.7-0.1-0.9-0.3c-0.3-0.2-0.4-0.6-0.4-1.1v-20.1c0-0.1,0-0.2,0.1-0.3c0.1-0.1,0.2-0.2,0.4-0.2c0.2-0.1,0.4-0.1,0.7-0.1
		c0.3,0,0.7-0.1,1.1-0.1c0.4,0,0.8,0,1.1,0.1c0.3,0,0.5,0.1,0.7,0.1c0.2,0.1,0.3,0.1,0.4,0.2c0.1,0.1,0.1,0.2,0.1,0.3V634h7
		c0.1,0,0.2,0,0.3,0.1c0.1,0.1,0.2,0.2,0.2,0.3c0.1,0.1,0.1,0.3,0.1,0.6c0,0.2,0,0.5,0,0.9S291.2,636.5,291.1,636.7z M306.9,636.8
		c0,0.2-0.1,0.4-0.1,0.5c-0.1,0.1-0.1,0.2-0.2,0.3c-0.1,0.1-0.2,0.1-0.3,0.1h-11.1c-0.4,0-0.7-0.1-0.9-0.3c-0.3-0.2-0.4-0.6-0.4-1.1
		V617c0-0.5,0.1-0.9,0.4-1.1c0.3-0.2,0.6-0.3,0.9-0.3h11c0.1,0,0.2,0,0.3,0.1c0.1,0.1,0.1,0.2,0.2,0.3c0.1,0.1,0.1,0.3,0.1,0.5
		c0,0.2,0,0.5,0,0.8c0,0.3,0,0.6,0,0.8c0,0.2-0.1,0.4-0.1,0.5c-0.1,0.1-0.1,0.2-0.2,0.3c-0.1,0.1-0.2,0.1-0.3,0.1h-7.9v5.4h6.7
		c0.1,0,0.2,0,0.3,0.1c0.1,0.1,0.2,0.2,0.2,0.3c0.1,0.1,0.1,0.3,0.1,0.5c0,0.2,0,0.5,0,0.8c0,0.3,0,0.6,0,0.8c0,0.2-0.1,0.4-0.1,0.5
		c-0.1,0.1-0.1,0.2-0.2,0.3c-0.1,0.1-0.2,0.1-0.3,0.1h-6.7v6.2h8c0.1,0,0.2,0,0.3,0.1c0.1,0.1,0.2,0.2,0.2,0.3
		c0.1,0.1,0.1,0.3,0.1,0.5c0,0.2,0,0.5,0,0.8C306.9,636.3,306.9,636.6,306.9,636.8z M332.8,631.4c-0.3,1.4-0.8,2.6-1.4,3.6
		c-0.6,1-1.5,1.8-2.5,2.3c-1,0.5-2.3,0.8-3.8,0.8c-1.5,0-2.8-0.3-3.8-0.8c-1-0.5-1.8-1.3-2.4-2.2c-0.6-1-1-2.2-1.2-3.6
		c-0.2-1.4-0.3-3-0.3-4.8c0-1.8,0.1-3.3,0.4-4.8c0.3-1.4,0.8-2.6,1.4-3.6c0.6-1,1.5-1.8,2.5-2.3c1-0.5,2.3-0.8,3.8-0.8
		c1.5,0,2.8,0.3,3.8,0.8c1,0.5,1.8,1.3,2.4,2.2c0.6,1,1,2.2,1.2,3.6c0.2,1.4,0.3,3,0.3,4.8C333.2,628.3,333,629.9,332.8,631.4z
		 M349.7,633.8c-0.4,0.9-1,1.7-1.8,2.4c-0.8,0.6-1.7,1.1-2.7,1.5c-1.1,0.3-2.2,0.5-3.5,0.5c-0.7,0-1.3,0-1.9-0.1
		c-0.6-0.1-1.2-0.2-1.7-0.3c-0.5-0.1-0.9-0.3-1.2-0.4c-0.3-0.1-0.5-0.2-0.6-0.3c-0.1-0.1-0.2-0.2-0.2-0.3c0-0.1-0.1-0.2-0.1-0.4
		c0-0.1,0-0.3-0.1-0.5c0-0.2,0-0.5,0-0.8c0-0.3,0-0.6,0-0.8c0-0.2,0.1-0.4,0.1-0.5c0.1-0.1,0.1-0.2,0.2-0.3c0.1-0.1,0.1-0.1,0.2-0.1
		c0.1,0,0.3,0.1,0.5,0.2s0.5,0.3,0.9,0.4c0.4,0.2,0.8,0.3,1.4,0.4c0.5,0.1,1.2,0.2,2,0.2c0.7,0,1.3-0.1,1.8-0.2s1-0.4,1.4-0.7
		s0.7-0.7,0.9-1.1c0.2-0.5,0.3-1,0.3-1.6c0-0.5-0.1-1-0.3-1.5c-0.2-0.4-0.4-0.8-0.8-1.1c-0.4-0.3-0.8-0.5-1.4-0.7
		c-0.6-0.1-1.3-0.2-2.1-0.2c-0.7,0-1.3,0-1.8,0.1c-0.5,0.1-1.1,0.1-1.5,0.1c-0.3,0-0.6-0.1-0.7-0.2s-0.2-0.5-0.2-0.9v-9.6
		c0-0.5,0.1-0.8,0.3-1c0.2-0.2,0.5-0.3,0.8-0.3h10.5c0.1,0,0.2,0,0.3,0.1c0.1,0.1,0.2,0.2,0.2,0.3c0.1,0.1,0.1,0.3,0.1,0.6
		c0,0.2,0,0.5,0,0.9c0,0.7-0.1,1.2-0.2,1.5c-0.1,0.3-0.3,0.5-0.5,0.5h-7.9v4.7c0.4,0,0.8-0.1,1.2-0.1c0.4,0,0.8,0,1.2,0
		c1.2,0,2.3,0.1,3.2,0.4s1.7,0.7,2.3,1.2c0.6,0.5,1.1,1.2,1.4,2c0.3,0.8,0.5,1.7,0.5,2.8C350.3,631.7,350.1,632.8,349.7,633.8z
		 M366.4,613.4l-10.2,28.7c-0.1,0.1-0.1,0.3-0.2,0.4c-0.1,0.1-0.2,0.2-0.4,0.2c-0.2,0.1-0.4,0.1-0.6,0.1c-0.2,0-0.6,0-0.9,0
		c-0.5,0-0.8,0-1.1-0.1c-0.3,0-0.5-0.1-0.7-0.2c-0.2-0.1-0.2-0.2-0.3-0.3c0-0.1,0-0.3,0.1-0.5l10.2-28.7c0-0.1,0.1-0.3,0.2-0.4
		c0.1-0.1,0.2-0.2,0.4-0.2c0.2-0.1,0.4-0.1,0.6-0.1c0.3,0,0.6,0,0.9,0c0.5,0,0.9,0,1.2,0.1c0.3,0,0.5,0.1,0.7,0.2
		c0.1,0.1,0.2,0.2,0.3,0.3C366.5,613.1,366.5,613.2,366.4,613.4z M395.3,629.5c0,1.4-0.2,2.6-0.6,3.6c-0.4,1.1-1,2-1.8,2.7
		c-0.8,0.7-1.7,1.3-2.9,1.7c-1.1,0.4-2.4,0.6-3.9,0.6c-1.4,0-2.6-0.2-3.7-0.5c-1.1-0.3-2-0.9-2.8-1.6c-0.8-0.7-1.3-1.6-1.8-2.6
		c-0.4-1.1-0.6-2.3-0.6-3.7v-13.5c0-0.1,0-0.2,0.1-0.3c0.1-0.1,0.2-0.2,0.4-0.2s0.4-0.1,0.7-0.1c0.3,0,0.6-0.1,1.1-0.1
		c0.4,0,0.8,0,1.1,0.1c0.3,0,0.5,0.1,0.7,0.1c0.2,0.1,0.3,0.1,0.4,0.2c0.1,0.1,0.1,0.2,0.1,0.3v13.1c0,0.9,0.1,1.6,0.3,2.3
		c0.2,0.6,0.5,1.2,0.9,1.6c0.4,0.4,0.9,0.7,1.5,0.9c0.6,0.2,1.2,0.3,1.9,0.3c0.7,0,1.3-0.1,1.9-0.3c0.6-0.2,1-0.5,1.4-0.9
		c0.4-0.4,0.7-0.9,0.9-1.5c0.2-0.6,0.3-1.3,0.3-2.1v-13.3c0-0.1,0-0.2,0.1-0.3c0.1-0.1,0.2-0.2,0.4-0.2s0.4-0.1,0.7-0.1
		c0.3,0,0.7-0.1,1.1-0.1c0.4,0,0.8,0,1.1,0.1c0.3,0,0.5,0.1,0.7,0.1s0.3,0.1,0.4,0.2c0.1,0.1,0.1,0.2,0.1,0.3V629.5z M414.4,637.1
		c0,0.1,0,0.2-0.1,0.3c-0.1,0.1-0.2,0.2-0.3,0.2c-0.2,0.1-0.4,0.1-0.7,0.1s-0.6,0-1,0c-0.4,0-0.8,0-1.1,0s-0.5-0.1-0.7-0.1
		c-0.2-0.1-0.3-0.1-0.3-0.2c-0.1-0.1-0.1-0.2-0.1-0.3v-8.7c0-0.7-0.1-1.3-0.2-1.7c-0.1-0.4-0.3-0.8-0.5-1.1
		c-0.2-0.3-0.5-0.5-0.8-0.7c-0.3-0.2-0.7-0.2-1.1-0.2c-0.5,0-1.1,0.2-1.7,0.6c-0.6,0.4-1.1,1-1.7,1.7v10.1c0,0.1,0,0.2-0.1,0.3
		c-0.1,0.1-0.2,0.2-0.4,0.2c-0.2,0.1-0.4,0.1-0.7,0.1s-0.6,0-1,0c-0.4,0-0.8,0-1,0s-0.5-0.1-0.7-0.1c-0.2-0.1-0.3-0.1-0.4-0.2
		c-0.1-0.1-0.1-0.2-0.1-0.3v-15.2c0-0.1,0-0.2,0.1-0.3c0.1-0.1,0.2-0.2,0.3-0.2c0.1-0.1,0.3-0.1,0.6-0.1c0.2,0,0.5,0,0.9,0
		c0.4,0,0.7,0,0.9,0c0.2,0,0.4,0.1,0.6,0.1c0.1,0.1,0.2,0.1,0.3,0.2c0.1,0.1,0.1,0.2,0.1,0.3v1.8c0.8-0.9,1.7-1.6,2.6-2.1
		c0.9-0.5,1.8-0.7,2.7-0.7c1,0,1.9,0.2,2.6,0.5c0.7,0.3,1.3,0.8,1.7,1.4s0.8,1.3,0.9,2.1c0.2,0.8,0.3,1.7,0.3,2.8V637.1z
		 M422.9,637.1c0,0.1,0,0.2-0.1,0.3c-0.1,0.1-0.2,0.2-0.4,0.2c-0.2,0.1-0.4,0.1-0.7,0.1s-0.6,0-1,0c-0.4,0-0.8,0-1,0
		s-0.5-0.1-0.7-0.1c-0.2-0.1-0.3-0.1-0.4-0.2c-0.1-0.1-0.1-0.2-0.1-0.3v-15.2c0-0.1,0-0.2,0.1-0.3c0.1-0.1,0.2-0.2,0.4-0.2
		c0.2-0.1,0.4-0.1,0.7-0.1c0.3,0,0.6-0.1,1-0.1c0.4,0,0.8,0,1,0.1c0.3,0,0.5,0.1,0.7,0.1c0.2,0.1,0.3,0.1,0.4,0.2
		c0.1,0.1,0.1,0.2,0.1,0.3V637.1z M422.7,618.5c-0.4,0.3-1,0.5-2,0.5c-1,0-1.6-0.2-2-0.5c-0.3-0.3-0.5-0.9-0.5-1.7
		c0-0.9,0.2-1.5,0.5-1.8c0.3-0.3,1-0.5,2-0.5c1,0,1.6,0.2,1.9,0.5c0.3,0.3,0.5,0.9,0.5,1.7C423.3,617.6,423.1,618.2,422.7,618.5z
		 M432.6,633.8c0.3,0.4,0.7,0.6,1.4,0.6c0.2,0,0.4,0,0.6-0.1c0.2,0,0.3-0.1,0.5-0.1c0.1-0.1,0.3-0.1,0.4-0.1c0.1,0,0.2-0.1,0.3-0.1
		c0.1,0,0.1,0,0.2,0.1c0.1,0,0.1,0.1,0.1,0.2c0,0.1,0.1,0.3,0.1,0.5s0,0.5,0,0.8c0,0.5,0,0.9-0.1,1.2c-0.1,0.3-0.1,0.5-0.2,0.6
		s-0.3,0.2-0.5,0.3c-0.2,0.1-0.4,0.2-0.7,0.2c-0.3,0.1-0.6,0.1-0.9,0.1c-0.3,0-0.6,0.1-0.9,0.1c-0.9,0-1.6-0.1-2.2-0.3
		c-0.6-0.2-1.1-0.5-1.6-1s-0.7-1-0.9-1.7c-0.2-0.7-0.3-1.5-0.3-2.4v-7.8h-1.8c-0.2,0-0.4-0.1-0.5-0.4c-0.1-0.3-0.2-0.7-0.2-1.3
		c0-0.3,0-0.6,0-0.8c0-0.2,0.1-0.4,0.1-0.5c0.1-0.1,0.1-0.2,0.2-0.3c0.1-0.1,0.2-0.1,0.3-0.1h1.8v-3.4c0-0.1,0-0.2,0.1-0.3
		c0.1-0.1,0.2-0.2,0.3-0.2c0.2-0.1,0.4-0.1,0.7-0.1c0.3,0,0.6,0,1,0c0.4,0,0.8,0,1.1,0c0.3,0,0.5,0.1,0.7,0.1
		c0.2,0.1,0.3,0.1,0.3,0.2c0.1,0.1,0.1,0.2,0.1,0.3v3.4h3.3c0.1,0,0.2,0,0.3,0.1c0.1,0.1,0.2,0.2,0.2,0.3c0.1,0.1,0.1,0.3,0.1,0.5
		c0,0.2,0,0.5,0,0.8c0,0.6-0.1,1.1-0.2,1.3c-0.1,0.3-0.3,0.4-0.5,0.4h-3.3v7.2C432.2,632.8,432.4,633.4,432.6,633.8z M461.5,631.4
		c-0.3,1.4-0.8,2.6-1.4,3.6c-0.6,1-1.5,1.8-2.5,2.3c-1,0.5-2.3,0.8-3.8,0.8c-1.5,0-2.8-0.3-3.8-0.8c-1-0.5-1.8-1.3-2.4-2.2
		c-0.6-1-1-2.2-1.2-3.6c-0.2-1.4-0.3-3-0.3-4.8c0-1.8,0.1-3.3,0.4-4.8c0.3-1.4,0.8-2.6,1.4-3.6c0.6-1,1.5-1.8,2.5-2.3
		c1-0.5,2.3-0.8,3.8-0.8c1.5,0,2.8,0.3,3.8,0.8c1,0.5,1.8,1.3,2.4,2.2c0.6,1,1,2.2,1.2,3.6c0.2,1.4,0.3,3,0.3,4.8
		C461.9,628.3,461.8,629.9,461.5,631.4z M478.4,633.8c-0.4,0.9-1,1.7-1.8,2.4c-0.8,0.6-1.7,1.1-2.7,1.5c-1.1,0.3-2.2,0.5-3.5,0.5
		c-0.7,0-1.3,0-1.9-0.1c-0.6-0.1-1.2-0.2-1.7-0.3c-0.5-0.1-0.9-0.3-1.2-0.4c-0.3-0.1-0.5-0.2-0.6-0.3c-0.1-0.1-0.2-0.2-0.2-0.3
		c0-0.1-0.1-0.2-0.1-0.4c0-0.1,0-0.3-0.1-0.5c0-0.2,0-0.5,0-0.8c0-0.3,0-0.6,0-0.8c0-0.2,0.1-0.4,0.1-0.5c0.1-0.1,0.1-0.2,0.2-0.3
		c0.1-0.1,0.1-0.1,0.2-0.1c0.1,0,0.3,0.1,0.5,0.2s0.5,0.3,0.9,0.4c0.4,0.2,0.8,0.3,1.4,0.4c0.5,0.1,1.2,0.2,2,0.2
		c0.7,0,1.3-0.1,1.8-0.2s1-0.4,1.4-0.7s0.7-0.7,0.9-1.1c0.2-0.5,0.3-1,0.3-1.6c0-0.5-0.1-1-0.3-1.5c-0.2-0.4-0.4-0.8-0.8-1.1
		c-0.4-0.3-0.8-0.5-1.4-0.7c-0.6-0.1-1.3-0.2-2.1-0.2c-0.7,0-1.3,0-1.8,0.1c-0.5,0.1-1.1,0.1-1.5,0.1c-0.3,0-0.6-0.1-0.7-0.2
		s-0.2-0.5-0.2-0.9v-9.6c0-0.5,0.1-0.8,0.3-1c0.2-0.2,0.5-0.3,0.8-0.3h10.5c0.1,0,0.2,0,0.3,0.1c0.1,0.1,0.2,0.2,0.2,0.3
		c0.1,0.1,0.1,0.3,0.1,0.6c0,0.2,0,0.5,0,0.9c0,0.7-0.1,1.2-0.2,1.5c-0.1,0.3-0.3,0.5-0.5,0.5h-7.9v4.7c0.4,0,0.8-0.1,1.2-0.1
		c0.4,0,0.8,0,1.2,0c1.2,0,2.3,0.1,3.2,0.4s1.7,0.7,2.3,1.2c0.6,0.5,1.1,1.2,1.4,2c0.3,0.8,0.5,1.7,0.5,2.8
		C479,631.7,478.8,632.8,478.4,633.8z"/>
</g>
</svg>
