<?xml version="1.0" encoding="utf-8"?>
<!-- Generator: Adobe Illustrator 22.1.0, SVG Export Plug-In . SVG Version: 6.00 Build 0)  -->
<svg version="1.1" id="Layer_1" xmlns="http://www.w3.org/2000/svg" xmlns:xlink="http://www.w3.org/1999/xlink" x="0px" y="0px"
	 viewBox="0 0 502.9 46.9" style="enable-background:new 0 0 502.9 46.9;" xml:space="preserve">
<style type="text/css">
	.st0{fill:#AA2601;stroke:#FFFFFF;stroke-width:0.75;stroke-miterlimit:10;}
	.st1{fill:#FFFFFF;}
	.st2{fill:#AA2601;}
</style>
<g id="home">
	<g>
		<path d="M35.9,19.1c-0.2-0.3-0.5-0.5-0.8-0.6c-0.3-0.1-0.7-0.2-1.2-0.2c-0.5,0-0.9,0.1-1.2,0.2c-0.3,0.1-0.6,0.3-0.8,0.6
			c-0.2,0.3-0.3,0.7-0.4,1.2c-0.1,0.5-0.1,1.1-0.1,1.9c0,0.8,0.1,1.4,0.1,1.9c0.1,0.5,0.2,0.9,0.4,1.2c0.2,0.3,0.5,0.5,0.8,0.6
			c0.3,0.1,0.7,0.2,1.2,0.2c0.5,0,0.9-0.1,1.2-0.2c0.3-0.1,0.6-0.3,0.8-0.6c0.2-0.3,0.3-0.7,0.4-1.2c0.1-0.5,0.1-1.1,0.1-1.9
			s-0.1-1.4-0.1-1.9S36.1,19.4,35.9,19.1z"/>
		<path d="M39.2,0c-13,0-23.5,10.5-23.5,23.5s10.5,23.5,23.5,23.5s23.5-10.5,23.5-23.5S52.2,0,39.2,0z M27.5,27.4h-1.8v-4.5h-4.5
			v4.5h-1.8V16.9h1.8v4.4h4.5v-4.4h1.8V27.4z M38.1,24.1c-0.1,0.6-0.2,1.1-0.4,1.5c-0.2,0.4-0.4,0.8-0.6,1c-0.3,0.3-0.5,0.5-0.9,0.7
			s-0.7,0.3-1.1,0.4c-0.4,0.1-0.8,0.1-1.3,0.1c-0.5,0-0.9-0.1-1.3-0.1s-0.8-0.2-1.1-0.4c-0.3-0.2-0.6-0.4-0.9-0.7
			c-0.3-0.3-0.5-0.6-0.7-1c-0.2-0.4-0.3-0.9-0.4-1.5c-0.1-0.6-0.2-1.2-0.2-2c0-1.1,0.1-2,0.3-2.7s0.5-1.3,0.9-1.7
			c0.4-0.4,0.8-0.7,1.4-0.9c0.6-0.2,1.2-0.3,1.8-0.3c0.5,0,0.9,0.1,1.3,0.1c0.4,0.1,0.8,0.2,1.1,0.4s0.6,0.4,0.9,0.7
			c0.3,0.3,0.5,0.6,0.6,1c0.2,0.4,0.3,0.9,0.4,1.5c0.1,0.6,0.2,1.2,0.2,1.9S38.2,23.5,38.1,24.1z M50.4,27.4h-1.8v-8.8h-0.1
			l-0.2,0.7c-0.1,0.2-0.1,0.4-0.2,0.6c-0.1,0.2-0.1,0.4-0.2,0.5l-1.4,4.2h-2.7l-1.4-4.3c-0.1-0.2-0.1-0.3-0.2-0.5s-0.1-0.4-0.2-0.6
			c-0.1-0.2-0.2-0.5-0.2-0.7h-0.1v8.8h-1.8V16.9h3.1l2,6.3h0.1l2-6.3h3L50.4,27.4L50.4,27.4z M53.1,27.4V16.9h6.3v1.7h-4.6v2.8h3.8
			v1.6h-3.8v2.9h4.7v1.7L53.1,27.4L53.1,27.4z"/>
	</g>
</g>
<g id="unit01">
	<g>
		<path class="st0" d="M112.6,24.3c-0.1-0.2-0.2-0.3-0.3-0.5c-0.1-0.1-0.3-0.2-0.4-0.2c-0.2,0-0.3-0.1-0.5-0.1c-0.2,0-0.4,0-0.6,0
			h-1.2V29h1.2c0.2,0,0.4,0,0.6,0c0.2,0,0.3,0,0.5-0.1c0.2,0,0.3-0.2,0.4-0.3c0.1-0.1,0.2-0.3,0.3-0.5c0.1-0.2,0.2-0.5,0.2-0.8
			c0-0.3,0.1-0.7,0.1-1.2c0-0.4,0-0.8-0.1-1.1C112.8,24.7,112.7,24.5,112.6,24.3z"/>
		<path class="st0" d="M137.6,23.9c-0.1-0.2-0.3-0.4-0.5-0.5c-0.2-0.1-0.5-0.2-0.8-0.2c-0.3,0-0.6,0-0.8,0.2s-0.3,0.3-0.5,0.5
			c-0.1,0.2-0.2,0.5-0.2,0.9c0,0.3-0.1,0.8-0.1,1.4c0,0.5,0,1,0.1,1.4c0,0.4,0.1,0.7,0.2,1c0.1,0.2,0.3,0.4,0.5,0.5s0.5,0.2,0.8,0.2
			c0.3,0,0.6-0.1,0.8-0.2c0.2-0.1,0.3-0.3,0.5-0.5s0.2-0.6,0.2-0.9c0-0.3,0.1-0.9,0.1-1.4s0-1-0.1-1.3
			C137.7,24.5,137.7,24.2,137.6,23.9z"/>
		<path class="st0" d="M77.7,15.4c-6.5,0-11.7,5.2-11.7,11.7l0,0c0,6.5,5.2,11.7,11.7,11.7h128.7V15.3L77.7,15.4L77.7,15.4z
			 M88.4,27.7c0,0.5,0,0.9-0.2,1.2c-0.1,0.3-0.3,0.6-0.5,0.9c-0.2,0.2-0.5,0.4-0.9,0.5c-0.4,0.1-0.9,0.2-1.4,0.2c-0.5,0-1,0-1.4-0.2
			c-0.4-0.1-0.7-0.3-0.9-0.5s-0.4-0.5-0.5-0.9c-0.1-0.3-0.2-0.7-0.2-1.2v-5.5h1.4v5.4c0,0.3,0,0.6,0.1,0.8c0,0.2,0.2,0.4,0.3,0.5
			c0.1,0.1,0.3,0.2,0.5,0.2c0.2,0,0.5,0.1,0.8,0.1c0.3,0,0.5,0,0.7-0.1c0.2,0,0.4-0.1,0.5-0.2c0.2-0.1,0.2-0.3,0.3-0.5
			S87,28,87,27.6v-5.4h1.4L88.4,27.7L88.4,27.7z M98.2,30.3h-1.4v-6.8h0L96.6,24c0,0.2-0.1,0.3-0.2,0.5c0,0.2-0.1,0.3-0.1,0.4
			l-1,3.3h-2.1l-1.1-3.3c0-0.1-0.1-0.2-0.1-0.4S92,24.1,91.9,24c0-0.2-0.1-0.3-0.2-0.5h0v6.8h-1.4v-8.1h2.4l1.5,4.9h0l1.6-4.9h2.3
			L98.2,30.3L98.2,30.3z M106.4,27.8c-0.1,0.4-0.2,0.8-0.3,1.1c-0.1,0.3-0.3,0.6-0.5,0.8c-0.2,0.2-0.4,0.4-0.7,0.5
			c-0.3,0.1-0.5,0.2-0.8,0.3c-0.3,0-0.6,0.1-1,0.1s-0.7,0-1-0.1c-0.3,0-0.6-0.1-0.8-0.3c-0.2-0.2-0.5-0.3-0.7-0.5
			c-0.2-0.2-0.3-0.5-0.5-0.8c-0.1-0.3-0.2-0.7-0.3-1.1c-0.1-0.4-0.1-0.9-0.1-1.5c0-0.9,0.1-1.6,0.2-2.1c0.2-0.5,0.4-1,0.7-1.3
			c0.3-0.3,0.6-0.5,1-0.7c0.4-0.1,0.9-0.2,1.4-0.2c0.3,0,0.7,0,1,0.1c0.3,0,0.6,0.2,0.8,0.3c0.2,0.1,0.5,0.3,0.7,0.5
			c0.2,0.2,0.3,0.5,0.5,0.8c0.1,0.3,0.2,0.7,0.3,1.1s0.1,0.9,0.1,1.5S106.5,27.3,106.4,27.8z M114.2,27.7c-0.1,0.4-0.2,0.8-0.3,1.1
			c-0.1,0.3-0.3,0.5-0.5,0.7c-0.2,0.2-0.4,0.3-0.6,0.5c-0.2,0.1-0.5,0.2-0.8,0.2c-0.3,0-0.6,0.1-0.9,0.1h-2.9v-8.1h2.9
			c0.3,0,0.6,0,0.9,0.1c0.3,0,0.5,0.1,0.8,0.2c0.2,0.1,0.5,0.3,0.7,0.4c0.2,0.2,0.3,0.4,0.5,0.7c0.2,0.3,0.2,0.7,0.3,1.1
			c0.1,0.4,0.1,0.9,0.1,1.5C114.3,26.8,114.3,27.3,114.2,27.7z M121.9,27.7c0,0.5,0,0.9-0.2,1.2c-0.1,0.3-0.3,0.6-0.5,0.9
			c-0.2,0.2-0.5,0.4-0.9,0.5c-0.4,0.1-0.9,0.2-1.4,0.2c-0.5,0-1,0-1.4-0.2c-0.4-0.1-0.7-0.3-0.9-0.5c-0.2-0.2-0.4-0.5-0.5-0.9
			c-0.1-0.3-0.2-0.7-0.2-1.2v-5.5h1.4v5.4c0,0.3,0,0.6,0.1,0.8s0.2,0.4,0.3,0.5c0.1,0.1,0.3,0.2,0.5,0.2c0.2,0,0.5,0.1,0.8,0.1
			c0.3,0,0.5,0,0.7-0.1c0.2,0,0.4-0.1,0.5-0.2c0.2-0.1,0.2-0.3,0.3-0.5c0.1-0.2,0.1-0.5,0.1-0.8v-5.4h1.4L121.9,27.7L121.9,27.7z
			 M128.9,30.3h-5v-8.1h4.9v1.3h-3.5v2.1h2.9v1.2h-2.9V29h3.6V30.3z M139.2,27.6c0,0.4-0.1,0.8-0.2,1.1s-0.2,0.6-0.4,0.8
			s-0.3,0.4-0.6,0.5c-0.2,0.2-0.5,0.2-0.8,0.3c-0.3,0-0.6,0.1-1,0.1s-0.7,0-1-0.1c-0.3-0.1-0.5-0.2-0.8-0.3
			c-0.2-0.1-0.4-0.3-0.6-0.5c-0.2-0.2-0.3-0.5-0.4-0.8c-0.1-0.3-0.2-0.7-0.2-1.1c0-0.4-0.1-0.9-0.1-1.5c0-0.9,0-1.5,0.2-2.1
			s0.3-1,0.5-1.3c0.2-0.3,0.5-0.5,0.9-0.7c0.4-0.1,0.9-0.2,1.4-0.2c0.5,0,1,0.1,1.4,0.2c0.4,0.1,0.7,0.3,0.9,0.7
			c0.2,0.3,0.4,0.7,0.5,1.3s0.2,1.2,0.2,2.1C139.3,26.7,139.3,27.2,139.2,27.6z M143.5,30.3h-1.4v-6.8h-1.5l0.4-1.3h2.5L143.5,30.3
			L143.5,30.3z"/>
		<path class="st0" d="M104.7,23.9c-0.2-0.2-0.3-0.4-0.6-0.5c-0.2-0.1-0.5-0.1-0.9-0.1s-0.7,0-0.9,0.1c-0.2,0.1-0.4,0.2-0.6,0.5
			c-0.2,0.2-0.2,0.5-0.3,0.9c-0.1,0.4-0.1,0.9-0.1,1.5c0,0.6,0,1.1,0.1,1.4c0.1,0.4,0.2,0.7,0.3,0.9c0.2,0.2,0.3,0.4,0.6,0.5
			c0.2,0.1,0.5,0.1,0.9,0.1s0.7,0,0.9-0.1c0.2-0.1,0.4-0.2,0.6-0.5c0.2-0.2,0.2-0.5,0.3-0.9c0.1-0.4,0.1-0.9,0.1-1.4s0-1.1-0.1-1.5
			C104.9,24.4,104.8,24.1,104.7,23.9z"/>
	</g>
</g>
<g id="unit02">
	<g>
		<path class="st1" d="M219.9,24c-0.1-0.2-0.3-0.4-0.5-0.5c-0.2-0.1-0.5-0.2-0.8-0.2c-0.3,0-0.6,0-0.8,0.2c-0.2,0.1-0.3,0.3-0.5,0.5
			c-0.1,0.2-0.2,0.5-0.2,0.9c0,0.3-0.1,0.8-0.1,1.4c0,0.5,0,1,0.1,1.4c0,0.4,0.1,0.7,0.2,1c0.1,0.3,0.3,0.4,0.5,0.5
			c0.2,0.1,0.5,0.2,0.8,0.2c0.3,0,0.6-0.1,0.8-0.2c0.2-0.1,0.3-0.3,0.5-0.5c0.1-0.2,0.2-0.6,0.2-0.9c0-0.3,0.1-0.9,0.1-1.4
			s0-1-0.1-1.3C220.1,24.6,220,24.2,219.9,24z"/>
		<path class="st1" d="M187.1,23.9c-0.2-0.2-0.3-0.4-0.6-0.5s-0.5-0.1-0.9-0.1c-0.4,0-0.7,0-0.9,0.1c-0.2,0.1-0.4,0.2-0.6,0.5
			c-0.2,0.2-0.2,0.5-0.3,0.9c-0.1,0.4-0.1,0.9-0.1,1.5c0,0.6,0,1.1,0.1,1.4c0.1,0.4,0.2,0.7,0.3,0.9c0.2,0.2,0.3,0.4,0.6,0.5
			c0.2,0.1,0.5,0.1,0.9,0.1c0.4,0,0.7,0,0.9-0.1c0.2-0.1,0.4-0.2,0.6-0.5s0.2-0.5,0.3-0.9c0.1-0.4,0.1-0.9,0.1-1.4s0-1.1-0.1-1.5
			C187.3,24.4,187.2,24.1,187.1,23.9z"/>
		<path class="st1" d="M195,24.3c-0.1-0.2-0.2-0.3-0.3-0.5c-0.1-0.1-0.3-0.2-0.4-0.2s-0.3-0.1-0.5-0.1c-0.2,0-0.4,0-0.6,0H192v5.6
			h1.2c0.2,0,0.4,0,0.6,0s0.3,0,0.5-0.1s0.3-0.2,0.4-0.3c0.1-0.1,0.2-0.3,0.3-0.5c0.1-0.2,0.2-0.5,0.2-0.8c0-0.3,0.1-0.7,0.1-1.2
			c0-0.4,0-0.8-0.1-1.1C195.2,24.8,195,24.5,195,24.3z"/>
		<path class="st1" d="M160,15.4c-6.5,0-11.7,5.2-11.7,11.7l0,0c0,6.5,5.2,11.7,11.7,11.7h128.7V15.4H160z M170.7,27.7
			c0,0.5,0,0.9-0.2,1.2s-0.3,0.6-0.5,0.9c-0.2,0.2-0.5,0.4-0.9,0.5c-0.4,0.1-0.9,0.2-1.4,0.2c-0.5,0-1,0-1.4-0.2
			c-0.4-0.1-0.7-0.3-0.9-0.5s-0.4-0.5-0.5-0.9c-0.1-0.3-0.2-0.7-0.2-1.2v-5.5h1.4v5.4c0,0.3,0,0.6,0.1,0.8c0,0.2,0.2,0.4,0.3,0.5
			s0.3,0.2,0.5,0.2c0.2,0,0.5,0.1,0.8,0.1c0.3,0,0.5,0,0.7-0.1s0.4-0.1,0.5-0.2c0.2-0.1,0.2-0.3,0.3-0.5c0.1-0.2,0.1-0.5,0.1-0.8
			v-5.4h1.4L170.7,27.7L170.7,27.7z M180.5,30.3h-1.4v-6.8h0L179,24c0,0.2-0.1,0.3-0.2,0.5c0,0.2-0.1,0.3-0.1,0.4l-1,3.3h-2.1
			l-1.1-3.3c0-0.1-0.1-0.2-0.1-0.4c0-0.2-0.1-0.3-0.2-0.4c0-0.2-0.1-0.3-0.2-0.5h0v6.8h-1.4v-8.1h2.4l1.5,4.9h0l1.6-4.9h2.3
			L180.5,30.3L180.5,30.3z M188.8,27.8c-0.1,0.4-0.2,0.8-0.3,1.1c-0.1,0.3-0.3,0.6-0.5,0.8c-0.2,0.2-0.4,0.4-0.7,0.5
			c-0.3,0.1-0.5,0.2-0.8,0.3c-0.3,0-0.6,0.1-1,0.1s-0.7,0-1-0.1s-0.6-0.1-0.8-0.3c-0.2-0.2-0.5-0.3-0.7-0.5
			c-0.2-0.2-0.3-0.5-0.5-0.8c-0.1-0.3-0.2-0.7-0.3-1.1c-0.1-0.4-0.1-0.9-0.1-1.5c0-0.9,0.1-1.6,0.2-2.1s0.4-1,0.7-1.3
			c0.3-0.3,0.6-0.5,1-0.7c0.4-0.1,0.9-0.2,1.4-0.2c0.3,0,0.7,0,1,0.1c0.3,0,0.6,0.2,0.8,0.3s0.5,0.3,0.7,0.5s0.3,0.5,0.5,0.8
			s0.2,0.7,0.3,1.1c0.1,0.4,0.1,0.9,0.1,1.5S188.8,27.4,188.8,27.8z M196.6,27.7c-0.1,0.4-0.2,0.8-0.3,1.1c-0.1,0.3-0.3,0.5-0.5,0.7
			s-0.4,0.3-0.6,0.5c-0.2,0.1-0.5,0.2-0.8,0.2c-0.3,0-0.6,0.1-0.9,0.1h-2.9v-8.1h2.9c0.3,0,0.6,0,0.9,0.1c0.3,0,0.5,0.1,0.8,0.2
			c0.2,0.1,0.5,0.3,0.7,0.4s0.3,0.4,0.5,0.7s0.2,0.7,0.3,1.1c0.1,0.4,0.1,0.9,0.1,1.5C196.7,26.8,196.6,27.3,196.6,27.7z
			 M204.3,27.7c0,0.5,0,0.9-0.2,1.2c-0.1,0.3-0.3,0.6-0.5,0.9c-0.2,0.2-0.5,0.4-0.9,0.5c-0.4,0.1-0.9,0.2-1.4,0.2s-1,0-1.4-0.2
			c-0.4-0.1-0.7-0.3-0.9-0.5c-0.2-0.2-0.4-0.5-0.5-0.9c-0.1-0.3-0.2-0.7-0.2-1.2v-5.5h1.4v5.4c0,0.3,0,0.6,0.1,0.8
			c0,0.2,0.2,0.4,0.3,0.5c0.1,0.1,0.3,0.2,0.5,0.2s0.5,0.1,0.8,0.1c0.3,0,0.5,0,0.7-0.1s0.4-0.1,0.5-0.2c0.2-0.1,0.2-0.3,0.3-0.5
			c0.1-0.2,0.1-0.5,0.1-0.8v-5.4h1.4L204.3,27.7L204.3,27.7z M211.3,30.3h-5v-8.1h4.9v1.3h-3.5v2.1h2.9v1.2h-2.9v2.2h3.6V30.3z
			 M221.6,27.7c0,0.4-0.1,0.8-0.2,1.1c-0.1,0.3-0.2,0.6-0.4,0.8s-0.3,0.4-0.6,0.5s-0.5,0.2-0.8,0.3c-0.3,0-0.6,0.1-1,0.1
			s-0.7,0-1-0.1c-0.3-0.1-0.5-0.2-0.8-0.3c-0.2-0.1-0.4-0.3-0.6-0.5s-0.3-0.5-0.4-0.8s-0.2-0.7-0.2-1.1c0-0.4-0.1-0.9-0.1-1.5
			c0-0.9,0-1.5,0.2-2.1c0.1-0.5,0.3-1,0.5-1.3c0.2-0.3,0.5-0.5,0.9-0.7c0.4-0.1,0.9-0.2,1.4-0.2c0.5,0,1,0.1,1.4,0.2
			c0.4,0.1,0.7,0.3,0.9,0.7c0.2,0.3,0.4,0.7,0.5,1.3s0.2,1.2,0.2,2.1C221.7,26.7,221.7,27.2,221.6,27.7z M228.2,29.1v1.3h-5v-0.8
			c0.7-0.7,1.2-1.3,1.7-1.8s0.8-1,1.1-1.4c0.3-0.4,0.5-0.7,0.6-1c0.1-0.3,0.2-0.6,0.2-0.9c0-0.2,0-0.3-0.1-0.5
			c0-0.2-0.1-0.3-0.2-0.3c-0.1-0.1-0.3-0.2-0.5-0.2c-0.2,0-0.5-0.1-0.8-0.1c-0.2,0-0.4,0-0.6,0s-0.4,0-0.6,0.1c-0.2,0-0.4,0-0.6,0.1
			v-1c0.2-0.1,0.4-0.2,0.6-0.2c0.2,0,0.4-0.1,0.7-0.2c0.3,0,0.6-0.1,0.9-0.1c0.5,0,0.9,0,1.2,0.2c0.3,0.1,0.6,0.2,0.8,0.4
			c0.2,0.2,0.3,0.4,0.4,0.7c0.1,0.3,0.1,0.6,0.1,1c0,0.3,0,0.6-0.2,0.9s-0.3,0.7-0.5,1.1c-0.2,0.4-0.5,0.8-0.9,1.2
			c-0.4,0.5-0.9,0.9-1.4,1.5l0,0L228.2,29.1L228.2,29.1z"/>
	</g>
</g>
<g id="unit03">
	<g>
		<path class="st2" d="M270.8,24.6c-0.2-0.2-0.3-0.4-0.6-0.5c-0.2-0.1-0.5-0.1-0.9-0.1s-0.7,0-0.9,0.1s-0.4,0.2-0.6,0.5
			c-0.2,0.2-0.2,0.5-0.3,0.9s-0.1,0.8-0.1,1.5c0,0.6,0,1.1,0.1,1.4c0.1,0.4,0.2,0.7,0.3,0.9c0.2,0.2,0.3,0.4,0.6,0.5
			s0.5,0.1,0.9,0.1s0.7,0,0.9-0.1c0.2-0.1,0.4-0.2,0.6-0.5s0.2-0.5,0.3-0.9c0.1-0.4,0.1-0.8,0.1-1.4c0-0.6,0-1.1-0.1-1.5
			C271,25.2,271,24.9,270.8,24.6z"/>
		<path class="st2" d="M303.7,24.7c-0.1-0.2-0.3-0.4-0.5-0.5c-0.2-0.1-0.5-0.2-0.8-0.2c-0.3,0-0.6,0-0.8,0.2
			c-0.2,0.1-0.3,0.3-0.5,0.5c-0.1,0.2-0.2,0.5-0.2,0.9s-0.1,0.8-0.1,1.3c0,0.5,0,1,0.1,1.3c0,0.4,0.1,0.7,0.2,1s0.3,0.4,0.5,0.5
			c0.2,0.1,0.5,0.2,0.8,0.2c0.3,0,0.6-0.1,0.8-0.2c0.2-0.1,0.3-0.3,0.5-0.5c0.1-0.2,0.2-0.6,0.2-0.9c0-0.3,0.1-0.8,0.1-1.3
			s0-1-0.1-1.3C303.9,25.3,303.8,24.9,303.7,24.7z"/>
		<path class="st2" d="M278.7,25c-0.1-0.2-0.2-0.3-0.3-0.5c-0.1-0.1-0.3-0.2-0.4-0.2c-0.2,0-0.3-0.1-0.5-0.1c-0.2,0-0.4,0-0.6,0
			h-1.2v5.5h1.2c0.2,0,0.4,0,0.6,0s0.3,0,0.5-0.1s0.3-0.2,0.4-0.3c0.1-0.1,0.2-0.3,0.3-0.5c0.1-0.2,0.2-0.5,0.2-0.8
			c0-0.3,0.1-0.7,0.1-1.2c0-0.4,0-0.8-0.1-1.1C278.9,25.4,278.8,25.3,278.7,25z"/>
		<path class="st2" d="M243.8,15.5c-6.5,0-11.7,5.2-11.7,11.6l0,0c0,6.4,5.2,11.6,11.7,11.6h128.7V15.4L243.8,15.5L243.8,15.5z
			 M254.5,28.4c0,0.5,0,0.9-0.2,1.2s-0.3,0.6-0.5,0.8s-0.5,0.4-0.9,0.5c-0.4,0.1-0.9,0.2-1.4,0.2c-0.5,0-1,0-1.4-0.2
			c-0.4-0.1-0.7-0.3-0.9-0.5c-0.2-0.2-0.4-0.5-0.5-0.8c-0.1-0.3-0.2-0.7-0.2-1.2v-5.5h1.4v5.4c0,0.3,0,0.6,0.1,0.8s0.2,0.4,0.3,0.5
			s0.3,0.2,0.5,0.2c0.2,0,0.5,0.1,0.8,0.1c0.3,0,0.5,0,0.7-0.1c0.2,0,0.4-0.1,0.5-0.2c0.2-0.1,0.2-0.3,0.3-0.5s0.1-0.5,0.1-0.8v-5.4
			h1.4L254.5,28.4L254.5,28.4z M264.3,31h-1.4v-6.8h0l-0.2,0.5c0,0.2-0.1,0.3-0.2,0.5c0,0.2-0.1,0.3-0.1,0.4l-1,3.2h-2.1l-1.1-3.3
			c0-0.1-0.1-0.2-0.1-0.4s-0.1-0.3-0.2-0.4c0-0.2-0.1-0.3-0.2-0.5h0V31h-1.4v-8h2.4l1.5,4.8h0l1.6-4.8h2.3L264.3,31L264.3,31z
			 M272.5,28.5c-0.1,0.4-0.2,0.8-0.3,1.1c-0.1,0.3-0.3,0.6-0.5,0.8c-0.2,0.2-0.4,0.4-0.7,0.5c-0.3,0.1-0.5,0.2-0.8,0.3
			c-0.3,0-0.6,0.1-1,0.1c-0.3,0-0.7,0-1-0.1c-0.3,0-0.6-0.1-0.8-0.3c-0.2-0.2-0.5-0.3-0.7-0.5c-0.2-0.2-0.3-0.5-0.5-0.8
			c-0.1-0.3-0.2-0.7-0.3-1.1c-0.1-0.4-0.1-0.9-0.1-1.5c0-0.8,0.1-1.5,0.2-2.1s0.4-1,0.7-1.3c0.3-0.3,0.6-0.5,1-0.7
			c0.4-0.1,0.9-0.2,1.4-0.2c0.3,0,0.7,0,1,0.1c0.3,0,0.6,0.2,0.8,0.3c0.2,0.1,0.5,0.3,0.7,0.5c0.2,0.2,0.3,0.5,0.5,0.8
			c0.1,0.3,0.2,0.7,0.3,1.1c0.1,0.4,0.1,0.9,0.1,1.5C272.6,27.5,272.6,28.1,272.5,28.5z M280.3,28.4c-0.1,0.4-0.2,0.8-0.3,1.1
			c-0.1,0.3-0.3,0.5-0.5,0.7s-0.4,0.3-0.6,0.5c-0.2,0.1-0.5,0.2-0.8,0.2c-0.3,0-0.6,0.1-0.9,0.1h-2.9v-8h2.9c0.3,0,0.6,0,0.9,0.1
			c0.3,0,0.5,0.1,0.8,0.2s0.5,0.3,0.7,0.4s0.3,0.4,0.5,0.7c0.2,0.3,0.2,0.7,0.3,1.1c0.1,0.4,0.1,0.9,0.1,1.5
			C280.4,27.5,280.4,28,280.3,28.4z M288,28.4c0,0.5,0,0.9-0.2,1.2c-0.1,0.3-0.3,0.6-0.5,0.8c-0.2,0.2-0.5,0.4-0.9,0.5
			c-0.4,0.1-0.9,0.2-1.4,0.2c-0.5,0-1,0-1.4-0.2c-0.4-0.1-0.7-0.3-0.9-0.5c-0.2-0.2-0.4-0.5-0.5-0.8c-0.1-0.3-0.2-0.7-0.2-1.2v-5.5
			h1.4v5.4c0,0.3,0,0.6,0.1,0.8s0.2,0.4,0.3,0.5s0.3,0.2,0.5,0.2c0.2,0,0.5,0.1,0.8,0.1c0.3,0,0.5,0,0.7-0.1c0.2,0,0.4-0.1,0.5-0.2
			c0.2-0.1,0.2-0.3,0.3-0.5c0.1-0.2,0.1-0.5,0.1-0.8v-5.4h1.4L288,28.4L288,28.4z M295.1,31h-5v-8h4.9v1.3h-3.5v2.1h2.9v1.2h-2.9
			v2.2h3.6V31z M305.3,28.4c0,0.4-0.1,0.8-0.2,1.1c-0.1,0.3-0.2,0.6-0.4,0.8c-0.2,0.2-0.3,0.4-0.6,0.5s-0.5,0.2-0.8,0.3
			c-0.3,0-0.6,0.1-1,0.1c-0.3,0-0.7,0-1-0.1c-0.3-0.1-0.5-0.2-0.8-0.3c-0.2-0.1-0.4-0.3-0.6-0.5c-0.2-0.2-0.3-0.5-0.4-0.8
			c-0.1-0.3-0.2-0.7-0.2-1.1s-0.1-0.9-0.1-1.5c0-0.8,0-1.5,0.2-2c0.1-0.5,0.3-1,0.5-1.3c0.2-0.3,0.5-0.5,0.9-0.7
			c0.4-0.1,0.9-0.2,1.4-0.2c0.5,0,1,0.1,1.4,0.2c0.4,0.1,0.7,0.3,0.9,0.7c0.2,0.3,0.4,0.7,0.5,1.3c0.1,0.5,0.2,1.2,0.2,2
			C305.4,27.4,305.4,27.9,305.3,28.4z M311.7,29.9c-0.1,0.3-0.3,0.6-0.5,0.7c-0.2,0.2-0.5,0.3-0.8,0.4c-0.3,0.1-0.7,0.1-1.1,0.1
			c-0.3,0-0.5,0-0.8,0c-0.3,0-0.5-0.1-0.7-0.1c-0.2,0-0.5-0.1-0.7-0.2v-1c0.2,0,0.4,0,0.6,0.1c0.2,0,0.3,0,0.5,0s0.4,0,0.6,0
			c0.3,0,0.5,0,0.7,0c0.2,0,0.4-0.1,0.5-0.2c0.2-0.1,0.3-0.2,0.3-0.3c0.1-0.2,0.1-0.3,0.1-0.6c0-0.3,0-0.5-0.1-0.7s-0.2-0.3-0.4-0.4
			c-0.2-0.1-0.4-0.1-0.7-0.2c-0.3,0-0.7,0-1.2,0v-1.2c0.5,0,0.9,0,1.2-0.1c0.3,0,0.5-0.1,0.7-0.2c0.2-0.1,0.3-0.2,0.3-0.4
			s0.1-0.3,0.1-0.6c0-0.2,0-0.3-0.1-0.5c0-0.1-0.2-0.2-0.3-0.3c-0.1-0.1-0.3-0.2-0.5-0.2c-0.2,0-0.5,0-0.7,0c-0.2,0-0.3,0-0.5,0
			c-0.2,0-0.3,0-0.5,0c-0.2,0-0.4,0-0.5,0.1v-1c0.2-0.1,0.4-0.2,0.7-0.2c0.2,0,0.4-0.1,0.7-0.2c0.3,0,0.5-0.1,0.9-0.1
			c0.8,0,1.4,0.2,1.8,0.5c0.4,0.3,0.6,0.9,0.6,1.7c0,0.2,0,0.5-0.1,0.6c0,0.2-0.1,0.3-0.2,0.5c-0.1,0.1-0.2,0.2-0.3,0.3
			c-0.1,0.1-0.2,0.2-0.3,0.2s-0.2,0.1-0.3,0.1c-0.1,0-0.2,0-0.3,0l0,0c0.1,0,0.2,0,0.3,0c0.1,0,0.2,0,0.3,0.1c0.1,0,0.2,0.1,0.3,0.2
			c0.1,0.1,0.2,0.2,0.3,0.3s0.2,0.3,0.2,0.5c0.1,0.2,0.1,0.5,0.1,0.8C311.9,29.2,311.9,29.6,311.7,29.9z"/>
	</g>
</g>
<g id="unit04">
	<g>
		<path class="st1" d="M387,23.8c-0.1-0.2-0.3-0.4-0.5-0.5s-0.5-0.2-0.8-0.2c-0.3,0-0.6,0-0.8,0.2c-0.2,0.1-0.3,0.3-0.5,0.5
			c-0.1,0.2-0.2,0.6-0.2,0.9c0,0.4-0.1,0.8-0.1,1.4c0,0.5,0,1,0.1,1.4c0,0.4,0.1,0.7,0.2,1c0.1,0.2,0.3,0.4,0.5,0.6
			c0.2,0.1,0.5,0.2,0.8,0.2c0.3,0,0.6-0.1,0.8-0.2s0.3-0.3,0.5-0.6c0.1-0.2,0.2-0.6,0.2-1s0.1-0.9,0.1-1.4s0-1-0.1-1.4
			S387.1,24,387,23.8z"/>
		<path class="st1" d="M354.1,23.8c-0.2-0.2-0.3-0.4-0.6-0.5s-0.5-0.1-0.9-0.1s-0.7,0-0.9,0.1s-0.4,0.2-0.6,0.5
			c-0.2,0.2-0.2,0.6-0.3,1c-0.1,0.4-0.1,0.9-0.1,1.5c0,0.6,0,1.1,0.1,1.5c0.1,0.4,0.2,0.7,0.3,0.9c0.2,0.2,0.3,0.4,0.6,0.5
			s0.5,0.1,0.9,0.1s0.7,0,0.9-0.1s0.4-0.2,0.6-0.5c0.2-0.2,0.2-0.5,0.3-0.9s0.1-0.9,0.1-1.5c0-0.6,0-1.1-0.1-1.5
			C354.3,24.3,354.3,24,354.1,23.8z"/>
		<path class="st1" d="M362,24.2c-0.1-0.2-0.2-0.4-0.3-0.5c-0.1-0.1-0.3-0.2-0.4-0.2c-0.2,0-0.3-0.1-0.5-0.1c-0.2,0-0.4,0-0.6,0H359
			v5.8h1.2c0.2,0,0.4,0,0.5,0c0.2,0,0.3,0,0.5-0.1c0.2,0,0.3-0.2,0.4-0.3c0.1-0.1,0.2-0.3,0.3-0.5c0.1-0.2,0.2-0.5,0.2-0.8
			c0-0.3,0.1-0.8,0.1-1.2c0-0.4,0-0.8-0.1-1.2C362.2,24.6,362.1,24.4,362,24.2z"/>
		<path class="st1" d="M327.1,14.4c-6.5,0-11.7,5.4-11.7,12.1l0,0c0,6.7,5.2,12.1,11.7,12.1h128.7V14.4L327.1,14.4L327.1,14.4z
			 M337.8,27.7c0,0.5,0,0.9-0.2,1.3c-0.1,0.4-0.3,0.6-0.5,0.9c-0.2,0.2-0.5,0.4-0.9,0.5c-0.4,0.1-0.9,0.2-1.4,0.2s-1,0-1.4-0.2
			c-0.4-0.1-0.7-0.3-0.9-0.5s-0.4-0.5-0.5-0.9c-0.1-0.4-0.2-0.8-0.2-1.3V22h1.4v5.6c0,0.3,0,0.6,0.1,0.8s0.2,0.4,0.3,0.5
			c0.1,0.1,0.3,0.2,0.5,0.2s0.5,0.1,0.8,0.1c0.3,0,0.5,0,0.7-0.1c0.2,0,0.4-0.1,0.5-0.2c0.2-0.1,0.2-0.3,0.3-0.5
			c0.1-0.2,0.1-0.5,0.1-0.8V22h1.4L337.8,27.7L337.8,27.7z M347.6,30.4h-1.4v-7.1h0l-0.2,0.5c0,0.2-0.1,0.3-0.2,0.5
			c0,0.2-0.1,0.3-0.1,0.4l-1,3.4h-2.1l-1.1-3.4c0-0.1-0.1-0.2-0.1-0.4s-0.1-0.3-0.2-0.4c0-0.2-0.1-0.4-0.2-0.5h0v7.1h-1.4V22h2.4
			l1.5,5.1h0l1.6-5.1h2.3L347.6,30.4L347.6,30.4z M355.8,27.8c-0.1,0.4-0.2,0.8-0.3,1.2c-0.1,0.3-0.3,0.6-0.5,0.8s-0.4,0.4-0.7,0.5
			s-0.5,0.2-0.8,0.3c-0.3,0-0.6,0.1-1,0.1c-0.3,0-0.7,0-1-0.1c-0.3,0-0.6-0.1-0.8-0.3c-0.2-0.2-0.5-0.3-0.7-0.5
			c-0.2-0.2-0.3-0.5-0.5-0.8c-0.1-0.3-0.2-0.7-0.3-1.2s-0.1-1-0.1-1.6c0-0.9,0.1-1.6,0.2-2.2c0.2-0.6,0.4-1,0.7-1.3
			c0.3-0.3,0.6-0.6,1-0.7c0.4-0.1,0.9-0.2,1.4-0.2c0.3,0,0.7,0,1,0.1c0.3,0,0.6,0.2,0.8,0.3c0.2,0.1,0.5,0.3,0.7,0.5
			c0.2,0.2,0.3,0.5,0.5,0.8c0.1,0.3,0.2,0.7,0.3,1.2c0.1,0.4,0.1,1,0.1,1.5S355.9,27.3,355.8,27.8z M363.6,27.7
			c-0.1,0.4-0.2,0.8-0.3,1.1c-0.1,0.3-0.3,0.6-0.5,0.8s-0.4,0.4-0.6,0.5c-0.2,0.1-0.5,0.2-0.8,0.2c-0.3,0-0.6,0.1-0.9,0.1h-2.9V22
			h2.9c0.3,0,0.6,0,0.9,0.1c0.3,0,0.5,0.1,0.8,0.2s0.5,0.3,0.7,0.4s0.3,0.4,0.5,0.8c0.2,0.3,0.2,0.7,0.3,1.1
			c0.1,0.4,0.1,0.9,0.1,1.5C363.7,26.7,363.7,27.3,363.6,27.7z M371.3,27.7c0,0.5,0,0.9-0.2,1.3c-0.1,0.4-0.3,0.6-0.5,0.9
			c-0.2,0.2-0.5,0.4-0.9,0.5c-0.4,0.1-0.9,0.2-1.4,0.2s-1,0-1.4-0.2c-0.4-0.1-0.7-0.3-0.9-0.5s-0.4-0.5-0.5-0.9
			c-0.1-0.4-0.2-0.8-0.2-1.3V22h1.4v5.6c0,0.3,0,0.6,0.1,0.8c0,0.2,0.2,0.4,0.3,0.5c0.1,0.1,0.3,0.2,0.5,0.2s0.5,0.1,0.8,0.1
			c0.3,0,0.5,0,0.7-0.1c0.2,0,0.4-0.1,0.5-0.2c0.2-0.1,0.2-0.3,0.3-0.5c0.1-0.2,0.1-0.5,0.1-0.8V22h1.4L371.3,27.7L371.3,27.7z
			 M378.3,30.4h-5V22h4.9v1.3h-3.5v2.2h2.9v1.3h-2.9v2.3h3.6V30.4z M388.6,27.7c0,0.4-0.1,0.8-0.2,1.2c-0.1,0.3-0.2,0.6-0.4,0.8
			c-0.2,0.2-0.3,0.4-0.6,0.6s-0.5,0.2-0.8,0.3c-0.3,0-0.6,0.1-1,0.1c-0.3,0-0.7,0-1-0.1c-0.3-0.1-0.5-0.2-0.8-0.3s-0.4-0.3-0.6-0.6
			c-0.2-0.2-0.3-0.5-0.4-0.8c-0.1-0.3-0.2-0.7-0.2-1.2c0-0.4-0.1-1-0.1-1.5c0-0.9,0-1.6,0.2-2.1c0.1-0.6,0.3-1,0.5-1.3
			s0.5-0.5,0.9-0.7c0.4-0.1,0.9-0.2,1.4-0.2c0.5,0,1,0.1,1.4,0.2c0.4,0.1,0.7,0.4,0.9,0.7s0.4,0.8,0.5,1.3c0.1,0.6,0.2,1.3,0.2,2.1
			C388.7,26.7,388.7,27.2,388.6,27.7z M396,28.7h-0.9v1.7h-1.4v-1.7h-3.8v-0.9L393,22h2.1v5.4h0.9L396,28.7L396,28.7z"/>
		<polygon class="st1" points="391.5,27.4 393.7,27.4 393.8,23.1 393.7,23.1 		"/>
	</g>
</g>
<g id="unit05">
	<g>
		<path class="st2" d="M436.9,23.6c-0.2-0.2-0.3-0.4-0.6-0.5c-0.2-0.1-0.5-0.1-0.9-0.1c-0.4,0-0.7,0-0.9,0.1s-0.4,0.2-0.6,0.5
			c-0.2,0.2-0.2,0.6-0.3,1c-0.1,0.4-0.1,0.9-0.1,1.5c0,0.6,0,1.1,0.1,1.5c0.1,0.4,0.2,0.7,0.3,0.9c0.2,0.2,0.3,0.4,0.6,0.5
			s0.5,0.1,0.9,0.1c0.4,0,0.7,0,0.9-0.1s0.4-0.2,0.6-0.5c0.2-0.2,0.2-0.5,0.3-0.9c0.1-0.4,0.1-0.9,0.1-1.5s0-1.1-0.1-1.5
			C437.2,24.1,437.1,23.8,436.9,23.6z"/>
		<path class="st2" d="M469.8,23.6c-0.1-0.2-0.3-0.4-0.5-0.5c-0.2-0.1-0.5-0.2-0.8-0.2s-0.6,0-0.8,0.2c-0.2,0.1-0.3,0.3-0.5,0.5
			c-0.1,0.2-0.2,0.6-0.2,0.9c0,0.4-0.1,0.8-0.1,1.4c0,0.5,0,1,0.1,1.4s0.1,0.7,0.2,1c0.1,0.2,0.3,0.4,0.5,0.6
			c0.2,0.1,0.5,0.2,0.8,0.2s0.6-0.1,0.8-0.2c0.2-0.1,0.3-0.3,0.5-0.6c0.1-0.2,0.2-0.6,0.2-1c0-0.4,0.1-0.9,0.1-1.4s0-1-0.1-1.4
			C470,24.2,469.9,23.8,469.8,23.6z"/>
		<path class="st2" d="M444.8,24c-0.1-0.2-0.2-0.4-0.3-0.5c-0.1-0.1-0.3-0.2-0.4-0.2c-0.2,0-0.3-0.1-0.5-0.1c-0.2,0-0.4,0-0.6,0
			h-1.2v5.8h1.2c0.2,0,0.4,0,0.5,0s0.3,0,0.5-0.1c0.2,0,0.3-0.2,0.4-0.3c0.1-0.1,0.2-0.3,0.3-0.5c0.1-0.2,0.2-0.5,0.2-0.8
			c0-0.3,0.1-0.8,0.1-1.2c0-0.4,0-0.8-0.1-1.2C445,24.4,444.9,24.2,444.8,24z"/>
		<path class="st2" d="M409.9,14.3c-6.5,0-11.7,5.4-11.7,12.1l0,0c0,6.7,5.2,12.1,11.7,12.1l79,0.3V14.2L409.9,14.3L409.9,14.3z
			 M420.6,27.5c0,0.5,0,0.9-0.2,1.3c-0.1,0.4-0.3,0.6-0.5,0.9c-0.2,0.2-0.5,0.4-0.9,0.5s-0.9,0.2-1.4,0.2c-0.5,0-1,0-1.4-0.2
			c-0.4-0.1-0.7-0.3-0.9-0.5c-0.2-0.2-0.4-0.5-0.5-0.9c-0.1-0.4-0.2-0.8-0.2-1.3v-5.7h1.4v5.6c0,0.3,0,0.6,0.1,0.8s0.2,0.4,0.3,0.5
			c0.1,0.1,0.3,0.2,0.5,0.2c0.2,0,0.5,0.1,0.8,0.1c0.3,0,0.5,0,0.7-0.1c0.2,0,0.4-0.1,0.5-0.2c0.2-0.1,0.2-0.3,0.3-0.5
			c0.1-0.2,0.1-0.5,0.1-0.8v-5.6h1.4L420.6,27.5L420.6,27.5z M430.4,30.2h-1.4v-7.1h0l-0.2,0.5c0,0.2-0.1,0.3-0.2,0.5
			c0,0.2-0.1,0.3-0.1,0.4l-1,3.4h-2.1l-1.1-3.4c0-0.1-0.1-0.2-0.1-0.4c0-0.2-0.1-0.3-0.2-0.4c0-0.2-0.1-0.4-0.2-0.5h0v7.1h-1.4v-8.4
			h2.4l1.5,5.1h0l1.6-5.1h2.3L430.4,30.2L430.4,30.2z M438.6,27.5c-0.1,0.4-0.2,0.8-0.3,1.2c-0.1,0.3-0.3,0.6-0.5,0.8
			s-0.4,0.4-0.7,0.5c-0.2,0.1-0.5,0.2-0.8,0.3c-0.3,0-0.6,0.1-1,0.1c-0.3,0-0.7,0-1-0.1c-0.3,0-0.6-0.1-0.8-0.3
			c-0.2-0.2-0.5-0.3-0.7-0.5c-0.2-0.2-0.3-0.5-0.5-0.8c-0.1-0.3-0.2-0.7-0.3-1.2c-0.1-0.4-0.1-1-0.1-1.6c0-0.9,0.1-1.6,0.2-2.2
			c0.2-0.6,0.4-1,0.7-1.3s0.6-0.6,1-0.7c0.4-0.1,0.9-0.2,1.4-0.2c0.3,0,0.7,0,1,0.1c0.3,0,0.6,0.2,0.8,0.3s0.5,0.3,0.7,0.5
			s0.3,0.5,0.5,0.8c0.1,0.3,0.2,0.7,0.3,1.2c0.1,0.4,0.1,1,0.1,1.5S438.7,27.1,438.6,27.5z M446.4,27.5c-0.1,0.4-0.2,0.8-0.3,1.1
			c-0.1,0.3-0.3,0.6-0.5,0.8s-0.4,0.4-0.6,0.5s-0.5,0.2-0.8,0.2c-0.3,0-0.6,0.1-0.9,0.1h-2.9v-8.4h2.9c0.3,0,0.6,0,0.9,0.1
			c0.3,0,0.5,0.1,0.8,0.2c0.2,0.1,0.5,0.3,0.7,0.4c0.2,0.2,0.3,0.4,0.5,0.8c0.2,0.3,0.2,0.7,0.3,1.1s0.1,0.9,0.1,1.5
			C446.6,26.5,446.5,27,446.4,27.5z M454.2,27.5c0,0.5,0,0.9-0.2,1.3c-0.1,0.4-0.3,0.6-0.5,0.9c-0.2,0.2-0.5,0.4-0.9,0.5
			s-0.9,0.2-1.4,0.2s-1,0-1.4-0.2c-0.4-0.1-0.7-0.3-0.9-0.5c-0.2-0.2-0.4-0.5-0.5-0.9c-0.1-0.4-0.2-0.8-0.2-1.3v-5.7h1.4v5.6
			c0,0.3,0,0.6,0.1,0.8s0.2,0.4,0.3,0.5c0.1,0.1,0.3,0.2,0.5,0.2c0.2,0,0.5,0.1,0.8,0.1c0.3,0,0.5,0,0.7-0.1c0.2,0,0.4-0.1,0.5-0.2
			c0.2-0.1,0.2-0.3,0.3-0.5c0.1-0.2,0.1-0.5,0.1-0.8v-5.6h1.4L454.2,27.5L454.2,27.5z M461.2,30.2h-5v-8.4h4.9v1.3h-3.5v2.2h2.9v1.3
			h-2.9v2.3h3.6V30.2z M471.5,27.4c0,0.4-0.1,0.8-0.2,1.2c-0.1,0.3-0.2,0.6-0.4,0.8s-0.3,0.4-0.6,0.6c-0.2,0.2-0.5,0.2-0.8,0.3
			s-0.6,0.1-1,0.1c-0.3,0-0.7,0-1-0.1c-0.3-0.1-0.5-0.2-0.8-0.3s-0.4-0.3-0.6-0.6c-0.2-0.2-0.3-0.5-0.4-0.8
			c-0.1-0.3-0.2-0.7-0.2-1.2c0-0.4-0.1-1-0.1-1.5c0-0.9,0-1.6,0.2-2.1c0.1-0.6,0.3-1,0.5-1.3s0.5-0.5,0.9-0.7
			c0.4-0.1,0.9-0.2,1.4-0.2c0.5,0,1,0.1,1.4,0.2s0.7,0.4,0.9,0.7s0.4,0.8,0.5,1.3c0.1,0.6,0.2,1.3,0.2,2.1
			C471.5,26.5,471.5,27,471.5,27.4z M477.9,29c-0.2,0.4-0.3,0.6-0.6,0.8c-0.2,0.2-0.5,0.4-0.9,0.4c-0.3,0.1-0.7,0.1-1.1,0.1
			c-0.3,0-0.6,0-0.9,0c-0.3,0-0.5-0.1-0.7-0.1c-0.2,0-0.4-0.1-0.6-0.2v-1c0.2,0,0.3,0,0.5,0.1c0.2,0,0.3,0,0.5,0c0.2,0,0.4,0,0.6,0
			c0.3,0,0.6,0,0.8-0.1c0.2,0,0.4-0.2,0.5-0.3s0.2-0.3,0.3-0.4s0.1-0.4,0.1-0.7c0-0.2,0-0.5,0-0.6c0-0.2-0.1-0.3-0.2-0.4
			c-0.1-0.1-0.2-0.2-0.4-0.2c-0.2,0-0.4-0.1-0.6-0.1s-0.5,0-0.7,0s-0.4,0-0.6,0c-0.2,0-0.4,0-0.6,0.1v-4.6h4.3V23h-3v1.9
			c0.1,0,0.2,0,0.3,0c0.1,0,0.2,0,0.3,0c0.1,0,0.2,0,0.3,0c0.4,0,0.7,0,1,0.1c0.3,0.1,0.5,0.2,0.7,0.4s0.3,0.5,0.4,0.8
			c0.1,0.4,0.2,0.8,0.2,1.4C478.1,28.2,478,28.7,477.9,29z"/>
	</g>
</g>
</svg>
