<?xml version="1.0" encoding="utf-8"?>
<!-- Generator: Adobe Illustrator 22.1.0, SVG Export Plug-In . SVG Version: 6.00 Build 0)  -->
<svg version="1.1" xmlns="http://www.w3.org/2000/svg" xmlns:xlink="http://www.w3.org/1999/xlink" x="0px" y="0px"
	 viewBox="0 0 502.9 665.2" style="enable-background:new 0 0 502.9 665.2;" xml:space="preserve">
<style type="text/css">
	.st0{fill:#D59902;stroke:#FFFFFF;stroke-width:2;stroke-miterlimit:10;}
	.st1{fill:#AA2601;stroke:#FFFFFF;stroke-width:0.75;stroke-miterlimit:10;}
	.st2{fill:#FFFFFF;}
	.st3{fill:#AA2601;}
</style>
<g id="home">
	<g>
		<path class="st0" d="M84.4,264.2c-0.4-0.6-0.9-1-1.5-1.2s-1.4-0.3-2.4-0.3s-1.8,0.1-2.4,0.3s-1.1,0.6-1.5,1.2s-0.6,1.4-0.8,2.4
			s-0.2,2.2-0.2,3.8c0,1.5,0.1,2.8,0.2,3.7s0.4,1.8,0.8,2.3s0.9,1,1.5,1.2s1.4,0.3,2.4,0.3s1.8-0.1,2.4-0.3s1.1-0.6,1.5-1.2
			s0.6-1.3,0.8-2.3s0.2-2.2,0.2-3.7c0-1.5-0.1-2.8-0.2-3.8S84.8,264.8,84.4,264.2z"/>
		<path class="st0" d="M91.1,226c-25.9,0-46.9,21-46.9,46.9s21,46.9,46.9,46.9s46.9-21,46.9-46.9S117,226,91.1,226z M67.6,280.7
			h-3.5v-9h-9v9h-3.5v-20.9h3.5v8.7h9v-8.7h3.5V280.7z M88.8,274.1c-0.2,1.1-0.4,2.1-0.8,2.9s-0.7,1.5-1.2,2s-1,1-1.7,1.3
			s-1.3,0.5-2.1,0.7c-0.8,0.1-1.6,0.2-2.5,0.2c-0.9,0-1.7-0.1-2.5-0.2c-0.8-0.1-1.5-0.4-2.1-0.7c-0.6-0.3-1.2-0.7-1.7-1.3
			s-0.9-1.2-1.3-2s-0.6-1.8-0.8-2.9s-0.3-2.4-0.3-3.9c0-2.2,0.2-4,0.6-5.4s1-2.5,1.7-3.3s1.6-1.4,2.7-1.7s2.3-0.5,3.6-0.5
			c0.9,0,1.7,0.1,2.5,0.2s1.5,0.4,2.1,0.7s1.2,0.8,1.7,1.3s0.9,1.2,1.2,2s0.6,1.8,0.8,2.9s0.3,2.4,0.3,3.8S89,273,88.8,274.1z
			 M113.5,280.7H110v-17.6h-0.1l-0.4,1.3c-0.1,0.4-0.2,0.8-0.4,1.2s-0.2,0.8-0.3,1l-2.7,8.4h-5.3l-2.8-8.5c-0.1-0.3-0.2-0.6-0.3-1
			s-0.2-0.8-0.4-1.1c-0.1-0.4-0.3-0.9-0.4-1.3h-0.1v17.6h-3.5v-20.9h6.1l3.9,12.6h0.1l4-12.6h6V280.7z M118.8,280.7v-20.9h12.6v3.3
			h-9.1v5.5h7.6v3.2h-7.6v5.7h9.3v3.3H118.8z"/>
	</g>
</g>
<g id="unit01">
	<g>
<path class="st1" d="M261.1,342.7c-0.2-0.5-0.5-0.9-0.8-1.2c-0.3-0.3-0.7-0.5-1.1-0.6s-0.9-0.2-1.3-0.3c-0.5,0-1,0-1.5,0h-3V355h3
	c0.5,0,1,0,1.5,0s0.9-0.1,1.3-0.3c0.4-0.1,0.8-0.4,1.1-0.7c0.3-0.3,0.6-0.7,0.9-1.3c0.2-0.5,0.4-1.2,0.6-2.1
	c0.1-0.8,0.2-1.9,0.2-3.1c0-1.1-0.1-2.1-0.2-2.9S261.4,343.3,261.1,342.7z"/>
<path class="st1" d="M325.5,341.8c-0.3-0.6-0.7-1-1.2-1.3s-1.2-0.4-2-0.4s-1.5,0.1-2,0.4c-0.5,0.3-0.9,0.7-1.2,1.3
	c-0.3,0.6-0.5,1.4-0.6,2.3c-0.1,0.9-0.2,2.1-0.2,3.5c0,1.3,0.1,2.5,0.2,3.5s0.3,1.8,0.6,2.5c0.3,0.6,0.7,1.1,1.2,1.4
	c0.5,0.3,1.2,0.5,2,0.5s1.5-0.2,2-0.5c0.5-0.3,0.9-0.8,1.2-1.4c0.3-0.6,0.5-1.5,0.6-2.4s0.2-2.2,0.2-3.5s-0.1-2.5-0.2-3.4
	S325.8,342.4,325.5,341.8z"/>
<path class="st1" d="M171.1,319.8c-16.7,0-30.2,13.5-30.2,30.2v0c0,16.7,13.5,30.2,30.2,30.2h331.7v-60.5H171.1z M224,358.2h-3.5
	v-17.6h-0.1l-0.4,1.3c-0.1,0.4-0.2,0.8-0.4,1.2c-0.1,0.4-0.2,0.8-0.3,1l-2.7,8.4h-5.3l-2.8-8.5c-0.1-0.3-0.2-0.6-0.3-1
	c-0.1-0.4-0.2-0.8-0.4-1.1c-0.1-0.4-0.3-0.9-0.4-1.3h-0.1v17.6h-3.5v-20.9h6.1l3.9,12.6h0.1l4-12.6h6V358.2z M245.2,351.7
	c-0.2,1.1-0.4,2.1-0.8,2.9c-0.3,0.8-0.8,1.5-1.2,2c-0.5,0.5-1,1-1.7,1.3s-1.3,0.5-2.1,0.7c-0.8,0.1-1.6,0.2-2.5,0.2
	c-0.9,0-1.7-0.1-2.5-0.2s-1.5-0.3-2.1-0.7s-1.2-0.7-1.7-1.3c-0.5-0.5-0.9-1.2-1.3-2c-0.3-0.8-0.6-1.8-0.8-2.9s-0.3-2.4-0.3-3.9
	c0-2.2,0.2-4,0.6-5.4s1-2.5,1.7-3.3s1.6-1.4,2.7-1.7s2.3-0.5,3.6-0.5c0.9,0,1.7,0.1,2.5,0.2s1.5,0.4,2.1,0.7s1.2,0.8,1.7,1.3
	c0.5,0.5,0.9,1.2,1.2,2c0.3,0.8,0.6,1.8,0.8,2.9s0.3,2.4,0.3,3.8S245.4,350.6,245.2,351.7z M265.3,351.5c-0.2,1.1-0.4,2.1-0.8,2.8
	c-0.3,0.8-0.7,1.4-1.2,1.9c-0.5,0.5-1,0.9-1.6,1.2c-0.6,0.3-1.3,0.5-2,0.6c-0.7,0.1-1.5,0.2-2.3,0.2h-7.5v-20.9h7.5
	c0.8,0,1.5,0.1,2.2,0.2c0.7,0.1,1.4,0.3,2,0.6s1.2,0.7,1.7,1.1s0.9,1.1,1.3,1.9s0.6,1.7,0.8,2.8c0.2,1.1,0.3,2.3,0.3,3.8
	C265.6,349.1,265.5,350.4,265.3,351.5z M285.2,351.5c0,1.2-0.1,2.3-0.4,3.2c-0.3,0.9-0.7,1.6-1.3,2.2s-1.4,1-2.4,1.3
	c-1,0.3-2.2,0.4-3.5,0.4s-2.6-0.1-3.5-0.4c-1-0.3-1.8-0.7-2.4-1.3c-0.6-0.6-1.1-1.3-1.4-2.2c-0.3-0.9-0.4-1.9-0.4-3.2v-14.2h3.5
	v14c0,0.8,0.1,1.5,0.2,2.1s0.4,1,0.7,1.3c0.3,0.3,0.8,0.5,1.3,0.6c0.5,0.1,1.2,0.2,2,0.2c0.7,0,1.3-0.1,1.8-0.2
	c0.5-0.1,1-0.3,1.3-0.6c0.4-0.3,0.6-0.7,0.8-1.3c0.2-0.5,0.3-1.2,0.3-2.1v-14h3.5V351.5z M303.3,358.2h-12.8v-20.9h12.6v3.3H294
	v5.5h7.6v3.2H294v5.7h9.3V358.2z M329.8,351.4c-0.1,1.1-0.3,2.1-0.6,2.9c-0.3,0.8-0.6,1.5-1,2.1s-0.9,1-1.5,1.4s-1.2,0.6-2,0.7
	s-1.6,0.2-2.5,0.2s-1.8-0.1-2.5-0.2c-0.7-0.2-1.4-0.4-2-0.7s-1.1-0.8-1.5-1.4s-0.8-1.3-1-2.1c-0.3-0.8-0.5-1.8-0.6-2.9
	c-0.1-1.1-0.2-2.4-0.2-3.8c0-2.2,0.1-3.9,0.4-5.3c0.3-1.4,0.8-2.5,1.4-3.3s1.4-1.3,2.4-1.7c1-0.3,2.2-0.5,3.5-0.5
	c1.4,0,2.5,0.2,3.5,0.5c1,0.3,1.8,0.9,2.4,1.7c0.6,0.8,1.1,1.9,1.4,3.3c0.3,1.4,0.4,3.2,0.4,5.3C330,349,330,350.3,329.8,351.4z
		M340.9,358.2h-3.5v-17.6h-3.8l1-3.3h6.4V358.2z"/>
<path class="st1" d="M240.8,341.7c-0.4-0.6-0.9-1-1.5-1.2c-0.6-0.2-1.4-0.3-2.4-0.3s-1.8,0.1-2.4,0.3s-1.1,0.6-1.5,1.2
	c-0.4,0.6-0.6,1.4-0.8,2.4c-0.2,1-0.2,2.2-0.2,3.8c0,1.5,0.1,2.8,0.2,3.7c0.2,1,0.4,1.8,0.8,2.3c0.4,0.6,0.9,1,1.5,1.2
	s1.4,0.3,2.4,0.3s1.8-0.1,2.4-0.3c0.6-0.2,1.1-0.6,1.5-1.2c0.4-0.6,0.6-1.3,0.8-2.3c0.2-1,0.2-2.2,0.2-3.7c0-1.5-0.1-2.8-0.2-3.8
	C241.4,343.1,241.2,342.3,240.8,341.7z"/>
	</g>
</g>
<g id="unit02">
	<g>
		<path class="st2" d="M325.5,412.2c-0.3-0.6-0.7-1-1.2-1.3s-1.2-0.4-2-0.4s-1.5,0.1-2,0.4s-0.9,0.7-1.2,1.3s-0.5,1.4-0.6,2.3
			c-0.1,0.9-0.2,2.1-0.2,3.5c0,1.3,0.1,2.5,0.2,3.5s0.3,1.8,0.6,2.5s0.7,1.1,1.2,1.4s1.2,0.5,2,0.5s1.5-0.2,2-0.5
			c0.5-0.3,0.9-0.8,1.2-1.4s0.5-1.5,0.6-2.4s0.2-2.2,0.2-3.5s-0.1-2.5-0.2-3.4S325.8,412.8,325.5,412.2z"/>
		<path class="st2" d="M240.8,412.1c-0.4-0.6-0.9-1-1.5-1.2c-0.6-0.2-1.4-0.3-2.4-0.3s-1.8,0.1-2.4,0.3s-1.1,0.6-1.5,1.2
			c-0.4,0.6-0.6,1.4-0.8,2.4c-0.2,1-0.2,2.2-0.2,3.8c0,1.5,0.1,2.8,0.2,3.7c0.2,1,0.4,1.8,0.8,2.3c0.4,0.6,0.9,1,1.5,1.2
			s1.4,0.3,2.4,0.3s1.8-0.1,2.4-0.3c0.6-0.2,1.1-0.6,1.5-1.2c0.4-0.6,0.6-1.3,0.8-2.3c0.2-1,0.2-2.2,0.2-3.7c0-1.5-0.1-2.8-0.2-3.8
			C241.5,413.4,241.2,412.6,240.8,412.1z"/>
		<path class="st2" d="M261.2,413.1c-0.2-0.5-0.5-0.9-0.8-1.2c-0.3-0.3-0.7-0.5-1.1-0.6s-0.9-0.2-1.3-0.3c-0.5,0-1,0-1.5,0h-3v14.4
			h3c0.5,0,1,0,1.5,0s0.9-0.1,1.3-0.3s0.8-0.4,1.1-0.7c0.3-0.3,0.6-0.7,0.9-1.3c0.2-0.5,0.4-1.2,0.6-2.1c0.1-0.8,0.2-1.9,0.2-3.1
			c0-1.1-0.1-2.1-0.2-2.9S261.4,413.6,261.2,413.1z"/>
		<path class="st2" d="M171.1,390c-16.7,0-30.2,13.5-30.2,30.2v0c0,16.7,13.5,30.2,30.2,30.2h331.7V390H171.1z M224,428.6h-3.5
			v-17.6h-0.1l-0.4,1.3c-0.1,0.4-0.2,0.8-0.4,1.2c-0.1,0.4-0.2,0.8-0.3,1l-2.7,8.4h-5.3l-2.8-8.5c-0.1-0.3-0.2-0.6-0.3-1
			c-0.1-0.4-0.2-0.8-0.4-1.1c-0.1-0.4-0.3-0.9-0.4-1.3h-0.1v17.6h-3.5v-20.9h6.1l3.9,12.6h0.1l4-12.6h6V428.6z M245.2,422
			c-0.2,1.1-0.4,2.1-0.8,2.9c-0.3,0.8-0.7,1.5-1.2,2c-0.5,0.5-1,1-1.7,1.3s-1.3,0.5-2.1,0.7c-0.8,0.1-1.6,0.2-2.5,0.2
			c-0.9,0-1.7-0.1-2.5-0.2s-1.5-0.3-2.1-0.7s-1.2-0.7-1.7-1.3s-0.9-1.2-1.3-2c-0.3-0.8-0.6-1.8-0.8-2.9s-0.3-2.4-0.3-3.9
			c0-2.2,0.2-4,0.6-5.4s1-2.5,1.7-3.3s1.6-1.4,2.7-1.7s2.3-0.5,3.6-0.5c0.9,0,1.7,0.1,2.5,0.2s1.5,0.4,2.1,0.7s1.2,0.8,1.7,1.3
			c0.5,0.5,0.9,1.2,1.2,2c0.3,0.8,0.6,1.8,0.8,2.9s0.3,2.4,0.3,3.8S245.4,420.9,245.2,422z M265.3,421.8c-0.2,1.1-0.4,2.1-0.8,2.8
			c-0.3,0.8-0.7,1.4-1.2,1.9c-0.5,0.5-1,0.9-1.6,1.2c-0.6,0.3-1.3,0.5-2,0.6s-1.5,0.2-2.3,0.2h-7.5v-20.9h7.5c0.8,0,1.5,0.1,2.2,0.2
			s1.4,0.3,2,0.6s1.2,0.7,1.7,1.1s0.9,1.1,1.3,1.9s0.6,1.7,0.8,2.8c0.2,1.1,0.3,2.3,0.3,3.8C265.6,419.4,265.5,420.7,265.3,421.8z
			 M285.2,421.8c0,1.2-0.1,2.3-0.4,3.2c-0.3,0.9-0.7,1.6-1.3,2.2s-1.4,1-2.4,1.3s-2.2,0.4-3.5,0.4s-2.6-0.1-3.5-0.4
			c-1-0.3-1.8-0.7-2.4-1.3c-0.6-0.6-1.1-1.3-1.4-2.2c-0.3-0.9-0.4-1.9-0.4-3.2v-14.2h3.5v14c0,0.8,0.1,1.5,0.2,2.1s0.4,1,0.7,1.3
			c0.3,0.3,0.8,0.5,1.3,0.6c0.5,0.1,1.2,0.2,2,0.2c0.7,0,1.3-0.1,1.8-0.2c0.5-0.1,1-0.3,1.3-0.6c0.4-0.3,0.6-0.7,0.8-1.3
			c0.2-0.5,0.3-1.2,0.3-2.1v-14h3.5V421.8z M303.3,428.6h-12.8v-20.9h12.6v3.3H294v5.5h7.6v3.2H294v5.7h9.3V428.6z M329.8,421.7
			c-0.1,1.1-0.3,2.1-0.6,2.9s-0.6,1.5-1,2.1s-0.9,1-1.5,1.4s-1.2,0.6-2,0.7s-1.6,0.2-2.5,0.2s-1.8-0.1-2.5-0.2
			c-0.7-0.2-1.4-0.4-2-0.7s-1.1-0.8-1.5-1.4s-0.8-1.3-1-2.1s-0.5-1.8-0.6-2.9c-0.1-1.1-0.2-2.4-0.2-3.8c0-2.2,0.1-3.9,0.4-5.3
			s0.8-2.5,1.4-3.3s1.4-1.3,2.4-1.7c1-0.3,2.2-0.5,3.5-0.5c1.4,0,2.5,0.2,3.5,0.5c1,0.3,1.8,0.9,2.4,1.7c0.6,0.8,1.1,1.9,1.4,3.3
			s0.4,3.2,0.4,5.3C330,419.3,330,420.6,329.8,421.7z M346.8,425.3v3.3h-12.9v-2.1c1.7-1.8,3.1-3.3,4.3-4.6s2.1-2.5,2.9-3.5
			c0.7-1,1.3-1.9,1.6-2.7s0.5-1.5,0.5-2.2c0-0.5-0.1-0.9-0.2-1.3s-0.3-0.7-0.6-0.9s-0.7-0.4-1.2-0.5c-0.5-0.1-1.2-0.2-2-0.2
			c-0.6,0-1.1,0-1.6,0.1c-0.5,0.1-1,0.1-1.5,0.2c-0.5,0.1-1,0.1-1.5,0.2v-2.7c0.5-0.2,1-0.4,1.6-0.5c0.5-0.1,1.1-0.3,1.8-0.4
			c0.7-0.1,1.5-0.2,2.4-0.2c1.2,0,2.2,0.1,3,0.4c0.8,0.3,1.5,0.6,2,1.1c0.5,0.5,0.9,1.1,1.1,1.8s0.3,1.6,0.3,2.6
			c0,0.8-0.1,1.6-0.4,2.4s-0.7,1.8-1.3,2.8c-0.6,1-1.4,2.1-2.4,3.2c-1,1.2-2.2,2.4-3.7,3.8v0H346.8z"/>
	</g>
</g>
<g id="unit03">
	<g>
		<path class="st3" d="M240.8,484.7c-0.4-0.6-0.9-1-1.5-1.2c-0.6-0.2-1.4-0.3-2.4-0.3s-1.8,0.1-2.4,0.3s-1.1,0.6-1.5,1.2
			c-0.4,0.6-0.6,1.4-0.8,2.4c-0.2,1-0.2,2.2-0.2,3.8c0,1.5,0.1,2.8,0.2,3.7c0.2,1,0.4,1.8,0.8,2.3c0.4,0.6,0.9,1,1.5,1.2
			s1.4,0.3,2.4,0.3s1.8-0.1,2.4-0.3c0.6-0.2,1.1-0.6,1.5-1.2c0.4-0.6,0.6-1.3,0.8-2.3c0.2-1,0.2-2.2,0.2-3.7c0-1.5-0.1-2.8-0.2-3.8
			C241.4,486.1,241.2,485.3,240.8,484.7z"/>
		<path class="st3" d="M325.5,484.8c-0.3-0.6-0.7-1-1.2-1.3s-1.2-0.4-2-0.4s-1.5,0.1-2,0.4s-0.9,0.7-1.2,1.3s-0.5,1.4-0.6,2.3
			c-0.1,0.9-0.2,2.1-0.2,3.5c0,1.3,0.1,2.5,0.2,3.5s0.3,1.8,0.6,2.5s0.7,1.1,1.2,1.4s1.2,0.5,2,0.5s1.5-0.2,2-0.5
			c0.5-0.3,0.9-0.8,1.2-1.4s0.5-1.5,0.6-2.4s0.2-2.2,0.2-3.5s-0.1-2.5-0.2-3.4S325.8,485.4,325.5,484.8z"/>
		<path class="st3" d="M261.1,485.7c-0.2-0.5-0.5-0.9-0.8-1.2c-0.3-0.3-0.7-0.5-1.1-0.6s-0.9-0.2-1.3-0.3c-0.5,0-1,0-1.5,0h-3V498h3
			c0.5,0,1,0,1.5,0s0.9-0.1,1.3-0.3s0.8-0.4,1.1-0.7c0.3-0.3,0.6-0.7,0.9-1.3c0.2-0.5,0.4-1.2,0.6-2.1c0.1-0.8,0.2-1.9,0.2-3.1
			c0-1.1-0.1-2.1-0.2-2.9S261.4,486.3,261.1,485.7z"/>
		<path class="st3" d="M171.1,460.9c-16.7,0-30.2,13.5-30.2,30.2v0c0,16.7,13.5,30.2,30.2,30.2h331.7v-60.5H171.1z M224,501.2h-3.5
			v-17.6h-0.1l-0.4,1.3c-0.1,0.4-0.2,0.8-0.4,1.2c-0.1,0.4-0.2,0.8-0.3,1l-2.7,8.4h-5.3l-2.8-8.5c-0.1-0.3-0.2-0.6-0.3-1
			c-0.1-0.4-0.2-0.8-0.4-1.1c-0.1-0.4-0.3-0.9-0.4-1.3h-0.1v17.6h-3.5v-20.9h6.1l3.9,12.6h0.1l4-12.6h6V501.2z M245.2,494.7
			c-0.2,1.1-0.4,2.1-0.8,2.9c-0.3,0.8-0.7,1.5-1.2,2c-0.5,0.5-1,1-1.7,1.3s-1.3,0.5-2.1,0.7c-0.8,0.1-1.6,0.2-2.5,0.2
			c-0.9,0-1.7-0.1-2.5-0.2s-1.5-0.3-2.1-0.7s-1.2-0.7-1.7-1.3s-0.9-1.2-1.3-2c-0.3-0.8-0.6-1.8-0.8-2.9s-0.3-2.4-0.3-3.9
			c0-2.2,0.2-4,0.6-5.4s1-2.5,1.7-3.3s1.6-1.4,2.7-1.7s2.3-0.5,3.6-0.5c0.9,0,1.7,0.1,2.5,0.2s1.5,0.4,2.1,0.7s1.2,0.8,1.7,1.3
			c0.5,0.5,0.9,1.2,1.2,2c0.3,0.8,0.6,1.8,0.8,2.9s0.3,2.4,0.3,3.8S245.4,493.6,245.2,494.7z M265.3,494.5c-0.2,1.1-0.4,2.1-0.8,2.8
			c-0.3,0.8-0.7,1.4-1.2,1.9c-0.5,0.5-1,0.9-1.6,1.2c-0.6,0.3-1.3,0.5-2,0.6s-1.5,0.2-2.3,0.2h-7.5v-20.9h7.5c0.8,0,1.5,0.1,2.2,0.2
			s1.4,0.3,2,0.6s1.2,0.7,1.7,1.1s0.9,1.1,1.3,1.9s0.6,1.7,0.8,2.8c0.2,1.1,0.3,2.3,0.3,3.8C265.6,492.1,265.5,493.4,265.3,494.5z
			 M285.2,494.5c0,1.2-0.1,2.3-0.4,3.2c-0.3,0.9-0.7,1.6-1.3,2.2s-1.4,1-2.4,1.3s-2.2,0.4-3.5,0.4s-2.6-0.1-3.5-0.4
			c-1-0.3-1.8-0.7-2.4-1.3c-0.6-0.6-1.1-1.3-1.4-2.2c-0.3-0.9-0.4-1.9-0.4-3.2v-14.2h3.5v14c0,0.8,0.1,1.5,0.2,2.1s0.4,1,0.7,1.3
			c0.3,0.3,0.8,0.5,1.3,0.6c0.5,0.1,1.2,0.2,2,0.2c0.7,0,1.3-0.1,1.8-0.2c0.5-0.1,1-0.3,1.3-0.6c0.4-0.3,0.6-0.7,0.8-1.3
			c0.2-0.5,0.3-1.2,0.3-2.1v-14h3.5V494.5z M303.3,501.2h-12.8v-20.9h12.6v3.3H294v5.5h7.6v3.2H294v5.7h9.3V501.2z M329.8,494.4
			c-0.1,1.1-0.3,2.1-0.6,2.9s-0.6,1.5-1,2.1s-0.9,1-1.5,1.4s-1.2,0.6-2,0.7s-1.6,0.2-2.5,0.2s-1.8-0.1-2.5-0.2
			c-0.7-0.2-1.4-0.4-2-0.7s-1.1-0.8-1.5-1.4s-0.8-1.3-1-2.1s-0.5-1.8-0.6-2.9c-0.1-1.1-0.2-2.4-0.2-3.8c0-2.2,0.1-3.9,0.4-5.3
			s0.8-2.5,1.4-3.3s1.4-1.3,2.4-1.7c1-0.3,2.2-0.5,3.5-0.5c1.4,0,2.5,0.2,3.5,0.5c1,0.3,1.8,0.9,2.4,1.7c0.6,0.8,1.1,1.9,1.4,3.3
			s0.4,3.2,0.4,5.3C330,492,330,493.3,329.8,494.4z M346.3,498.4c-0.3,0.8-0.8,1.5-1.4,1.9c-0.6,0.5-1.3,0.8-2.1,1
			c-0.8,0.2-1.8,0.3-2.8,0.3c-0.7,0-1.4,0-2.1-0.1s-1.3-0.2-1.8-0.3c-0.6-0.1-1.2-0.3-1.8-0.5v-2.6c0.5,0.1,1,0.1,1.5,0.2
			c0.4,0,0.9,0.1,1.4,0.1s1,0,1.5,0c0.7,0,1.3,0,1.8-0.1c0.5-0.1,1-0.2,1.4-0.4s0.7-0.5,0.9-0.9c0.2-0.4,0.3-0.9,0.3-1.6
			c0-0.8-0.1-1.4-0.3-1.8s-0.5-0.8-1-1s-1.1-0.3-1.9-0.4c-0.8-0.1-1.8-0.1-3-0.1l0-3.1c1.2,0,2.2-0.1,3-0.2c0.8-0.1,1.3-0.3,1.7-0.5
			c0.4-0.3,0.7-0.6,0.8-1s0.2-0.9,0.2-1.5c0-0.5-0.1-0.9-0.2-1.3c-0.1-0.3-0.4-0.6-0.7-0.8s-0.7-0.4-1.3-0.5s-1.2-0.1-1.9-0.1
			c-0.4,0-0.9,0-1.4,0.1s-0.9,0.1-1.3,0.1c-0.5,0.1-1,0.1-1.4,0.2V481c0.5-0.2,1.1-0.4,1.7-0.5c0.5-0.1,1.1-0.3,1.8-0.4
			c0.7-0.1,1.4-0.2,2.2-0.2c2.1,0,3.6,0.5,4.6,1.4s1.5,2.4,1.5,4.3c0,0.6-0.1,1.2-0.2,1.6s-0.3,0.9-0.5,1.2s-0.4,0.6-0.7,0.8
			c-0.2,0.2-0.5,0.4-0.8,0.5c-0.3,0.1-0.5,0.2-0.8,0.3c-0.3,0.1-0.5,0.1-0.7,0.1v0c0.2,0,0.4,0.1,0.7,0.1c0.3,0,0.6,0.1,0.9,0.2
			c0.3,0.1,0.6,0.3,0.9,0.5c0.3,0.2,0.6,0.5,0.8,0.9s0.4,0.8,0.6,1.4s0.2,1.2,0.2,2C346.7,496.6,346.6,497.6,346.3,498.4z"/>
	</g>
</g>
<g id="unit04">
	<g>
		<path class="st2" d="M325.5,553.8c-0.3-0.6-0.7-1-1.2-1.3s-1.2-0.4-2-0.4s-1.5,0.1-2,0.4c-0.5,0.3-0.9,0.7-1.2,1.3
			c-0.3,0.6-0.5,1.4-0.6,2.3c-0.1,0.9-0.2,2.1-0.2,3.5c0,1.3,0.1,2.5,0.2,3.5s0.3,1.8,0.6,2.5c0.3,0.6,0.7,1.1,1.2,1.4
			c0.5,0.3,1.2,0.5,2,0.5s1.5-0.2,2-0.5c0.5-0.3,0.9-0.8,1.2-1.4c0.3-0.6,0.5-1.5,0.6-2.4s0.2-2.2,0.2-3.5s-0.1-2.5-0.2-3.4
			S325.8,554.4,325.5,553.8z"/>
		<path class="st2" d="M240.8,553.7c-0.4-0.6-0.9-1-1.5-1.2c-0.6-0.2-1.4-0.3-2.4-0.3s-1.8,0.1-2.4,0.3s-1.1,0.6-1.5,1.2
			c-0.4,0.6-0.6,1.4-0.8,2.4c-0.2,1-0.2,2.2-0.2,3.8c0,1.5,0.1,2.8,0.2,3.7c0.2,1,0.4,1.8,0.8,2.3c0.4,0.6,0.9,1,1.5,1.2
			s1.4,0.3,2.4,0.3s1.8-0.1,2.4-0.3c0.6-0.2,1.1-0.6,1.5-1.2c0.4-0.6,0.6-1.3,0.8-2.3c0.2-1,0.2-2.2,0.2-3.7c0-1.5-0.1-2.8-0.2-3.8
			C241.4,555.1,241.2,554.3,240.8,553.7z"/>
		<path class="st2" d="M261.1,554.7c-0.2-0.5-0.5-0.9-0.8-1.2c-0.3-0.3-0.7-0.5-1.1-0.6s-0.9-0.2-1.3-0.3c-0.5,0-1,0-1.5,0h-3V567h3
			c0.5,0,1,0,1.4,0s0.9-0.1,1.3-0.3c0.4-0.1,0.8-0.4,1.1-0.7c0.3-0.3,0.6-0.7,0.9-1.3c0.2-0.5,0.4-1.2,0.6-2.1
			c0.1-0.8,0.2-1.9,0.2-3.1c0-1.1-0.1-2.1-0.2-2.9S261.4,555.3,261.1,554.7z"/>
		<path class="st2" d="M171.1,530.4c-16.7,0-30.2,13.5-30.2,30.2v0c0,16.7,13.5,30.2,30.2,30.2h331.7v-60.5H171.1z M224,570.2h-3.5
			v-17.6h-0.1l-0.4,1.3c-0.1,0.4-0.2,0.8-0.4,1.2c-0.1,0.4-0.2,0.8-0.3,1l-2.7,8.4h-5.3l-2.8-8.5c-0.1-0.3-0.2-0.6-0.3-1
			c-0.1-0.4-0.2-0.8-0.4-1.1c-0.1-0.4-0.3-0.9-0.4-1.3h-0.1v17.6h-3.5v-20.9h6.1l3.9,12.6h0.1l4-12.6h6V570.2z M245.2,563.7
			c-0.2,1.1-0.4,2.1-0.8,2.9c-0.3,0.8-0.7,1.5-1.2,2c-0.5,0.5-1.1,1-1.7,1.3s-1.3,0.5-2.1,0.7c-0.8,0.1-1.6,0.2-2.5,0.2
			c-0.9,0-1.7-0.1-2.5-0.2s-1.5-0.3-2.1-0.7s-1.2-0.7-1.7-1.3c-0.5-0.5-0.9-1.2-1.3-2c-0.3-0.8-0.6-1.8-0.8-2.9s-0.3-2.4-0.3-3.9
			c0-2.2,0.2-4,0.6-5.4s1-2.5,1.7-3.3s1.6-1.4,2.7-1.7s2.3-0.5,3.6-0.5c0.9,0,1.7,0.1,2.5,0.2s1.5,0.4,2.1,0.7s1.2,0.8,1.7,1.3
			c0.5,0.5,0.9,1.2,1.2,2c0.3,0.8,0.6,1.8,0.8,2.9s0.3,2.4,0.3,3.8S245.4,562.6,245.2,563.7z M265.3,563.5c-0.2,1.1-0.4,2.1-0.8,2.8
			c-0.3,0.8-0.7,1.4-1.2,1.9c-0.5,0.5-1,0.9-1.6,1.2c-0.6,0.3-1.3,0.5-2,0.6c-0.7,0.1-1.5,0.2-2.3,0.2h-7.5v-20.9h7.5
			c0.8,0,1.5,0.1,2.2,0.2c0.7,0.1,1.4,0.3,2,0.6s1.2,0.7,1.7,1.1s0.9,1.1,1.3,1.9s0.6,1.7,0.8,2.8c0.2,1.1,0.3,2.3,0.3,3.8
			C265.6,561.1,265.5,562.4,265.3,563.5z M285.2,563.5c0,1.2-0.1,2.3-0.4,3.2c-0.3,0.9-0.7,1.6-1.3,2.2s-1.4,1-2.4,1.3
			c-1,0.3-2.2,0.4-3.5,0.4s-2.6-0.1-3.5-0.4c-1-0.3-1.8-0.7-2.4-1.3c-0.6-0.6-1.1-1.3-1.4-2.2c-0.3-0.9-0.4-1.9-0.4-3.2v-14.2h3.5
			v14c0,0.8,0.1,1.5,0.2,2.1s0.4,1,0.7,1.3c0.3,0.3,0.8,0.5,1.3,0.6c0.5,0.1,1.2,0.2,2,0.2c0.7,0,1.3-0.1,1.8-0.2
			c0.5-0.1,1-0.3,1.3-0.6c0.4-0.3,0.6-0.7,0.8-1.3c0.2-0.5,0.3-1.2,0.3-2.1v-14h3.5V563.5z M303.3,570.2h-12.8v-20.9h12.6v3.3H294
			v5.5h7.6v3.2H294v5.7h9.3V570.2z M329.8,563.4c-0.1,1.1-0.3,2.1-0.6,2.9c-0.3,0.8-0.6,1.5-1,2.1s-0.9,1-1.5,1.4s-1.2,0.6-2,0.7
			s-1.6,0.2-2.5,0.2s-1.8-0.1-2.5-0.2c-0.7-0.2-1.4-0.4-2-0.7s-1.1-0.8-1.5-1.4s-0.8-1.3-1-2.1c-0.3-0.8-0.5-1.8-0.6-2.9
			c-0.1-1.1-0.2-2.4-0.2-3.8c0-2.2,0.1-3.9,0.4-5.3c0.3-1.4,0.8-2.5,1.4-3.3s1.4-1.3,2.4-1.7c1-0.3,2.2-0.5,3.5-0.5
			c1.4,0,2.5,0.2,3.5,0.5c1,0.3,1.8,0.9,2.4,1.7c0.6,0.8,1.1,1.9,1.4,3.3c0.3,1.4,0.4,3.2,0.4,5.3C330,561,330,562.3,329.8,563.4z
			 M348.8,566h-2.2v4.3H343V566h-9.8v-2.3l8-14.3h5.3v13.5h2.2V566z"/>
		<polygon class="st2" points="337.1,562.8 343,562.8 343.1,552.1 343,552.1 		"/>
	</g>
</g>
<g id="unit05">
	<g>
		<path class="st3" d="M240.8,623.1c-0.4-0.6-0.9-1-1.5-1.2c-0.6-0.2-1.4-0.3-2.4-0.3s-1.8,0.1-2.4,0.3s-1.1,0.6-1.5,1.2
			c-0.4,0.6-0.6,1.4-0.8,2.4c-0.2,1-0.2,2.2-0.2,3.8c0,1.5,0.1,2.8,0.2,3.7c0.2,1,0.4,1.8,0.8,2.3c0.4,0.6,0.9,1,1.5,1.2
			s1.4,0.3,2.4,0.3s1.8-0.1,2.4-0.3c0.6-0.2,1.1-0.6,1.5-1.2c0.4-0.6,0.6-1.3,0.8-2.3c0.2-1,0.2-2.2,0.2-3.7c0-1.5-0.1-2.8-0.2-3.8
			C241.4,624.4,241.2,623.6,240.8,623.1z"/>
		<path class="st3" d="M325.5,623.2c-0.3-0.6-0.7-1-1.2-1.3s-1.2-0.4-2-0.4s-1.5,0.1-2,0.4c-0.5,0.3-0.9,0.7-1.2,1.3
			c-0.3,0.6-0.5,1.4-0.6,2.3c-0.1,0.9-0.2,2.1-0.2,3.5c0,1.3,0.1,2.5,0.2,3.5s0.3,1.8,0.6,2.5c0.3,0.6,0.7,1.1,1.2,1.4
			c0.5,0.3,1.2,0.5,2,0.5s1.5-0.2,2-0.5c0.5-0.3,0.9-0.8,1.2-1.4c0.3-0.6,0.5-1.5,0.6-2.4s0.2-2.2,0.2-3.5s-0.1-2.5-0.2-3.4
			S325.8,623.8,325.5,623.2z"/>
		<path class="st3" d="M261.1,624.1c-0.2-0.5-0.5-0.9-0.8-1.2c-0.3-0.3-0.7-0.5-1.1-0.6s-0.9-0.2-1.3-0.3c-0.5,0-1,0-1.5,0h-3v14.4
			h3c0.5,0,1,0,1.4,0s0.9-0.1,1.3-0.3c0.4-0.1,0.8-0.4,1.1-0.7c0.3-0.3,0.6-0.7,0.9-1.3c0.2-0.5,0.4-1.2,0.6-2.1
			c0.1-0.8,0.2-1.9,0.2-3.1c0-1.1-0.1-2.1-0.2-2.9S261.4,624.6,261.1,624.1z"/>
		<path class="st3" d="M171.1,599.9c-16.7,0-30.2,13.5-30.2,30.2v0c0,16.7,13.5,30.2,30.2,30.2h331.7v-60.5H171.1z M224,639.6h-3.5
			v-17.6h-0.1l-0.4,1.3c-0.1,0.4-0.2,0.8-0.4,1.2c-0.1,0.4-0.2,0.8-0.3,1l-2.7,8.4h-5.3l-2.8-8.5c-0.1-0.3-0.2-0.6-0.3-1
			c-0.1-0.4-0.2-0.8-0.4-1.1c-0.1-0.4-0.3-0.9-0.4-1.3h-0.1v17.6h-3.5v-20.9h6.1l3.9,12.6h0.1l4-12.6h6V639.6z M245.2,633
			c-0.2,1.1-0.4,2.1-0.8,2.9c-0.3,0.8-0.7,1.5-1.2,2c-0.5,0.5-1.1,1-1.7,1.3s-1.3,0.5-2.1,0.7c-0.8,0.1-1.6,0.2-2.5,0.2
			c-0.9,0-1.7-0.1-2.5-0.2s-1.5-0.3-2.1-0.7s-1.2-0.7-1.7-1.3c-0.5-0.5-0.9-1.2-1.3-2c-0.3-0.8-0.6-1.8-0.8-2.9s-0.3-2.4-0.3-3.9
			c0-2.2,0.2-4,0.6-5.4s1-2.5,1.7-3.3s1.6-1.4,2.7-1.7s2.3-0.5,3.6-0.5c0.9,0,1.7,0.1,2.5,0.2s1.5,0.4,2.1,0.7s1.2,0.8,1.7,1.3
			c0.5,0.5,0.9,1.2,1.2,2c0.3,0.8,0.6,1.8,0.8,2.9s0.3,2.4,0.3,3.8S245.4,631.9,245.2,633z M265.3,632.8c-0.2,1.1-0.4,2.1-0.8,2.8
			c-0.3,0.8-0.7,1.4-1.2,1.9c-0.5,0.5-1,0.9-1.6,1.2c-0.6,0.3-1.3,0.5-2,0.6c-0.7,0.1-1.5,0.2-2.3,0.2h-7.5v-20.9h7.5
			c0.8,0,1.5,0.1,2.2,0.2c0.7,0.1,1.4,0.3,2,0.6s1.2,0.7,1.7,1.1s0.9,1.1,1.3,1.9s0.6,1.7,0.8,2.8c0.2,1.1,0.3,2.3,0.3,3.8
			C265.6,630.4,265.5,631.7,265.3,632.8z M285.2,632.8c0,1.2-0.1,2.3-0.4,3.2c-0.3,0.9-0.7,1.6-1.3,2.2s-1.4,1-2.4,1.3
			c-1,0.3-2.2,0.4-3.5,0.4s-2.6-0.1-3.5-0.4c-1-0.3-1.8-0.7-2.4-1.3c-0.6-0.6-1.1-1.3-1.4-2.2c-0.3-0.9-0.4-1.9-0.4-3.2v-14.2h3.5
			v14c0,0.8,0.1,1.5,0.2,2.1s0.4,1,0.7,1.3c0.3,0.3,0.8,0.5,1.3,0.6c0.5,0.1,1.2,0.2,2,0.2c0.7,0,1.3-0.1,1.8-0.2
			c0.5-0.1,1-0.3,1.3-0.6c0.4-0.3,0.6-0.7,0.8-1.3c0.2-0.5,0.3-1.2,0.3-2.1v-14h3.5V632.8z M303.3,639.6h-12.8v-20.9h12.6v3.3H294
			v5.5h7.6v3.2H294v5.7h9.3V639.6z M329.8,632.7c-0.1,1.1-0.3,2.1-0.6,2.9c-0.3,0.8-0.6,1.5-1,2.1s-0.9,1-1.5,1.4s-1.2,0.6-2,0.7
			s-1.6,0.2-2.5,0.2s-1.8-0.1-2.5-0.2c-0.7-0.2-1.4-0.4-2-0.7s-1.1-0.8-1.5-1.4s-0.8-1.3-1-2.1c-0.3-0.8-0.5-1.8-0.6-2.9
			c-0.1-1.1-0.2-2.4-0.2-3.8c0-2.2,0.1-3.9,0.4-5.3c0.3-1.4,0.8-2.5,1.4-3.3s1.4-1.3,2.4-1.7c1-0.3,2.2-0.5,3.5-0.5
			c1.4,0,2.5,0.2,3.5,0.5c1,0.3,1.8,0.9,2.4,1.7c0.6,0.8,1.1,1.9,1.4,3.3c0.3,1.4,0.4,3.2,0.4,5.3C330,630.3,330,631.6,329.8,632.7z
			 M346.3,636.6c-0.4,0.9-0.8,1.5-1.5,2c-0.6,0.5-1.4,0.9-2.2,1c-0.9,0.2-1.8,0.3-2.8,0.3c-0.8,0-1.5,0-2.2-0.1s-1.2-0.2-1.7-0.3
			c-0.6-0.1-1.1-0.3-1.5-0.5v-2.6c0.5,0.1,0.9,0.1,1.4,0.2c0.4,0,0.9,0.1,1.4,0.1s1,0,1.5,0c0.8,0,1.5-0.1,2.1-0.2
			c0.6-0.1,1-0.4,1.4-0.7s0.6-0.7,0.8-1.1s0.3-1,0.3-1.7c0-0.6,0-1.2-0.1-1.6s-0.3-0.8-0.5-1.1c-0.2-0.3-0.6-0.5-1-0.6
			s-1-0.2-1.6-0.2c-0.6,0-1.2,0-1.8,0.1s-1.1,0.1-1.6,0.1c-0.5,0.1-1,0.1-1.5,0.2v-11.4h11.1v3.3h-7.7v4.7c0.2,0,0.5-0.1,0.7-0.1
			c0.2,0,0.5,0,0.8-0.1s0.6,0,0.9,0c1,0,1.9,0.1,2.6,0.3c0.7,0.2,1.3,0.6,1.8,1.1s0.9,1.2,1.1,2.1c0.2,0.9,0.4,2,0.4,3.4
			C346.9,634.7,346.7,635.8,346.3,636.6z"/>
	</g>
</g>
</svg>
